<?xml version="1.0" encoding="UTF-8" standalone="no"?>
<svg width="46px" height="60px" viewBox="0 0 46 60" version="1.1" xmlns="http://www.w3.org/2000/svg" xmlns:xlink="http://www.w3.org/1999/xlink">
    <!-- Generator: Sketch 40.1 (33804) - http://www.bohemiancoding.com/sketch -->
    <title>52 - Church (holidays, travel, vacation, outline)</title>
    <desc>Created with Sketch.</desc>
    <defs></defs>
    <g id="Page-1" stroke="none" stroke-width="1" fill="none" fill-rule="evenodd" stroke-linecap="round">
        <g id="Icons" transform="translate(-1086.000000, -597.000000)" stroke-width="2">
            <g id="Church" transform="translate(1087.000000, 598.000000)">
                <polygon id="Path" stroke="#020202" stroke-linejoin="round" points="39 40 6 40 17 25 27 25"></polygon>
                <polygon id="Path" stroke="#020202" stroke-linejoin="round" points="18 17 26 17 26 25 18 25"></polygon>
                <polygon id="Path" stroke="#020202" stroke-linejoin="round" points="28 17 16 17 20 9 24 9"></polygon>
                <path d="M22,0 L22,9 L22,0 Z" id="Path" stroke="#020202" stroke-linejoin="round"></path>
                <path d="M19,3 L25,3 L19,3 Z" id="Path" stroke="#020202" stroke-linejoin="round"></path>
                <path d="M9,40 L9,58 L18,58 L18,50.5 C18,48.015 20.015,46 22.5,46 C24.985,46 27,48.015 27,50.5 L27,58 L36,58 L36,40 L9,40 L9,40 Z" id="Path" stroke="#020202" stroke-linejoin="round"></path>
                <polygon id="Path" stroke="#020202" stroke-linejoin="round" points="19 30 25 30 25 35 19 35"></polygon>
                <path d="M0,58 L44,58" id="Stroke-655" stroke="#000000"></path>
            </g>
        </g>
    </g>
</svg>