<?xml version="1.0" encoding="UTF-8" standalone="no"?>
<svg width="59px" height="59px" viewBox="0 0 59 59" version="1.1" xmlns="http://www.w3.org/2000/svg" xmlns:xlink="http://www.w3.org/1999/xlink">
    <!-- Generator: Sketch 40.1 (33804) - http://www.bohemiancoding.com/sketch -->
    <title>84 -Upload Web- (seo, marketing, web, business, internet, webby)</title>
    <desc>Created with Sketch.</desc>
    <defs></defs>
    <g id="Page-1" stroke="none" stroke-width="1" fill="none" fill-rule="evenodd">
        <g id="SEO-&amp;-Analytics-Webby" transform="translate(-482.000000, -1350.000000)">
            <g id="84--Upload-Web--(seo,-marketing,-web,-business,-internet,-webby)" transform="translate(483.000000, 1351.000000)">
                <path d="M35,35 L55.118,35 C55.694,32.763 56,30.417 56,28 C56,12.536 43.464,0 28,0 C12.536,0 0,12.536 0,28 C0,43.464 12.536,56 28,56 C30.417,56 32.763,55.694 35,55.118 L35,35 Z" id="Fill-143" fill="#FFFFFF"></path>
                <path d="M35,35 L55.118,35 C55.694,32.763 56,30.417 56,28 C56,12.536 43.464,0 28,0 C12.536,0 0,12.536 0,28 C0,43.464 12.536,56 28,56 C30.417,56 32.763,55.694 35,55.118 L35,35 L35,35 Z" id="Stroke-144" stroke="#0F81E0" stroke-width="2" stroke-linecap="round" stroke-linejoin="round"></path>
                <polygon id="Fill-2153" fill="#C6E3F8" points="35 57 57 57 57 35 35 35"></polygon>
                <polygon id="Stroke-2154" stroke="#0F81E0" stroke-width="2" stroke-linecap="round" stroke-linejoin="round" points="35 57 57 57 57 35 35 35"></polygon>
                <path d="M46,57 L46,41" id="Stroke-2155" stroke="#1081E0" stroke-width="2"></path>
                <polyline id="Stroke-2156" stroke="#1081E0" stroke-width="2" points="52 47 46 41 40 47"></polyline>
                <path d="M28,56 L28,0" id="Stroke-2528" stroke="#1081E0" stroke-width="2" stroke-linecap="round"></path>
                <path d="M28,0 C27.786,0 27.574,0.011 27.361,0.016 C19.213,6.616 14,16.697 14,28 C14,39.303 19.213,49.384 27.361,55.984 C27.574,55.989 27.786,56 28,56" id="Stroke-2529" stroke="#1081E0" stroke-width="2" stroke-linecap="round"></path>
                <path d="M7.6983,8.7282 C13.4783,12.6832 20.4673,15.0002 28.0003,15.0002 C35.5323,15.0002 42.5213,12.6832 48.3013,8.7282" id="Stroke-2530" stroke="#1081E0" stroke-width="2" stroke-linecap="round"></path>
                <path d="M28,40 C20.221,40 13.025,42.475 7.138,46.67" id="Stroke-2531" stroke="#1081E0" stroke-width="2" stroke-linecap="round"></path>
                <path d="M42,28 C42,16.697 36.787,6.616 28.639,0.016 C28.426,0.011 28.214,0 28,0" id="Stroke-2532" stroke="#1081E0" stroke-width="2" stroke-linecap="round"></path>
                <path d="M0,28 L56,28" id="Stroke-2533" stroke="#1081E0" stroke-width="2" stroke-linecap="round"></path>
            </g>
        </g>
    </g>
</svg>