<?xml version="1.0" encoding="UTF-8" standalone="no"?>
<svg width="60px" height="60px" viewBox="0 0 60 60" version="1.1" xmlns="http://www.w3.org/2000/svg" xmlns:xlink="http://www.w3.org/1999/xlink">
    <!-- Generator: Sketch 40.1 (33804) - http://www.bohemiancoding.com/sketch -->
    <title>1 - Retrieve From Bag (business, finance, marketing, solid)</title>
    <desc>Created with Sketch.</desc>
    <defs></defs>
    <g id="Page-1" stroke="none" stroke-width="1" fill="none" fill-rule="evenodd">
        <g id="Icons" transform="translate(-1200.000000, -2278.000000)" fill="#ffffff">
            <g id="Retrieve-From-Bag" transform="translate(1200.000000, 2278.000000)">
                <path d="M39,4 L56.414,4 L51.34,9.074 L58.481,18 L59,18 L59,2 L58.414,2 L58.345,2.069 C58.236,2.029 58.122,2 58,2 L39,2 C38.447,2 38,2.447 38,3 C38,3.553 38.447,4 39,4" id="Fill-36"></path>
                <polyline id="Fill-37" points="9 18 9 11.851 4.081 18 9 18"></polyline>
                <polyline id="Fill-38" points="51 18 55.919 18 51 11.851 51 18"></polyline>
                <path d="M8.66,9.074 L3.586,4 L21,4 C21.553,4 22,3.553 22,3 C22,2.447 21.553,2 21,2 L2,2 C1.878,2 1.764,2.029 1.655,2.069 L1.586,2 L1,2 L1,18 L1.519,18 L8.66,9.074" id="Fill-39"></path>
                <path d="M31,19 L31,3.414 L36.293,8.707 C36.488,8.902 36.744,9 37,9 C37.256,9 37.512,8.902 37.707,8.707 C38.098,8.316 38.098,7.684 37.707,7.293 L30.708,0.294 C30.616,0.201 30.505,0.128 30.382,0.077 C30.137,-0.024 29.862,-0.024 29.618,0.077 C29.495,0.128 29.384,0.201 29.292,0.294 L22.293,7.293 C21.902,7.684 21.902,8.316 22.293,8.707 C22.488,8.902 22.744,9 23,9 C23.256,9 23.512,8.902 23.707,8.707 L29,3.414 L29,19 L0,19 L0,54.259 C0,56.873 2.127,59 4.741,59 L55.259,59 C57.873,59 60,56.873 60,54.259 L60,19 L31,19 L31,19 Z M16,28 C16,28.553 15.553,29 15,29 C14.447,29 14,28.553 14,28 C14,25.794 15.794,24 18,24 C20.206,24 22,25.794 22,28 C22,28.553 21.553,29 21,29 C20.447,29 20,28.553 20,28 C20,26.897 19.103,26 18,26 C16.897,26 16,26.897 16,28 L16,28 Z M43,38 C43,45.168 37.168,51 30,51 C22.832,51 17,45.168 17,38 L17,32 C17,31.447 17.447,31 18,31 C18.553,31 19,31.447 19,32 L19,38 C19,44.065 23.935,49 30,49 C36.065,49 41,44.065 41,38 L41,32 C41,31.447 41.447,31 42,31 C42.553,31 43,31.447 43,32 L43,38 L43,38 Z M42,26 C40.897,26 40,26.897 40,28 C40,28.553 39.553,29 39,29 C38.447,29 38,28.553 38,28 C38,25.794 39.794,24 42,24 C44.206,24 46,25.794 46,28 C46,28.553 45.553,29 45,29 C44.447,29 44,28.553 44,28 C44,26.897 43.103,26 42,26 L42,26 Z" id="Fill-40"></path>
            </g>
        </g>
    </g>
</svg>