<?xml version="1.0" encoding="UTF-8" standalone="no"?>
<svg width="60px" height="60px" viewBox="0 0 60 60" version="1.1" xmlns="http://www.w3.org/2000/svg" xmlns:xlink="http://www.w3.org/1999/xlink">
    <!-- Generator: Sketch 40.1 (33804) - http://www.bohemiancoding.com/sketch -->
    <title>139 - Time Passing (business, finance, marketing, solid)</title>
    <desc>Created with Sketch.</desc>
    <defs></defs>
    <g id="Page-1" stroke="none" stroke-width="1" fill="none" fill-rule="evenodd">
        <g id="Icons" transform="translate(-240.000000, -717.000000)" fill="#ffffff">
            <g id="Time-Passing" transform="translate(240.000000, 717.000000)">
                <path d="M1,31 C1.552,31 2,30.553 2,30 C2,14.56 14.561,2 30,2 C36.327,2 42.378,4.115 47.302,8 L42,8 C41.448,8 41,8.447 41,9 C41,9.553 41.448,10 42,10 L49.915,10 C49.981,10.006 50.043,10.007 50.109,10 L51,10 L51,1 C51,0.447 50.552,0 50,0 C49.448,0 49,0.447 49,1 L49,6.809 C43.643,2.408 36.981,0 30,0 C13.458,0 0,13.458 0,30 C0,30.553 0.448,31 1,31" id="Fill-36"></path>
                <path d="M11.06,50.6 C10.66,50.229 10.02,50.26 9.65,50.66 C9.27,51.069 9.3,51.7 9.71,52.08 C9.9,52.25 10.14,52.34 10.38,52.34 C10.65,52.34 10.92,52.229 11.12,52.019 C11.49,51.609 11.47,50.979 11.06,50.609 L11.06,50.6" id="Fill-37"></path>
                <path d="M7.62,48.45 C7.21,48.819 7.17,49.45 7.54,49.859 C7.73,50.09 8.01,50.2 8.29,50.2 C8.52,50.2 8.76,50.12 8.95,49.95 C9.36,49.58 9.4,48.95 9.03,48.54 C8.67,48.12 8.04,48.09 7.62,48.45" id="Fill-38"></path>
                <path d="M7.23,46.269 C6.91,45.83 6.28,45.72 5.83,46.04 C5.38,46.37 5.28,46.99 5.6,47.439 C5.8,47.71 6.1,47.859 6.42,47.859 C6.62,47.859 6.82,47.8 7,47.67 C7.45,47.35 7.55,46.72 7.23,46.269" id="Fill-39"></path>
                <path d="M11.89,52.66 C11.56,53.1 11.65,53.729 12.1,54.06 C12.27,54.189 12.48,54.25 12.69,54.25 C13,54.25 13.3,54.12 13.5,53.85 C13.82,53.41 13.73,52.78 13.29,52.45 C12.85,52.12 12.22,52.21 11.89,52.66" id="Fill-40"></path>
                <path d="M15.7,54.06 C15.22,53.78 14.61,53.93 14.33,54.41 C14.04,54.88 14.2,55.5 14.67,55.78 C14.83,55.88 15.01,55.92 15.18,55.92 C15.52,55.92 15.85,55.75 16.04,55.43 C16.33,54.96 16.17,54.35 15.7,54.06" id="Fill-41"></path>
                <path d="M58.94,32.12 L58.98,32.12 C59.52,32.12 59.96,31.689 59.98,31.16 C60,30.6 59.57,30.14 59.02,30.12 C58.47,30.1 58,30.53 57.98,31.08 C57.96,31.63 58.39,32.1 58.94,32.12" id="Fill-42"></path>
                <path d="M1.26,33.99 C1.81,33.93 2.21,33.44 2.15,32.89 C2.09,32.34 1.6,31.94 1.05,32 C0.5,32.05 0.1,32.55 0.16,33.09 C0.21,33.609 0.65,33.99 1.15,33.99 L1.26,33.99" id="Fill-43"></path>
                <path d="M1.82,36.93 C2.36,36.819 2.71,36.29 2.59,35.75 C2.48,35.21 1.95,34.859 1.41,34.979 C0.87,35.09 0.52,35.62 0.64,36.16 C0.73,36.63 1.15,36.95 1.61,36.95 C1.68,36.95 1.75,36.95 1.82,36.93" id="Fill-44"></path>
                <path d="M18.26,55.42 C17.75,55.18 17.16,55.399 16.93,55.899 C16.7,56.399 16.91,57 17.41,57.229 C17.55,57.29 17.69,57.319 17.83,57.319 C18.21,57.319 18.57,57.109 18.74,56.74 C18.97,56.24 18.76,55.649 18.26,55.42" id="Fill-45"></path>
                <path d="M4.36,41.25 C4.14,40.75 3.55,40.519 3.04,40.74 C2.54,40.96 2.31,41.55 2.53,42.06 C2.7,42.43 3.06,42.66 3.45,42.66 C3.58,42.66 3.72,42.63 3.85,42.569 C4.35,42.35 4.58,41.76 4.36,41.25" id="Fill-46"></path>
                <path d="M3.33,38.55 C3.17,38.019 2.6,37.729 2.08,37.899 C1.55,38.069 1.26,38.63 1.43,39.16 C1.57,39.58 1.96,39.85 2.38,39.85 C2.48,39.85 2.59,39.84 2.69,39.81 C3.21,39.64 3.5,39.069 3.33,38.55" id="Fill-47"></path>
                <path d="M5.67,43.84 L5.66,43.84 C5.39,43.359 4.78,43.19 4.3,43.47 C3.82,43.74 3.65,44.35 3.93,44.83 C4.11,45.149 4.45,45.33 4.8,45.33 C4.96,45.33 5.14,45.29 5.29,45.2 C5.77,44.93 5.94,44.319 5.67,43.84" id="Fill-48"></path>
                <path d="M29.46,57.99 C28.91,57.979 28.45,58.42 28.44,58.97 C28.43,59.53 28.87,59.979 29.42,59.99 L29.44,59.99 C29.99,59.99 30.43,59.56 30.44,59.01 C30.45,58.46 30.01,58 29.46,57.99" id="Fill-49"></path>
                <path d="M55.16,44.439 C54.69,44.149 54.07,44.3 53.78,44.76 C53.49,45.229 53.63,45.85 54.1,46.14 C54.27,46.24 54.45,46.29 54.63,46.29 C54.96,46.29 55.29,46.13 55.48,45.819 C55.77,45.35 55.63,44.729 55.16,44.439" id="Fill-50"></path>
                <path d="M52.13,47.14 C51.79,47.569 51.87,48.2 52.3,48.54 C52.49,48.68 52.7,48.75 52.92,48.75 C53.21,48.75 53.51,48.62 53.71,48.359 C54.05,47.93 53.97,47.3 53.53,46.96 C53.09,46.62 52.47,46.7 52.13,47.14" id="Fill-51"></path>
                <path d="M50.24,49.33 C49.85,49.729 49.87,50.359 50.27,50.74 C50.46,50.93 50.71,51.019 50.96,51.019 C51.22,51.019 51.49,50.92 51.68,50.71 C52.06,50.31 52.05,49.68 51.65,49.3 C51.25,48.92 50.62,48.93 50.24,49.33" id="Fill-52"></path>
                <path d="M56.52,41.769 C56.03,41.53 55.42,41.729 55.18,42.229 C54.94,42.729 55.15,43.33 55.64,43.569 C55.78,43.64 55.93,43.67 56.08,43.67 C56.45,43.67 56.81,43.46 56.98,43.109 C57.22,42.609 57.02,42.01 56.52,41.769" id="Fill-53"></path>
                <path d="M48.13,51.319 C47.71,51.68 47.66,52.31 48.02,52.729 C48.22,52.96 48.5,53.08 48.78,53.08 C49.01,53.08 49.24,53 49.43,52.84 C49.85,52.479 49.9,51.85 49.54,51.43 C49.18,51.01 48.55,50.96 48.13,51.319" id="Fill-54"></path>
                <path d="M58.85,33.109 C58.31,33.03 57.8,33.42 57.72,33.96 C57.64,34.51 58.02,35.01 58.57,35.09 C58.62,35.1 58.67,35.1 58.71,35.1 C59.2,35.1 59.63,34.74 59.7,34.24 C59.78,33.7 59.4,33.189 58.85,33.109" id="Fill-55"></path>
                <path d="M57.6,38.97 C57.08,38.78 56.5,39.05 56.32,39.569 C56.13,40.09 56.39,40.66 56.91,40.85 C57.02,40.89 57.14,40.91 57.25,40.91 C57.66,40.91 58.05,40.66 58.19,40.25 C58.38,39.729 58.12,39.16 57.6,38.97" id="Fill-56"></path>
                <path d="M58.38,36.069 C57.84,35.939 57.3,36.269 57.16,36.8 C57.03,37.34 57.36,37.88 57.89,38.019 C57.97,38.04 58.05,38.05 58.13,38.05 C58.58,38.05 58.99,37.74 59.1,37.29 C59.24,36.75 58.91,36.21 58.38,36.069" id="Fill-57"></path>
                <path d="M35.22,57.51 C34.68,57.609 34.32,58.14 34.42,58.68 C34.51,59.16 34.94,59.49 35.41,59.49 C35.47,59.49 35.53,59.49 35.59,59.479 C36.13,59.37 36.49,58.85 36.39,58.31 C36.29,57.76 35.76,57.41 35.22,57.51" id="Fill-58"></path>
                <path d="M32.35,57.899 C31.8,57.95 31.39,58.43 31.44,58.979 C31.48,59.5 31.92,59.899 32.44,59.899 L32.52,59.899 L32.52,59.89 C33.07,59.85 33.48,59.37 33.43,58.819 C33.39,58.269 32.9,57.859 32.35,57.899" id="Fill-59"></path>
                <path d="M20.94,56.5 C20.42,56.319 19.85,56.59 19.67,57.12 C19.49,57.64 19.77,58.21 20.29,58.39 C20.4,58.42 20.51,58.439 20.62,58.439 C21.03,58.439 21.42,58.18 21.56,57.769 C21.74,57.24 21.46,56.67 20.94,56.5" id="Fill-60"></path>
                <path d="M26.57,57.79 C26.02,57.72 25.53,58.109 25.46,58.66 C25.39,59.21 25.78,59.71 26.33,59.769 L26.33,59.78 L26.45,59.78 C26.95,59.78 27.38,59.41 27.44,58.899 C27.51,58.35 27.12,57.859 26.57,57.79" id="Fill-61"></path>
                <path d="M23.72,57.29 C23.18,57.17 22.65,57.5 22.52,58.04 C22.4,58.58 22.74,59.12 23.27,59.24 C23.35,59.26 23.42,59.26 23.5,59.26 C23.95,59.26 24.37,58.95 24.47,58.49 C24.6,57.95 24.26,57.41 23.72,57.29" id="Fill-62"></path>
                <path d="M38.03,56.83 C37.5,56.979 37.2,57.54 37.36,58.069 C37.49,58.5 37.89,58.78 38.32,58.78 C38.41,58.78 38.51,58.769 38.61,58.74 C39.14,58.58 39.44,58.019 39.28,57.49 C39.12,56.97 38.56,56.67 38.03,56.83" id="Fill-63"></path>
                <path d="M43.37,54.6 C42.88,54.859 42.7,55.47 42.97,55.95 C43.15,56.29 43.49,56.479 43.85,56.479 C44.01,56.479 44.17,56.439 44.32,56.35 C44.81,56.09 44.99,55.479 44.72,55 C44.46,54.51 43.85,54.33 43.37,54.6" id="Fill-64"></path>
                <path d="M40.76,55.85 C40.25,56.06 40.01,56.649 40.22,57.16 C40.38,57.54 40.75,57.769 41.14,57.769 C41.27,57.769 41.4,57.75 41.53,57.7 C42.04,57.479 42.28,56.899 42.07,56.39 C41.85,55.88 41.27,55.64 40.76,55.85" id="Fill-65"></path>
                <path d="M45.83,53.08 C45.38,53.39 45.26,54.019 45.58,54.47 C45.77,54.75 46.08,54.899 46.4,54.899 C46.6,54.899 46.79,54.85 46.97,54.729 C47.42,54.42 47.54,53.79 47.22,53.34 C46.91,52.88 46.29,52.769 45.83,53.08" id="Fill-66"></path>
                <path d="M30,8 C17.869,8 8,17.869 8,30 C8,42.131 17.869,52 30,52 C42.131,52 52,42.131 52,30 C52,17.869 42.131,8 30,8 L30,8 Z M29,12 C29,11.447 29.448,11 30,11 C30.552,11 31,11.447 31,12 L31,14 C31,14.553 30.552,15 30,15 C29.448,15 29,14.553 29,14 L29,12 L29,12 Z M14,31 L12,31 C11.448,31 11,30.553 11,30 C11,29.447 11.448,29 12,29 L14,29 C14.552,29 15,29.447 15,30 C15,30.553 14.552,31 14,31 L14,31 Z M31,48 C31,48.553 30.552,49 30,49 C29.448,49 29,48.553 29,48 L29,46 C29,45.447 29.448,45 30,45 C30.552,45 31,45.447 31,46 L31,48 L31,48 Z M41.707,40.707 C41.512,40.902 41.256,41 41,41 C40.744,41 40.488,40.902 40.293,40.707 L32.019,32.433 C31.424,32.784 30.74,33 30,33 C27.794,33 26,31.206 26,29 C26,27.141 27.28,25.589 29,25.142 L29,20 C29,19.447 29.448,19 30,19 C30.552,19 31,19.447 31,20 L31,25.142 C32.72,25.589 34,27.141 34,29 C34,29.74 33.785,30.424 33.433,31.019 L41.707,39.293 C42.098,39.684 42.098,40.316 41.707,40.707 L41.707,40.707 Z M48,29 C48.552,29 49,29.447 49,30 C49,30.553 48.552,31 48,31 L46,31 C45.448,31 45,30.553 45,30 C45,29.447 45.448,29 46,29 L48,29 L48,29 Z" id="Fill-67"></path>
                <path d="M30,27 C28.897,27 28,27.897 28,29 C28,30.102 28.897,31 30,31 C31.103,31 32,30.102 32,29 C32,27.897 31.103,27 30,27" id="Fill-68"></path>
            </g>
        </g>
    </g>
</svg>