<?xml version="1.0" encoding="UTF-8"?>
<svg width="60px" height="60px" viewBox="0 0 60 60" version="1.1" xmlns="http://www.w3.org/2000/svg" xmlns:xlink="http://www.w3.org/1999/xlink">
    <!-- Generator: Sketch 49.3 (51167) - http://www.bohemiancoding.com/sketch -->
    <title>049 - Contactless </title>
    <desc>Created with Sketch.</desc>
    <defs></defs>
    <g id="Page-1" stroke="none" stroke-width="1" fill="none" fill-rule="evenodd">
        <g id="049---Contactless-" fill="#a7abad" fill-rule="nonzero">
            <path d="M29,8 L5,8 C4.44837862,8.00159825 4.00159825,8.44837862 4,9 L4,27 C4.00159825,27.5516214 4.44837862,27.9984017 5,28 L14,28 L14,15 C13.9997108,13.9390454 14.4210453,12.9214617 15.1712535,12.1712535 C15.9214617,11.4210453 16.9390454,10.9997108 18,11 L30,11 L30,9 C29.9984017,8.44837862 29.5516214,8.00159825 29,8 Z M29,8 L5,8 C4.44837862,8.00159825 4.00159825,8.44837862 4,9 L4,27 C4.00159825,27.5516214 4.44837862,27.9984017 5,28 L14,28 L14,15 C13.9997108,13.9390454 14.4210453,12.9214617 15.1712535,12.1712535 C15.9214617,11.4210453 16.9390454,10.9997108 18,11 L30,11 L30,9 C29.9984017,8.44837862 29.5516214,8.00159825 29,8 Z M29,8 L5,8 C4.44837862,8.00159825 4.00159825,8.44837862 4,9 L4,27 C4.00159825,27.5516214 4.44837862,27.9984017 5,28 L14,28 L14,15 C13.9997108,13.9390454 14.4210453,12.9214617 15.1712535,12.1712535 C15.9214617,11.4210453 16.9390454,10.9997108 18,11 L30,11 L30,9 C29.9984017,8.44837862 29.5516214,8.00159825 29,8 Z M20,17 L20,21 L24,21 L24,17 L20,17 Z M20,17 L20,21 L24,21 L24,17 L20,17 Z M29,8 L5,8 C4.44837862,8.00159825 4.00159825,8.44837862 4,9 L4,27 C4.00159825,27.5516214 4.44837862,27.9984017 5,28 L14,28 L14,15 C13.9997108,13.9390454 14.4210453,12.9214617 15.1712535,12.1712535 C15.9214617,11.4210453 16.9390454,10.9997108 18,11 L30,11 L30,9 C29.9984017,8.44837862 29.5516214,8.00159825 29,8 Z M20,17 L20,21 L24,21 L24,17 L20,17 Z M20,17 L20,21 L24,21 L24,17 L20,17 Z M29,8 L5,8 C4.44837862,8.00159825 4.00159825,8.44837862 4,9 L4,27 C4.00159825,27.5516214 4.44837862,27.9984017 5,28 L14,28 L14,15 C13.9997108,13.9390454 14.4210453,12.9214617 15.1712535,12.1712535 C15.9214617,11.4210453 16.9390454,10.9997108 18,11 L30,11 L30,9 C29.9984017,8.44837862 29.5516214,8.00159825 29,8 Z M20,17 L20,21 L24,21 L24,17 L20,17 Z M20,17 L20,21 L24,21 L24,17 L20,17 Z M29,8 L5,8 C4.44837862,8.00159825 4.00159825,8.44837862 4,9 L4,27 C4.00159825,27.5516214 4.44837862,27.9984017 5,28 L14,28 L14,15 C13.9997108,13.9390454 14.4210453,12.9214617 15.1712535,12.1712535 C15.9214617,11.4210453 16.9390454,10.9997108 18,11 L30,11 L30,9 C29.9984017,8.44837862 29.5516214,8.00159825 29,8 Z M20,17 L20,21 L24,21 L24,17 L20,17 Z M20,17 L20,21 L24,21 L24,17 L20,17 Z M30,11 L30,9 C29.9984017,8.44837862 29.5516214,8.00159825 29,8 L5,8 C4.44837862,8.00159825 4.00159825,8.44837862 4,9 L4,27 C4.00159825,27.5516214 4.44837862,27.9984017 5,28 L14,28 L14,15 C13.9997108,13.9390454 14.4210453,12.9214617 15.1712535,12.1712535 C15.9214617,11.4210453 16.9390454,10.9997108 18,11 L30,11 Z M29.48,21.8 C30.9230874,20.5977179 32.9334381,20.3439843 34.63,21.15 L51,28.94 L51,15 C50.9967762,13.8967686 50.1032314,13.0032238 49,13 L18,13 C16.8967686,13.0032238 16.0032238,13.8967686 16,15 L16,34 C16.0032457,35.1032223 16.8967777,35.9967543 18,36 L39.28,36 L36.23,33.48 C35.6911248,33.042013 35.1231538,32.6410923 34.53,32.28 L30.08005,29.62 C28.7391985,28.8206248 27.8730831,27.4169508 27.76,25.86 C27.6754051,24.8585172 27.9136834,23.8562582 28.43994,23 C28.7196572,22.5465384 29.0708793,22.1413055 29.48,21.8 Z M24,23 L20,23 C18.8967777,22.9967543 18.0032457,22.1032223 18,21 L18,17 C18.0032238,15.8967686 18.8967686,15.0032238 20,15 L24,15 C25.1032314,15.0032238 25.9967762,15.8967686 26,17 L26,21 C25.9947571,22.1023905 25.1023905,22.9947571 24,23 Z M20,21 L24,21 L24,17 L20,17 L20,21 Z M29,8 L5,8 C4.44837862,8.00159825 4.00159825,8.44837862 4,9 L4,27 C4.00159825,27.5516214 4.44837862,27.9984017 5,28 L14,28 L14,15 C13.9997108,13.9390454 14.4210453,12.9214617 15.1712535,12.1712535 C15.9214617,11.4210453 16.9390454,10.9997108 18,11 L30,11 L30,9 C29.9984017,8.44837862 29.5516214,8.00159825 29,8 Z M20,17 L20,21 L24,21 L24,17 L20,17 Z M20,17 L20,21 L24,21 L24,17 L20,17 Z M29,8 L5,8 C4.44837862,8.00159825 4.00159825,8.44837862 4,9 L4,27 C4.00159825,27.5516214 4.44837862,27.9984017 5,28 L14,28 L14,15 C13.9997108,13.9390454 14.4210453,12.9214617 15.1712535,12.1712535 C15.9214617,11.4210453 16.9390454,10.9997108 18,11 L30,11 L30,9 C29.9984017,8.44837862 29.5516214,8.00159825 29,8 Z M20,17 L20,21 L24,21 L24,17 L20,17 Z M20,17 L20,21 L24,21 L24,17 L20,17 Z M29,8 L5,8 C4.44837862,8.00159825 4.00159825,8.44837862 4,9 L4,27 C4.00159825,27.5516214 4.44837862,27.9984017 5,28 L14,28 L14,15 C13.9997108,13.9390454 14.4210453,12.9214617 15.1712535,12.1712535 C15.9214617,11.4210453 16.9390454,10.9997108 18,11 L30,11 L30,9 C29.9984017,8.44837862 29.5516214,8.00159825 29,8 Z M20,17 L20,21 L24,21 L24,17 L20,17 Z M20,17 L20,21 L24,21 L24,17 L20,17 Z M29,8 L5,8 C4.44837862,8.00159825 4.00159825,8.44837862 4,9 L4,27 C4.00159825,27.5516214 4.44837862,27.9984017 5,28 L14,28 L14,15 C13.9997108,13.9390454 14.4210453,12.9214617 15.1712535,12.1712535 C15.9214617,11.4210453 16.9390454,10.9997108 18,11 L30,11 L30,9 C29.9984017,8.44837862 29.5516214,8.00159825 29,8 Z M29,8 L5,8 C4.44837862,8.00159825 4.00159825,8.44837862 4,9 L4,27 C4.00159825,27.5516214 4.44837862,27.9984017 5,28 L14,28 L14,15 C13.9997108,13.9390454 14.4210453,12.9214617 15.1712535,12.1712535 C15.9214617,11.4210453 16.9390454,10.9997108 18,11 L30,11 L30,9 C29.9984017,8.44837862 29.5516214,8.00159825 29,8 Z M29,8 L5,8 C4.44837862,8.00159825 4.00159825,8.44837862 4,9 L4,27 C4.00159825,27.5516214 4.44837862,27.9984017 5,28 L14,28 L14,15 C13.9997108,13.9390454 14.4210453,12.9214617 15.1712535,12.1712535 C15.9214617,11.4210453 16.9390454,10.9997108 18,11 L30,11 L30,9 C29.9984017,8.44837862 29.5516214,8.00159825 29,8 Z M8,34 L8,36 L10,36 L10,34 L8,34 Z M8,42 L8,44 L10,44 L10,42 L8,42 Z M8,34 L8,36 L10,36 L10,34 L8,34 Z M16,42 L16,44 L18,44 L18,42 L16,42 Z M8,42 L8,44 L10,44 L10,42 L8,42 Z M8,34 L8,36 L10,36 L10,34 L8,34 Z M8,42 L8,44 L10,44 L10,42 L8,42 Z M8,34 L8,36 L10,36 L10,34 L8,34 Z M16,42 L16,44 L18,44 L18,42 L16,42 Z M24,42 L24,44 L26,44 L26,42 L24,42 Z M24,50 L24,52 L26,52 L26,50 L24,50 Z M24,42 L24,44 L26,44 L26,42 L24,42 Z M16,42 L16,44 L18,44 L18,42 L16,42 Z M8,34 L8,36 L10,36 L10,34 L8,34 Z M8,42 L8,44 L10,44 L10,42 L8,42 Z M8,42 L8,44 L10,44 L10,42 L8,42 Z M8,34 L8,36 L10,36 L10,34 L8,34 Z M16,50 L16,52 L18,52 L18,50 L16,50 Z M16,42 L16,44 L18,44 L18,42 L16,42 Z M24,50 L24,52 L26,52 L26,50 L24,50 Z M24,42 L24,44 L26,44 L26,42 L24,42 Z M26,42 L24,42 L24,44 L26,44 L26,42 Z M26,50 L24,50 L24,52 L26,52 L26,50 Z M18,50 L16,50 L16,52 L18,52 L18,50 Z M18,42 L16,42 L16,44 L18,44 L18,42 Z M10,50 L8,50 L8,52 L10,52 L10,50 Z M10,34 L8,34 L8,36 L10,36 L10,34 Z M10,42 L8,42 L8,44 L10,44 L10,42 Z M33,0 L1,0 C0.448378624,0.00159825193 0.00159825193,0.448378624 0,1 L0,31 C0.00159825193,31.5516214 0.448378624,31.9984017 1,32 L1.88,32 C1.92448496,32.0041103 1.96821239,32.0142012 2.01,32.03 C2.35977607,32.0557561 2.66528036,32.2761832 2.8,32.6 C2.81,32.63 2.81,32.67 2.82,32.7 C2.84470405,32.7821287 2.86471308,32.865597 2.87993,32.95 L3.82,53.14 C3.88878547,54.7446936 5.21385241,56.007924 6.82,56 L27.17993,56 C28.7860776,56.007924 30.1111445,54.7446936 30.17993,53.14 L30.88,38 L18,38 C16.9390527,38.0002653 15.9214829,37.5789232 15.1712799,36.8287201 C14.4210768,36.0785171 13.9997347,35.0609473 14,34 L14,30 L5,30 C3.34515859,29.9951506 2.00484937,28.6548414 2,27 L2,9 C2.00482753,7.3451495 3.3451495,6.00482753 5,6 L29,6 C30.6548505,6.00482753 31.9951725,7.3451495 32,9 L32,11 L34,11 L34,1 C33.9984017,0.448378624 33.5516214,0.00159825193 33,0 Z M22,42 C22.0032238,40.8967686 22.8967686,40.0032238 24,40 L26,40 C27.1032314,40.0032238 27.9967762,40.8967686 28,42 L28,44 C27.9967543,45.1032223 27.1032223,45.9967543 26,46 L24,46 C22.8967777,45.9967543 22.0032457,45.1032223 22,44 L22,42 Z M22,50 C22.0032238,48.8967686 22.8967686,48.0032238 24,48 L26,48 C27.1032314,48.0032238 27.9967762,48.8967686 28,50 L28,52 C27.9967543,53.1032223 27.1032223,53.9967543 26,54 L24,54 C22.8967777,53.9967543 22.0032457,53.1032223 22,52 L22,50 Z M14,42 C14.0032238,40.8967686 14.8967686,40.0032238 16,40 L18,40 C19.1032314,40.0032238 19.9967762,40.8967686 20,42 L20,44 C19.9967543,45.1032223 19.1032223,45.9967543 18,46 L16,46 C14.8967777,45.9967543 14.0032457,45.1032223 14,44 L14,42 Z M14,50 C14.0032238,48.8967686 14.8967686,48.0032238 16,48 L18,48 C19.1032314,48.0032238 19.9967762,48.8967686 20,50 L20,52 C19.9967543,53.1032223 19.1032223,53.9967543 18,54 L16,54 C14.8967777,53.9967543 14.0032457,53.1032223 14,52 L14,50 Z M6,34 C6.00322381,32.8967686 6.89676861,32.0032238 8,32 L10,32 C11.1032314,32.0032238 11.9967762,32.8967686 12,34 L12,36 C11.9967543,37.1032223 11.1032223,37.9967543 10,38 L8,38 C6.89677769,37.9967543 6.00324566,37.1032223 6,36 L6,34 Z M6,42 C6.00322381,40.8967686 6.89676861,40.0032238 8,40 L10,40 C11.1032314,40.0032238 11.9967762,40.8967686 12,42 L12,44 C11.9967543,45.1032223 11.1032223,45.9967543 10,46 L8,46 C6.89677769,45.9967543 6.00324566,45.1032223 6,44 L6,42 Z M6,50 C6.00322381,48.8967686 6.89676861,48.0032238 8,48 L10,48 C11.1032314,48.0032238 11.9967762,48.8967686 12,50 L12,52 C11.9967543,53.1032223 11.1032223,53.9967543 10,54 L8,54 C6.89677769,53.9967543 6.00324566,53.1032223 6,52 L6,50 Z M9,4 L7,4 C6.44771525,4 6,3.55228475 6,3 C6,2.44771525 6.44771525,2 7,2 L9,2 C9.55228475,2 10,2.44771525 10,3 C10,3.55228475 9.55228475,4 9,4 Z M15,4 L13,4 C12.4477153,4 12,3.55228475 12,3 C12,2.44771525 12.4477153,2 13,2 L15,2 C15.5522847,2 16,2.44771525 16,3 C16,3.55228475 15.5522847,4 15,4 Z M21,4 L19,4 C18.4477153,4 18,3.55228475 18,3 C18,2.44771525 18.4477153,2 19,2 L21,2 C21.5522847,2 22,2.44771525 22,3 C22,3.55228475 21.5522847,4 21,4 Z M27,4 L25,4 C24.4477153,4 24,3.55228475 24,3 C24,2.44771525 24.4477153,2 25,2 L27,2 C27.5522847,2 28,2.44771525 28,3 C28,3.55228475 27.5522847,4 27,4 Z M8,42 L8,44 L10,44 L10,42 L8,42 Z M8,34 L8,36 L10,36 L10,34 L8,34 Z M16,42 L16,44 L18,44 L18,42 L16,42 Z M16,50 L16,52 L18,52 L18,50 L16,50 Z M24,42 L24,44 L26,44 L26,42 L24,42 Z M24,50 L24,52 L26,52 L26,50 L24,50 Z M24,42 L24,44 L26,44 L26,42 L24,42 Z M24,50 L24,52 L26,52 L26,50 L24,50 Z M16,42 L16,44 L18,44 L18,42 L16,42 Z M8,34 L8,36 L10,36 L10,34 L8,34 Z M8,42 L8,44 L10,44 L10,42 L8,42 Z M8,42 L8,44 L10,44 L10,42 L8,42 Z M8,34 L8,36 L10,36 L10,34 L8,34 Z M16,42 L16,44 L18,44 L18,42 L16,42 Z M24,42 L24,44 L26,44 L26,42 L24,42 Z M16,42 L16,44 L18,44 L18,42 L16,42 Z M8,34 L8,36 L10,36 L10,34 L8,34 Z M8,42 L8,44 L10,44 L10,42 L8,42 Z M8,34 L8,36 L10,36 L10,34 L8,34 Z M8,42 L8,44 L10,44 L10,42 L8,42 Z M8,34 L8,36 L10,36 L10,34 L8,34 Z M42.38,39.67 L42.16992,38.37 L41.71,38 L38.05005,38 L38.44995,40.33 C38.5296524,40.8537581 38.8183065,41.322821 39.24995,41.63 C39.9082935,42.1001054 40.7851821,42.1267044 41.4708088,41.6973663 C42.1564355,41.2680282 42.5154027,40.4675386 42.37995,39.67 L42.38,39.67 Z M53,22.48 L53,29.89 L53.42993,30.1 C53.9269863,30.3374438 54.1374438,30.9328737 53.9,31.42993 C53.6625562,31.9269863 53.0671263,32.1374438 52.57007,31.9 L33.77007,22.95 C32.7814418,22.4813582 31.6106274,22.6296614 30.77007,23.33 C30.0686294,23.9104669 29.6919831,24.7948663 29.759534,25.7028298 C29.8270849,26.6107933 30.3304557,27.429721 31.11007,27.9 L35.56006,30.57 C36.2409525,30.9761349 36.8895209,31.4341587 37.5,31.94 L52.53,44.32 C53.0681878,44.7618738 53.7435673,45.0023344 54.43991,45 L56,45.0000168 L56,23.68 L53,22.48 Z" id="Shape"></path>
        </g>
    </g>
</svg>