<?xml version="1.0" encoding="UTF-8"?>
<svg width="60px" height="60px" viewBox="0 0 60 60" version="1.1" xmlns="http://www.w3.org/2000/svg" xmlns:xlink="http://www.w3.org/1999/xlink">
    <!-- Generator: Sketch 49.3 (51167) - http://www.bohemiancoding.com/sketch -->
    <title>040 - trolly </title>
    <desc>Created with Sketch.</desc>
    <defs></defs>
    <g id="Page-1" stroke="none" stroke-width="1" fill="none" fill-rule="evenodd">
        <g id="040---trolly-" fill="#dd4f05" fill-rule="nonzero">
            <path d="M29.7,14 C29.59014,13.49 29.46,12.99 29.3001,12.49 C29.2572979,12.3201449 29.2038591,12.1531489 29.1401,11.99 C29.0301,11.69 28.92001,11.4 28.7901,11.11 C28.71002,10.91 28.62002,10.71 28.5201,10.51 C28.5001,10.46 28.4701,10.4 28.45003,10.35 C28.38003,10.22 28.32015,10.1 28.25003,9.98 C28.0219442,9.54206024 27.7681682,9.11798717 27.49003,8.71 C27.38003,8.53 27.25003,8.36 27.13003,8.19 C27.05003,8.08 26.97003,7.97 26.89003,7.87 C26.79003,7.73 26.67995,7.6 26.57009,7.47 C26.4920913,7.36885982 26.408634,7.27204935 26.32009,7.18 C26.2082983,7.03631217 26.0880558,6.89940357 25.96,6.77 C25.3719336,6.14492854 24.733114,5.56962931 24.05009,5.05 C23.88009,4.92 23.71,4.79 23.53009,4.67 C23.40009,4.58 23.25009,4.48 23.11009,4.39 C22.7041241,4.12321085 22.2834583,3.87949178 21.85009,3.66 C21.68009,3.57 21.51009,3.49 21.3402,3.41 C20.95006,3.23 20.5602,3.06 20.15013,2.91 C19.92003,2.83 19.69005,2.75 19.46007,2.68 C19.04015,2.55 18.62007,2.43 18.19007,2.34 C18.01014,2.3 17.83021,2.27 17.65015,2.24 C17.48015,2.2 17.31015,2.18 17.13015,2.15 C16.94009,2.12 16.74015,2.1 16.54015,2.08 C16.4973124,2.07132859 16.4535693,2.06796993 16.40991,2.07 C16.3877895,2.06106313 16.3638297,2.05763148 16.34009,2.06 C16.2505265,2.04837071 16.1603894,2.04169389 16.07009,2.04 C15.93996,2.03 15.81009,2.02 15.67995,2.02 C15.46,2.01 15.23,2 15,2 C14.0501272,1.998244 13.1023255,2.08866776 12.16992,2.27 C12,2.3 11.82007,2.34 11.64001,2.38 C11.44995,2.42 11.27001,2.47 11.08008,2.52 C10.90002,2.57 10.71997,2.62 10.54008,2.68 C10.3571844,2.73093585 10.176958,2.79101129 10.00008,2.86 C9.47090322,3.04560406 8.95328776,3.2626574 8.45,3.51 C8.25005,3.6 8.0501,3.71 7.86,3.81 C7.7,3.9 7.55006,3.98 7.4,4.07 C7.29,4.14 7.18992,4.2 7.09007,4.26 C6.9,4.38 6.71,4.5 6.53,4.63 C5.96537976,5.01667432 5.42746706,5.44096947 4.91992,5.9 C4.73999,6.06 4.57007,6.23 4.40002,6.4 C4.22002,6.58 4.05002,6.76005 3.87002,6.95 C3.72002,7.12 3.57009,7.29 3.42995,7.47 C3.01660509,7.96239603 2.63900834,8.48372616 2.30005,9.03 C2.26022071,9.09890874 2.21678368,9.16566819 2.16992,9.23 C2.03,9.47 1.88,9.72 1.75,9.98 C1.72,10.03 1.68994,10.08 1.65991,10.14 C1.63,10.21 1.59009,10.28 1.56006,10.35 C1.48999,10.48 1.42993,10.62 1.37,10.75 C1.30005,10.89 1.24,11.03 1.17993,11.18 C1.08008,11.4 1,11.63 0.90993,11.85 C0.84011,12.05 0.77004,12.25 0.70998,12.45 C0.60998,12.75 0.53005,13.04 0.44998,13.34 C0.2830712,14.0210091 0.16283846,14.7126163 0.09012,15.41 C0.0819694028,15.4288929 0.0785373868,15.4494849 0.08012,15.47 C0.023515359,15.6408363 -0.00357871994,15.8200658 6.80011603e-16,16 L6.80011603e-16,17 C6.80011603e-16,17.3 0.01,17.59 0.03,17.89 C0.04,18.12 0.06,18.35 0.08005,18.57 C0.09995,18.72 0.10996,18.86 0.13998,19 C0.15988,19.21 0.18991,19.41 0.22998,19.62 C0.26998,19.87 0.33008,20.13 0.37998,20.38 C0.397933943,20.4286461 0.411298809,20.4788648 0.4199,20.53 C0.4599,20.7 0.50999,20.87 0.55003,21.03 L0.60997,21.24 C0.62997,21.3 0.64997,21.37 0.6699,21.44 C0.72996,21.63 0.79002,21.82 0.85997,22.01 C0.868126021,22.0340651 0.878156774,22.0574534 0.88997,22.07995 C0.97997,22.33995 1.08004,22.57995 1.17989,22.82995 C1.18989,22.84995 1.18989,22.85995 1.19989,22.86995 C1.31,23.12995 1.42989,23.37995 1.54999,23.62995 L1.54999,23.63995 C3.52236696,27.6398728 7.17346218,30.5537709 11.5112157,31.5898923 C15.8489692,32.6260138 20.422827,31.6767387 23.99,29 C25.7639891,27.6679227 27.2220188,25.960628 28.26,24 C28.35,23.84 28.42992,23.67 28.51,23.51 L28.52,23.5 C28.68992,23.14 28.85,22.77 28.99,22.39 C29.0276088,22.311819 29.0610229,22.2316887 29.0901,22.14995 C29.1111537,22.1015479 29.1278531,22.0513661 29.14,22 C29.4876364,21.0289362 29.7290449,20.0230673 29.86,19 C29.90992,18.68 29.94,18.35 29.96,18.01 C29.99,17.68 30,17.34 30,17 C30.0022881,15.9923996 29.9017676,14.9871948 29.7,14 Z M15,29 L5,18 L10,18 L10,7 L20,7 L20,18 L25,18 L15,29 Z" id="Shape"></path>
            <path d="M52.5,-4.65137979e-16 L47.4,-4.65137979e-16 C44.9484298,-0.00429947726 42.8558355,1.77059318 42.46,4.19 L40.82,14 L31.73,14 C31.77,14.24 31.81,14.47 31.85,14.71 L31.85,14.76 C31.88,15 31.91,15.24 31.93,15.48 C31.96,15.73 31.97,15.98 31.98,16.24 C31.99,16.49 32,16.74 32,17 L42.38,17 L42.86,14 L44.44,4.52 C44.6710453,3.06545368 45.9272234,1.99600477 47.4,2 L52.5,2 C53.1067245,1.99962523 53.6538488,2.36500862 53.88596,2.92557905 C54.1180712,3.48614948 53.9893946,4.13135669 53.56,4.56 C53.2801453,4.84314343 52.8981028,5.00172711 52.5,5 L48,5 C47.4477153,5 47,5.44771525 47,6 C47,6.55228475 47.4477153,7 48,7 L52.5,7 C53.4288739,7.00056688 54.320313,6.6339266 54.98,5.98 C55.9779084,4.97626796 56.2746964,3.47108946 55.7324938,2.16368151 C55.1902912,0.856273556 53.9153766,0.00290481863 52.5,-4.65137979e-16 Z" id="Shape"></path>
            <path d="M47,41 L38.48,41 L42.05007,19 L31.88,19 C31.8715302,19.0840334 31.8582046,19.1675063 31.84009,19.25 L31.84009,19.27 C31.81009,19.56 31.76001,19.84 31.70996,20.12 C31.7019612,20.142932 31.6952836,20.1663037 31.68996,20.19 C31.65996,20.4 31.61001,20.61 31.56008,20.82 C31.5294948,20.9822187 31.4893854,21.142496 31.43996,21.3 C31.38002,21.53 31.31008,21.77 31.23996,22 L37,22 C37.5522847,22 38,22.4477153 38,23 C38,23.5522847 37.5522847,24 37,24 L30.48,24 C30.39,24.2 30.30007,24.39 30.21,24.58 C30.15006,24.7 30.09013,24.82005 30.03007,24.93 C29.8724018,25.2387822 29.6988356,25.5391852 29.51007,25.83 C29.52007,25.84 29.51007,25.84 29.50007,25.85 C29.38007,26.06 29.25007,26.26 29.12007,26.45 C29.00007,26.64 28.87007,26.82 28.73007,27 L37,27 C37.5522847,27 38,27.4477153 38,28 C38,28.5522847 37.5522847,29 37,29 L27.02,29 C26.87,29.15 26.72,29.3 26.57005,29.44 C26.5392339,29.472721 26.5057521,29.5028246 26.46995,29.53 C26.34995,29.65 26.21995,29.76 26.09995,29.86 C25.9503535,29.9982922 25.7934625,30.1284784 25.62995,30.25 C25.6158679,30.2662445 25.5989536,30.2797976 25.58003,30.29 C25.4499,30.4 25.32003,30.5 25.17988,30.6 C24.4865628,31.1266975 23.7507461,31.59497 22.98,32 L37,32 C37.5522847,32 38,32.4477153 38,33 C38,33.5522847 37.5522847,34 37,34 L14.97,34 C13.6945064,33.9998178 12.4231144,33.8555701 11.18,33.57 L11.17,33.57 L11.17,33.55 C10.0026282,33.2826499 8.86644018,32.8938658 7.78,32.39 C7.32,32.17 6.86,31.93 6.41989,31.67 C6.20989,31.55 6.00998,31.43 5.81003,31.29 C5.36958342,31.0197088 4.94855843,30.7189766 4.55003,30.39 C4.31422651,30.2182602 4.08726934,30.0346919 3.87003,29.84 C3.8376288,29.8161638 3.8075006,29.7893831 3.78003,29.76 C3.50577646,29.5287952 3.24531926,29.2817043 3,29.02 L6.16992,40.78 C6.52237873,42.0913585 7.71217322,43.0021195 9.07007,43 L47,43 C49.21,43 51,45.24 51,48 C51,50.76 49.21,53 47,53 L43.9,53 C43.4242507,50.6719711 41.376143,49.0000799 39,49.0000799 C36.623857,49.0000799 34.5757493,50.6719711 34.1,53 L17.9,53 C17.4242507,50.6719711 15.376143,49.0000799 13,49.0000799 C10.623857,49.0000799 8.57574927,50.6719711 8.1,53 L6,53 C5.44771525,53 5,53.4477153 5,54 C5,54.5522847 5.44771525,55 6,55 L8.1,55 C8.57574927,57.3280289 10.623857,58.9999201 13,58.9999201 C15.376143,58.9999201 17.4242507,57.3280289 17.9,55 L34.1,55 C34.5757493,57.3280289 36.623857,58.9999201 39,58.9999201 C41.376143,58.9999201 43.4242507,57.3280289 43.9,55 L47,55 C50.31006,55 53,51.86 53,48 C53,44.14 50.31006,41 47,41 Z M14,55 C14,55.5522847 13.5522847,56 13,56 C12.4477153,56 12,55.5522847 12,55 L12,53 C12,52.4477153 12.4477153,52 13,52 C13.5522847,52 14,52.4477153 14,53 L14,55 Z M40,55 C40,55.5522847 39.5522847,56 39,56 C38.4477153,56 38,55.5522847 38,55 L38,53 C38,52.4477153 38.4477153,52 39,52 C39.5522847,52 40,52.4477153 40,53 L40,55 Z" id="Shape"></path>
        </g>
    </g>
</svg>