<?xml version="1.0" encoding="UTF-8" standalone="no"?>
<svg width="60px" height="60px" viewBox="0 0 60 60" version="1.1" xmlns="http://www.w3.org/2000/svg" xmlns:xlink="http://www.w3.org/1999/xlink">
    <!-- Generator: Sketch 40.1 (33804) - http://www.bohemiancoding.com/sketch -->
    <title>93 - TV (technology, device, gadget, outline)</title>
    <desc>Created with Sketch.</desc>
    <defs></defs>
    <g id="Page-1" stroke="none" stroke-width="1" fill="none" fill-rule="evenodd" stroke-linecap="round" stroke-linejoin="round">
        <g id="Icons" transform="translate(-960.000000, -604.000000)" stroke="#dd4f05" stroke-width="1">
            <g id="TV" transform="translate(961.000000, 605.000000)">
                <path d="M4,11 L8,7 L4,11 Z" id="Path"></path>
                <path d="M4,16 L6,14 L4,16 Z" id="Path"></path>
                <path d="M10,10 L13,7 L10,10 Z" id="Path"></path>
                <path d="M4,21 L13,12 L4,21 Z" id="Path"></path>
                <path d="M17,8 L18,7 L17,8 Z" id="Path"></path>
                <path d="M54.502,37 L3.498,37 C1.566,37 0,35.434 0,33.501 L0,3.498 C0,1.566 1.566,0 3.498,0 L54.502,0 C56.434,0 58,1.566 58,3.498 L58,33.501 C58,35.434 56.434,37 54.502,37 L54.502,37 Z" id="Path"></path>
                <polygon id="Path" points="24 37 34 37 34 41 24 41"></polygon>
                <path d="M17,43.5 L17,43.5 C17,42.125 18.125,41 19.5,41 L38.5,41 C39.875,41 41,42.125 41,43.5 L17,43.5 Z" id="Path"></path>
                <path d="M57.013,34 L0.987,34 C0.442,34 0,33.558 0,33.013 L0,3.849 C0,3.38 0.38,3 0.849,3 L57.151,3 C57.62,3 58,3.38 58,3.849 L58,33.013 C58,33.558 57.558,34 57.013,34 L57.013,34 Z" id="Path"></path>
            </g>
        </g>
    </g>
</svg>