<?xml version="1.0" encoding="UTF-8"?>
<svg width="60px" height="61px" viewBox="0 0 60 60" version="1.1" xmlns="http://www.w3.org/2000/svg" xmlns:xlink="http://www.w3.org/1999/xlink">
    <!-- Generator: Sketch 41.1 (35376) - http://www.bohemiancoding.com/sketch -->
    <title>36 -Give Electricity- (ecology, nature, enviorment)</title>
    <desc>Created with Sketch.</desc>
    <defs></defs>
    <g id="Page-1" stroke="none" stroke-width="1" fill="none" fill-rule="evenodd">
        <g id="Icons" transform="translate(-719.000000, -710.000000)" fill="#000000" stroke="#dd4f05" stroke-width="1">
            <g id="36--Give-Electricity--(ecology,-nature,-enviorment)" transform="translate(719.000000, 710.000000)">
                <path d="M20,57.016 L6,57.016 C5.447,57.016 5,56.568 5,56.016 C5,55.464 5.447,55.016 6,55.016 L20,55.016 C21.939,55.016 23.896,54.868 25.815,54.576 L39,52.583 C39.352,52.583 39.714,52.542 40.078,52.462 C40.969,52.333 41.742,51.935 42.412,51.294 L42.489,51.227 L57.686,39.393 C58.036,39.102 58.11,38.556 57.832,38.168 C57.003,37.013 56.589,36.432 52.465,38.599 L43.847,43.869 C41.35,45.199 36.362,45.105 32.716,45.039 C32.521,45.036 32.331,45.032 32.148,45.029 C31.584,45.05 31.206,45.031 31,45.016 L31,43.016 C31.318,43.016 31.679,43.02 32.07,43.027 C33.227,42.973 34.361,42.707 34.611,42.275 C34.756,42.025 34.581,41.487 34.144,40.834 C32.949,39.052 30.884,37.988 28.618,37.988 L24.718,37.988 C22.167,37.988 19.705,37.19 17.784,35.742 C14.805,33.499 8.708,37.195 6.609,38.809 C6.172,39.145 5.544,39.064 5.207,38.625 C4.871,38.188 4.952,37.56 5.391,37.223 C5.748,36.949 14.201,30.535 18.987,34.145 C20.564,35.333 22.599,35.988 24.718,35.988 L28.618,35.988 C31.552,35.988 34.238,37.383 35.806,39.721 C36.663,41.001 36.88,42.123 36.453,43.062 C38.953,43.021 41.561,42.822 42.855,42.133 L51.479,36.861 C55.927,34.52 57.705,34.559 59.457,37.001 C60.346,38.239 60.118,39.974 58.938,40.952 L43.757,52.775 C42.79,53.687 41.649,54.257 40.455,54.425 C40.029,54.521 39.551,54.577 39.079,54.583 L26.116,56.554 C24.098,56.86 22.04,57.016 20,57.016" id="Fill-210"></path>
                <path d="M2,58.016 L5,58.016 L5,36.016 L2,36.016 L2,58.016 Z M0,60.016 L7,60.016 L7,34.016 L0,34.016 L0,60.016 Z" id="Fill-211"></path>
                <path d="M17,48.016 C16.447,48.016 16,47.568 16,47.016 C16,44.511 17.869,43.016 21,43.016 L31,43.016 C31.553,43.016 32,43.464 32,44.016 C32,44.568 31.553,45.016 31,45.016 L21,45.016 C18,45.016 18,46.521 18,47.016 C18,47.568 17.553,48.016 17,48.016" id="Fill-212"></path>
                <path d="M31,28.016 L37,28.016 L37,26.016 L31,26.016 L31,28.016 Z M38,30.016 L30,30.016 C29.447,30.016 29,29.568 29,29.016 L29,25.016 C29,24.464 29.447,24.016 30,24.016 L38,24.016 C38.553,24.016 39,24.464 39,25.016 L39,29.016 C39,29.568 38.553,30.016 38,30.016 L38,30.016 Z" id="Fill-421"></path>
                <path d="M32.2363,32.016 L35.7633,32.016 L36.5393,30.016 L31.4613,30.016 L32.2363,32.016 Z M36.4483,34.016 L31.5513,34.016 C31.1383,34.016 30.7683,33.763 30.6193,33.378 L29.0673,29.378 C28.9483,29.07 28.9883,28.724 29.1743,28.451 C29.3613,28.179 29.6703,28.016 30.0003,28.016 L38.0003,28.016 C38.3303,28.016 38.6383,28.179 38.8253,28.451 C39.0113,28.724 39.0513,29.07 38.9323,29.378 L37.3813,33.378 C37.2313,33.763 36.8613,34.016 36.4483,34.016 L36.4483,34.016 Z" id="Fill-422"></path>
                <path d="M30.9814,24.016 L37.0464,24.016 C37.2704,21.662 38.2884,19.572 39.9664,18.055 C41.8944,16.313 43.0004,13.811 43.0004,11.19 C43.0004,8.547 41.8804,6.032 39.9294,4.288 C38.0064,2.571 35.5354,1.784 32.9684,2.074 C28.8354,2.541 25.5074,5.939 25.0554,10.155 C24.7484,13.028 25.7384,15.815 27.7734,17.801 C28.9114,18.911 30.7774,21.146 30.9814,24.016 M38.0004,26.016 L30.0004,26.016 C29.4474,26.016 29.0004,25.568 29.0004,25.016 L29.0004,24.53 C29.0004,22.789 28.0434,20.859 26.3774,19.232 C23.8994,16.815 22.6934,13.429 23.0674,9.942 C23.6184,4.802 27.6884,0.658 32.7444,0.087 C35.8884,-0.266 38.9104,0.695 41.2624,2.797 C43.6374,4.92 45.0004,7.979 45.0004,11.19 C45.0004,14.376 43.6544,17.419 41.3074,19.539 C39.8194,20.884 39.0004,22.829 39.0004,25.016 C39.0004,25.568 38.5524,26.016 38.0004,26.016" id="Fill-423"></path>
                <path d="M34,26.016 C33.447,26.016 33,25.568 33,25.016 L33,15.016 C33,14.464 33.447,14.016 34,14.016 C34.553,14.016 35,14.464 35,15.016 L35,25.016 C35,25.568 34.553,26.016 34,26.016" id="Fill-424"></path>
                <path d="M34,16.016 C33.447,16.016 33,15.568 33,15.016 C33,11.707 35.691,9.016 39,9.016 C39.553,9.016 40,9.464 40,10.016 C40,10.568 39.553,11.016 39,11.016 C36.794,11.016 35,12.81 35,15.016 C35,15.568 34.553,16.016 34,16.016" id="Fill-425"></path>
                <path d="M34,16.016 C33.447,16.016 33,15.568 33,15.016 C33,12.81 31.206,11.016 29,11.016 C28.447,11.016 28,10.568 28,10.016 C28,9.464 28.447,9.016 29,9.016 C32.309,9.016 35,11.707 35,15.016 C35,15.568 34.553,16.016 34,16.016" id="Fill-426"></path>
            </g>
        </g>
    </g>
</svg>