<?xml version="1.0" encoding="UTF-8"?>
<svg width="60px" height="60px" viewBox="0 0 60 60" version="1.1" xmlns="http://www.w3.org/2000/svg" xmlns:xlink="http://www.w3.org/1999/xlink">
    <!-- Generator: Sketch 49.3 (51167) - http://www.bohemiancoding.com/sketch -->
    <title>008 - VIP </title>
    <desc>Created with Sketch.</desc>
    <defs></defs>
    <g id="Page-1" stroke="none" stroke-width="0.5" fill="none" fill-rule="evenodd">
        <g id="008---VIP-" fill="none" fill-rule="nonzero" stroke="#dd4f05" stroke-width="1">
            <path d="M3,46 L15.464,46 C14.981,49.349 14.62,54.71 16.186,59.321 C16.3235642,59.7268698 16.7044511,59.9999661 17.133,60 L31.233,60 C31.6765193,59.9998162 32.0669276,59.7075189 32.192,59.282 L36.522,44.582 C36.9425868,43.4813501 37.0877997,42.2945861 36.945,41.125 C36.099,34.545 30.945,26.963 30.001,25.625 L30.001,3 C30.001,1.34314575 28.6578542,1.01453063e-16 27.001,0 L3,0 C1.34314575,-1.01453063e-16 0,1.34314575 0,3 L0,43 C0,44.6568542 1.34314575,46 3,46 Z M13,36 C12.4477153,36 12,36.4477153 12,37 L12,39 L10,39 L10,38 C10,37.4477153 9.55228475,37 9,37 C8.44771525,37 8,37.4477153 8,38 L8,39 L6,39 L6,34 L16.043,34 L16.043,39 L14,39 L14,37 C14,36.4477153 13.5522847,36 13,36 Z M30.043,42 L30.043,29.364 C31.843,32.328 34.419,37.164 34.96,41.376 C35.062968,42.2308484 34.9530414,43.0978945 34.64,43.9 C34.63,43.9253333 34.621,43.9513333 34.613,43.978 L30.484,58 L17.866,58 C15.979,51.486 17.991,43.329 18.013,43.245 C18.0325067,43.1647803 18.0425749,43.0825563 18.043,43 L18.043,32 C18.043,30.8954305 18.9384305,30 20.043,30 C21.1475695,30 22.043,30.8954305 22.043,32 L22.043,32.985 L22.043,33 L22.043,40 L22.043,40.015 L22.043,42 C22.0364289,44.0969604 23.6538108,45.8413651 25.7452882,45.9930512 C27.8367655,46.1447373 29.6889264,44.651964 29.985,42.576 C29.985,42.549 30,42.527 30,42.5 L30,42.425 C30.0219482,42.2842074 30.0363023,42.1423356 30.043,42 Z M2,3 C2,2.44771525 2.44771525,2 3,2 L27,2 C27.5522847,2 28,2.44771525 28,3 L28,42.41 C27.8478799,43.1273066 27.3154268,43.7038571 26.6124634,43.9124516 C25.9094999,44.1210461 25.1487498,43.9282354 24.63,43.41 C24.2539246,43.037225 24.0425618,42.5295222 24.043,42 L24.043,32 C24.043,29.790861 22.252139,28 20.043,28 C17.833861,28 16.043,29.790861 16.043,32 L6,32 C4.8954305,32 4,32.8954305 4,34 L4,39 C4,40.1045695 4.8954305,41 6,41 L16.043,41 L16.043,42.879 C15.997,43.069 15.908,43.466 15.803,44 L3,44 C2.44771525,44 2,43.5522847 2,43 L2,3 Z" id="Shape"></path>
            <path d="M15,10 C16.6568542,10 18,8.65685425 18,7 C18,5.34314575 16.6568542,4 15,4 C13.3431458,4 12,5.34314575 12,7 C12,8.65685425 13.3431458,10 15,10 Z M15,6 C15.5522847,6 16,6.44771525 16,7 C16,7.55228475 15.5522847,8 15,8 C14.4477153,8 14,7.55228475 14,7 C14,6.44771525 14.4477153,6 15,6 Z" id="Shape"></path>
            <path d="M8.063,24.351 C8.20886091,24.7422402 8.58245447,25.0016706 9,25.0016706 C9.41754553,25.0016706 9.79113909,24.7422402 9.937,24.351 L12.937,16.351 C13.062043,16.0162421 12.9989962,15.6402035 12.7716089,15.3645342 C12.5442216,15.0888649 12.1870392,14.9554456 11.8346089,15.0145342 C11.4821786,15.0736227 11.1880429,15.3162421 11.063,15.651 L9,21.152 L6.937,15.652 C6.81195705,15.3172421 6.5178214,15.0746227 6.16539111,15.0155342 C5.81296081,14.9564456 5.45577842,15.0898649 5.22839109,15.3655342 C5.00100376,15.6412035 4.93795703,16.0172421 5.063,16.352 L8.063,24.351 Z" id="Shape"></path>
            <path d="M16,15 C15.4477153,15 15,15.4477153 15,16 L15,24 C15,24.5522847 15.4477153,25 16,25 C16.5522847,25 17,24.5522847 17,24 L17,16 C17,15.4477153 16.5522847,15 16,15 Z" id="Shape"></path>
            <path d="M20,25 C20.5522847,25 21,24.5522847 21,24 L21,21 L22,21 C23.6568542,21 25,19.6568542 25,18 C25,16.3431458 23.6568542,15 22,15 L20,15 C19.4477153,15 19,15.4477153 19,16 L19,24 C19,24.5522847 19.4477153,25 20,25 Z M21,17 L22,17 C22.5522847,17 23,17.4477153 23,18 C23,18.5522847 22.5522847,19 22,19 L21,19 L21,17 Z" id="Shape"></path>
        </g>
    </g>
</svg>