<?xml version="1.0" encoding="UTF-8"?>
<svg width="60px" height="60px" viewBox="0 0 60 60" version="1.1" xmlns="http://www.w3.org/2000/svg" xmlns:xlink="http://www.w3.org/1999/xlink">
    <!-- Generator: Sketch 49.3 (51167) - http://www.bohemiancoding.com/sketch -->
    <title>026 - Mortgage Approval</title>
    <desc>Created with Sketch.</desc>
    <defs></defs>
    <g id="Page-1" stroke="none" stroke-width="1" fill="none" fill-rule="evenodd" stroke-linecap="round" stroke-linejoin="round">
        <g id="026---Mortgage-Approval" transform="translate(1.000000, 1.000000)" stroke="#dd4f05" stroke-width="1">
            <path d="M9.52906925,40.8327429 L33.5290693,40.8327429 C34.6336388,40.8327429 35.5290693,41.7281734 35.5290693,42.8327429 L35.5290693,45.8327429 L7.52906925,45.8327429 L7.52906925,42.8327429 C7.52906925,41.7281734 8.42449975,40.8327429 9.52906925,40.8327429 Z" id="Shape" transform="translate(21.529069, 43.332743) rotate(-45.000000) translate(-21.529069, -43.332743) "></path>
            <path d="M8.99353771,37.2972058 L26.9935377,37.2972058 C28.0981072,37.2972058 28.9935377,38.1926363 28.9935377,39.2972058 L28.9935377,42.2972058 L6.99353771,42.2972058 L6.99353771,39.2972058 C6.99353771,38.1926363 7.88896821,37.2972058 8.99353771,37.2972058 Z" id="Shape" transform="translate(17.993538, 39.797206) rotate(-45.000000) translate(-17.993538, -39.797206) "></path>
            <path d="M9.41134,24.26718 L17.92926,36.32593 L14.52226,39.73293 L2.46349,31.215 C-0.31441,29.25277 -0.83651,25.39323 1.37649,23.18018 C3.58957,20.96713 7.44911,21.48927 9.41134,24.26718 Z" id="Shape"></path>
            <path d="M16,45.33 L16,45.32" id="Shape"></path>
            <path d="M23,23 L51,23" id="Shape"></path>
            <path d="M23,19 L51,19" id="Shape"></path>
            <path d="M23,27 L34,27" id="Shape"></path>
            <polygon id="Shape" points="31 10 31 15 23 15 23 10 27 6"></polygon>
            <path d="M27,15 L27,12" id="Shape"></path>
            <rect id="Rectangle-path" x="27" y="46" width="20" height="7" rx="1"></rect>
            <path d="M16.12,52.28 L16.12,56 C16.1232293,57.1032291 17.0167709,57.9967707 18.12,58 L56,58 C57.1032291,57.9967707 57.9967707,57.1032291 58,56 L58,2 C57.9967707,0.896770878 57.1032291,0.00322927335 56,0 L18.12,0 C17.0167709,0.00322927335 16.1232293,0.896770878 16.12,2 L16.12,33.77" id="Shape"></path>
        </g>
    </g>
</svg>