<?xml version="1.0" encoding="UTF-8"?>
<svg width="60px" height="60px" viewBox="0 0 60 60" version="1.1" xmlns="http://www.w3.org/2000/svg" xmlns:xlink="http://www.w3.org/1999/xlink">
    <!-- Generator: Sketch 49.3 (51167) - http://www.bohemiancoding.com/sketch -->
    <title>074 - Hotel</title>
    <desc>Created with Sketch.</desc>
    <defs></defs>
    <g id="Page-1" stroke="none" stroke-width="1" fill="none" fill-rule="evenodd">
        <g id="074---Hotel" transform="translate(1.000000, 1.000000)" stroke="#dd4f05" stroke-width="1">
            <polyline id="Shape" points="3 54 3 4 43 4 43 54"></polyline>
            <path d="M2,54 L44,54 C45.1045695,54 46,54.8954305 46,56 L46,58 L0,58 L0,56 C-1.11022302e-16,54.8954305 0.8954305,54 2,54 Z" id="Shape"></path>
            <path d="M43,4 L43.15551,3.94816 C44.8542114,3.381925 45.9999993,1.79222891 46,0.00164 L46,0 L0,0 L0,0.00164 C7.26895618e-07,1.79222891 1.14578857,3.381925 2.84449,3.94816 L3,4" id="Shape"></path>
            <rect id="Rectangle-path" x="7" y="8" width="8" height="8"></rect>
            <rect id="Rectangle-path" x="19" y="8" width="8" height="8"></rect>
            <rect id="Rectangle-path" x="31" y="8" width="8" height="8"></rect>
            <rect id="Rectangle-path" x="7" y="20" width="8" height="8"></rect>
            <rect id="Rectangle-path" x="19" y="20" width="8" height="8"></rect>
            <rect id="Rectangle-path" x="31" y="20" width="8" height="8"></rect>
            <rect id="Rectangle-path" x="7" y="32" width="8" height="8"></rect>
            <rect id="Rectangle-path" x="19" y="32" width="8" height="8"></rect>
            <rect id="Rectangle-path" x="31" y="32" width="8" height="8"></rect>
            <rect id="Rectangle-path" x="16" y="44" width="14" height="10"></rect>
            <path d="M33,44 L13,44" id="Shape"></path>
            <path d="M23,54 L23,44" id="Shape"></path>
            <path d="M43,7 L56,7 C57.1045695,7 58,7.8954305 58,9 L58,49 C58,50.1045695 57.1045695,51 56,51 L43,51 L43,7 Z" id="Shape"></path>
            <polygon id="Shape" points="51 11 52.209 12.567 54 13.292 52.956 14.985 52.854 17 51 16.479 49.146 17 49.044 14.985 48 13.292 49.791 12.567"></polygon>
            <polygon id="Shape" points="51 21 52.209 22.567 54 23.292 52.956 24.985 52.854 27 51 26.479 49.146 27 49.044 24.985 48 23.292 49.791 22.567"></polygon>
            <polygon id="Shape" points="51 31 52.209 32.567 54 33.292 52.956 34.985 52.854 37 51 36.479 49.146 37 49.044 34.985 48 33.292 49.791 32.567"></polygon>
            <polygon id="Shape" points="51 41 52.209 42.567 54 43.292 52.956 44.985 52.854 47 51 46.479 49.146 47 49.044 44.985 48 43.292 49.791 42.567"></polygon>
        </g>
    </g>
</svg>