<?xml version="1.0" encoding="UTF-8"?>
<svg width="60px" height="59px" viewBox="0 0 60 60" version="1.1" xmlns="http://www.w3.org/2000/svg" xmlns:xlink="http://www.w3.org/1999/xlink">
    <!-- Generator: Sketch 40.3 (33839) - http://www.bohemiancoding.com/sketch -->
    <title>15 -Travel Insurance- (security, protection, secure, outline)</title>
    <desc>Created with Sketch.</desc>
    <defs></defs>
    <g id="Page-1" stroke="none" stroke-width="1" fill="none" fill-rule="evenodd">
        <g id="Security-2---Outline" transform="translate(-626.000000, -522.000000)" stroke="#dd4f05" stroke-width="1">
            <g id="15--Travel-Insurance--(security,-protection,-secure,-outline)" transform="translate(627.000000, 523.000000)">
                <path d="M12,53 L6,53 L6,9.344 C6,8.602 6.602,8 7.344,8 L10.656,8 C11.398,8 12,8.602 12,9.344 L12,53 L12,53 Z" id="Stroke-265" stroke-linecap="round"></path>
                <path d="M48,57 C46.652,56.471 45.238,55.973 44,55 C40.075,51.915 38,47.272 38,42 L38,33 C42.693,32.401 45.866,30.45 48,29 C50.134,30.45 53.307,32.401 58,33 L58,42 C58,47.272 55.924,51.915 52,55 C50.761,55.973 49.348,56.471 48,57 L48,57 Z" id="Stroke-266" stroke-linejoin="round"></path>
                <polyline id="Stroke-267" stroke-linecap="round" stroke-linejoin="round" points="43 45 43 38 47 36"></polyline>
                <path d="M54.1418,12 L3.8578,12 C1.7278,12 -0.0002,13.727 -0.0002,15.858 L-0.0002,49.142 C-0.0002,51.273 1.7278,53 3.8578,53 L41.9308,53 C39.3638,50.057 37.9998,46.24 37.9998,42 L37.9998,33 C42.6928,32.401 45.8658,30.45 47.9998,29 C50.1338,30.45 53.3068,32.401 57.9998,33 L57.9998,15.858 C57.9998,13.727 56.2728,12 54.1418,12 L54.1418,12 Z" id="Stroke-268" stroke-linecap="round"></path>
                <polygon id="Stroke-269" stroke-linecap="round" points="16 12 24 12 24 8 16 8"></polygon>
                <polygon id="Stroke-270" stroke-linecap="round" points="34 12 42 12 42 8 34 8"></polygon>
                <path d="M36,5.4441 L36,8.0001 L40,8.0001 L40,5.8881 C40,2.6361 37.364,0.0001 34.111,0.0001 L23.889,0.0001 C20.636,0.0001 18,2.6361 18,5.8881 L18,8.0001 L22,8.0001 L22,5.4441 C22,4.3311 23.13,3.5751 24.159,4.0001 C27.259,5.2811 30.741,5.2811 33.841,4.0001 C34.87,3.5751 36,4.3311 36,5.4441 L36,5.4441 Z" id="Stroke-271" stroke-linecap="round"></path>
                <path d="M48,29 C49.058,29.719 50.373,30.56 52,31.299 L52,9.344 C52,8.602 51.398,8 50.656,8 L47.344,8 C46.602,8 46,8.602 46,9.344 L46,30.262 C46.748,29.829 47.417,29.396 48,29 L48,29 Z" id="Stroke-272" stroke-linecap="round"></path>
                <path d="M38,32 C38,36.418 34.418,40 30,40 C25.582,40 22,36.418 22,32 C22,27.582 25.582,24 30,24 C34.418,24 38,27.582 38,32 L38,32 Z" id="Stroke-296" stroke-linecap="round" stroke-linejoin="round"></path>
                <path d="M33,32 C33,33.657 31.657,35 30,35 C28.343,35 27,33.657 27,32 C27,30.343 28.343,29 30,29 C31.657,29 33,30.343 33,32 L33,32 Z" id="Stroke-297" stroke-linecap="round" stroke-linejoin="round"></path>
                <path d="M22.2622,34 L17.0002,34 L17.0002,44 L29.0002,44 L29.0002,39.931 C25.7242,39.521 23.0702,37.134 22.2622,34 L22.2622,34 Z" id="Stroke-460"></path>
                <path d="M28,19 L28,24.262 C28.64,24.097 29.308,24 30,24 C33.357,24 36.226,26.069 37.413,29 L40,29 L40,19 L28,19 L28,19 Z" id="Stroke-461"></path>
            </g>
        </g>
    </g>
</svg>