<?xml version="1.0" encoding="UTF-8" standalone="no"?>
<svg width="60px" height="60px" viewBox="0 0 60 60" version="1.1" xmlns="http://www.w3.org/2000/svg" xmlns:xlink="http://www.w3.org/1999/xlink">
    <!-- Generator: Sketch 40.1 (33804) - http://www.bohemiancoding.com/sketch -->
    <title>84 - Grid (user, interface, communication, outline)</title>
    <desc>Created with Sketch.</desc>
    <defs></defs>
    <g id="Page-1" stroke="none" stroke-width="1" fill="none" fill-rule="evenodd">
        <g id="Icons" transform="translate(-840.000000, -477.000000)">
            <g id="Grid" transform="translate(841.000000, 478.000000)">
                <polygon id="Path" stroke="#dd4f05" stroke-width="1" stroke-linejoin="round" points="0 0 58 0 58 58 0 58"></polygon>
                <path d="M9,6 C9,7.657 7.657,9 6,9 C4.343,9 3,7.657 3,6 C3,4.343 4.343,3 6,3 C7.657,3 9,4.343 9,6 L9,6 Z" id="Path" stroke="#dd4f05" stroke-width="1" stroke-linejoin="round"></path>
                <path d="M18,6 C18,7.657 16.657,9 15,9 C13.343,9 12,7.657 12,6 C12,4.343 13.343,3 15,3 C16.657,3 18,4.343 18,6 L18,6 Z" id="Path" stroke="#dd4f05" stroke-width="1" stroke-linejoin="round"></path>
                <path d="M27,6 C27,7.657 25.657,9 24,9 C22.343,9 21,7.657 21,6 C21,4.343 22.343,3 24,3 C25.657,3 27,4.343 27,6 L27,6 Z" id="Path" stroke="#dd4f05" stroke-width="1" stroke-linejoin="round"></path>
                <polygon id="Path" stroke="#dd4f05" stroke-width="1" stroke-linejoin="round" points="0 0 58 0 58 12 0 12"></polygon>
                <polygon id="Path" stroke="#dd4f05" stroke-width="1" stroke-linejoin="round" points="5 18 17 18 17 32 5 32"></polygon>
                <polygon id="Path" stroke="#dd4f05" stroke-width="1" stroke-linejoin="round" points="23 18 35 18 35 32 23 32"></polygon>
                <polygon id="Path" stroke="#dd4f05" stroke-width="1" stroke-linejoin="round" points="41 18 53 18 53 32 41 32"></polygon>
                <polygon id="Path" stroke="#dd4f05" stroke-width="1" stroke-linejoin="round" points="5 38 17 38 17 52 5 52"></polygon>
                <polygon id="Path" stroke="#dd4f05" stroke-width="1" stroke-linejoin="round" points="23 38 35 38 35 52 23 52"></polygon>
                <polygon id="Path" stroke="#dd4f05" stroke-width="1" stroke-linejoin="round" points="41 38 53 38 53 52 41 52"></polygon>
                <path d="M34,23 C33.448,23 33,22.552 33,22 C33,21.448 33.448,21 34,21 C34.552,21 35,21.448 35,22 C35,22.552 34.552,23 34,23" id="Fill-301" fill="#dd4f05" fill-rule="eve1odd"></path>
                <path d="M31,20 C30.448,20 30,19.552 30,19 C30,18.448 30.448,18 31,18 C31.552,18 32,18.448 32,19 C32,19.552 31.552,20 31,20" id="Fill-302" fill="#dd4f05" fill-rule="eve1odd"></path>
                <path d="M31,26 C30.448,26 30,25.552 30,25 C30,24.448 30.448,24 31,24 C31.552,24 32,24.448 32,25 C32,25.552 31.552,26 31,26" id="Fill-303" fill="#dd4f05" fill-rule="eve1odd"></path>
                <path d="M34,29 C33.448,29 33,28.552 33,28 C33,27.448 33.448,27 34,27 C34.552,27 35,27.448 35,28 C35,28.552 34.552,29 34,29" id="Fill-304" fill="#dd4f05" fill-rule="eve1odd"></path>
                <path d="M31,32 C30.448,32 30,31.552 30,31 C30,30.448 30.448,30 31,30 C31.552,30 32,30.448 32,31 C32,31.552 31.552,32 31,32" id="Fill-305" fill="#dd4f05" fill-rule="eve1odd"></path>
                <path d="M28,23 C27.448,23 27,22.552 27,22 C27,21.448 27.448,21 28,21 C28.552,21 29,21.448 29,22 C29,22.552 28.552,23 28,23" id="Fill-306" fill="#dd4f05" fill-rule="eve1odd"></path>
                <path d="M25,20 C24.448,20 24,19.552 24,19 C24,18.448 24.448,18 25,18 C25.552,18 26,18.448 26,19 C26,19.552 25.552,20 25,20" id="Fill-307" fill="#dd4f05" fill-rule="eve1odd"></path>
                <path d="M25,26 C24.448,26 24,25.552 24,25 C24,24.448 24.448,24 25,24 C25.552,24 26,24.448 26,25 C26,25.552 25.552,26 25,26" id="Fill-308" fill="#dd4f05" fill-rule="eve1odd"></path>
                <path d="M28,29 C27.448,29 27,28.552 27,28 C27,27.448 27.448,27 28,27 C28.552,27 29,27.448 29,28 C29,28.552 28.552,29 28,29" id="Fill-309" fill="#dd4f05" fill-rule="eve1odd"></path>
                <path d="M25,32 C24.448,32 24,31.552 24,31 C24,30.448 24.448,30 25,30 C25.552,30 26,30.448 26,31 C26,31.552 25.552,32 25,32" id="Fill-310" fill="#dd4f05" fill-rule="eve1odd"></path>
            </g>
        </g>
    </g>
</svg>