<?xml version="1.0" encoding="UTF-8"?>
<svg width="60px" height="60px" viewBox="0 0 60 60" version="1.1" xmlns="http://www.w3.org/2000/svg" xmlns:xlink="http://www.w3.org/1999/xlink">
    <!-- Generator: Sketch 49.3 (51167) - http://www.bohemiancoding.com/sketch -->
    <title>001 - Give Money </title>
    <desc>Created with Sketch.</desc>
    <defs></defs>
    <g id="Page-1" stroke="none" stroke-width="1" fill="none" fill-rule="evenodd" stroke-linecap="round" stroke-linejoin="round">
        <g id="001---Give-Money-" transform="translate(1.000000, 1.000000)" stroke="#dd4f05" stroke-width="1">
            <rect id="Rectangle-path" x="0" y="0" width="9" height="25" rx="2"></rect>
            <path d="M9,1 L34.3,1 C35.5840106,1.00004936 36.8432715,1.35326513 37.94,2.021 L56.684,13.43 C57.3440632,13.8318688 57.8038213,14.4936947 57.9500616,15.2525067 C58.096302,16.0113187 57.9154356,16.7966075 57.452,17.415 L57.452,17.42 C56.7441914,18.3635916 55.511932,18.748295 54.393,18.375 L35.883,12.205 C35.4738178,12.0687008 35.0452856,11.9994738 34.614,12 L25.725,12 C23.9481869,12.0001054 22.2111425,11.4739814 20.733,10.488 L20,10" id="Shape"></path>
            <path d="M9,23 L11.8,23 C13.871975,22.9998805 15.8822063,22.2945362 17.5,21 C19.1177937,19.7054638 21.128025,19.0001195 23.2,19 L28.43,19 C30.1862453,18.9997359 31.8135874,18.0780688 32.717,16.572 L32.807,16.424 C33.6621979,14.9993557 33.4383434,13.1755392 32.264,12" id="Shape"></path>
            <circle id="Oval" cx="41.002" cy="28.998" r="10"></circle>
            <path d="M39.031,32.3 C39.7201502,33.6245506 41.3403131,34.1572069 42.681,33.5 C44.125315,33.1180027 45.0004576,31.6527715 44.652,30.2 C43.9627981,28.8743128 42.3411891,28.341473 41,29 C39.6595643,29.6565473 38.0401241,29.1239827 37.351,27.8 C37.0019754,26.3471419 37.87734,24.8815391 39.322,24.5 C40.6626869,23.8427931 42.2828498,24.3754494 42.972,25.7" id="Shape"></path>
            <path d="M38.904,23.377 L43.101,34.619" id="Shape"></path>
            <circle id="Oval" cx="26.002" cy="48.002" r="10"></circle>
            <path d="M22.277,48.94 C21.8286269,50.3638796 22.5976556,51.885518 24.01,52.369 C25.3004676,53.119048 26.9536474,52.7027574 27.735,51.431 C28.1850283,50.0058853 27.4145421,48.4822322 26,48 C24.5877914,47.5169518 23.8186926,45.9956183 24.267,44.572 C25.0496942,43.2966828 26.70819,42.8808371 28,43.636 C29.4122086,44.1190482 30.1813074,45.6403817 29.733,47.064" id="Shape"></path>
            <path d="M28.493,42.544 L23.512,53.461" id="Shape"></path>
        </g>
    </g>
</svg>