<?xml version="1.0" encoding="UTF-8"?>
<svg width="56px" height="60px" viewBox="0 0 60 60" version="1.1" xmlns="http://www.w3.org/2000/svg" xmlns:xlink="http://www.w3.org/1999/xlink">
    <!-- Generator: Sketch 47.1 (45422) - http://www.bohemiancoding.com/sketch -->
    <title>Education - Outline - 030 - Graduating Student</title>
    <desc>Created with Sketch.</desc>
    <defs></defs>
    <g id="Page-1" stroke="none" stroke-width="1" fill="none" fill-rule="evenodd">
        <g id="Education---Outline---030---Graduating-Student" fill-rule="nonzero" fill="#000000">
            <path d="M53.5957,53.457 L53.41504,53.3071 C52.902861,52.8931061 52.3279339,52.5634459 51.71192,52.33054 C50.9868844,52.0827048 50.2375579,51.9126427 49.47657,51.82322 C49.17188,51.77635 48.86622,51.73045 48.56544,51.67088 C45.5640563,51.0248273 42.6057832,50.1926325 39.70777,49.17912 L38,45.76367 L38,40 C37.993746,39.9305816 37.9799102,39.8620567 37.95874,39.79565 C39.7689056,37.9574596 40.6453653,35.3961049 40.34082,32.83429 C42.1587845,31.7659676 43.4371971,29.9755101 43.85742,27.90918 L43.8623,27.87549 C44.26269,24.71049 43.89257,22.85303 42.76367,22.35498 C42.2647398,22.1365915 41.7003266,22.1213095 41.19031,22.31238 C41.21546,21.36511 41.21875,20.36865 41.19431,19.28955 C41.1833113,18.9161185 41.1035266,18.5479188 40.95896,18.20343 C40.9799989,18.1373147 40.9937603,18.0691009 41,18 L41,12.0509 L44,11.05212 L44,17 C44,17.5522847 44.4477153,18 45,18 C45.5522847,18 46,17.5522847 46,17 L46,10.38629 L47.40527,9.91846 L47.40918,9.91746 C48.2305581,9.64287067 48.7814628,8.87031316 48.7734468,8.00428947 C48.7654309,7.13826579 48.2003202,6.37603816 47.374,6.1167 L28.30371,0.04688 C28.1060598,-0.0156198905 27.8939402,-0.0156198905 27.69629,0.04688 L8.63184,6.11523 C7.80294128,6.37241947 7.2349999,7.13546784 7.22653192,8.00330873 C7.21806394,8.87114961 7.77100769,9.64513505 8.59473,9.91845 L15,12.0509 L15,18 C15.0062859,18.0690712 15.0200327,18.1372586 15.041,18.20337 C14.8964282,18.5478782 14.8166434,18.9160985 14.80565,19.28955 C14.78124,20.36774 14.78453,21.36365 14.8098,22.31219 C14.2996877,22.1213386 13.7352958,22.1366868 13.23631,22.35498 C12.1074,22.85298 11.73731,24.71045 12.14256,27.90918 C12.5627481,29.9750268 13.8406468,31.7651639 15.65794,32.83368 C15.3506252,35.3962363 16.2279746,37.959151 18.04124,39.79578 C18.0200713,39.8621416 18.006242,39.9306241 18,40 L18,45.76367 L16.29224,49.17914 C13.3942268,50.1926525 10.4359537,51.0248473 7.43457,51.6709 C7.13379,51.73047 6.82812,51.77637 6.52344,51.82324 C5.76281018,51.912627 5.01382155,52.0825261 4.28907,52.33008 C3.67251386,52.5633258 3.096968,52.8931268 2.58399,53.30713 L2.40528,53.45654 C0.907639462,54.7980207 0.0376209316,56.7035301 0.00489,58.71386 C0.001,58.80908 1.31382132e-15,58.9043 1.31382132e-15,59 C-6.89886937e-05,59.2652376 0.105265697,59.5196316 0.292817033,59.707183 C0.480368368,59.8947343 0.734762367,60.000069 1,60 L55,60 C55.2652376,60.000069 55.5196316,59.8947343 55.707183,59.707183 C55.8947343,59.5196316 56.000069,59.2652376 56,59 C56,58.9043 55.999,58.80908 55.99512,58.7168 C55.9630455,56.7058143 55.0933782,54.7994053 53.5957,53.457 Z M19.3877,47.46042 L26.66895,52.31442 L23.73829,57.44235 L17.24029,51.75635 L19.3877,47.46042 Z M36,45.46484 L28,50.79815 L20,45.46484 L20,41.83575 C20.52173,42.47475 20.955,43.09851 21.3457,43.67627 C22.502,45.38574 23.59473,47 26.26953,47 L29.73047,47 C32.40527,47 33.49805,45.38574 34.6543,43.67627 C35.04505,43.09851 35.4783,42.47473 36,41.83575 L36,45.46484 Z M28,54.01538 L30.27686,58 L25.72314,58 L28,54.01538 Z M29.33105,52.31445 L36.6123,47.46045 L38.75976,51.75635 L32.26176,57.44235 L29.33105,52.31445 Z M17,11.33008 L17,9.69189 C20.5470356,8.52000676 24.2647507,7.94819176 28,8 C31.7352493,7.94819176 35.4529644,8.52000676 39,9.69189 L39,16.45666 C35.4229608,15.4422372 31.7177842,14.9515842 28,15 C24.2821767,14.9514867 20.5769628,15.4423097 17,16.45715 L17,11.33008 Z M41.85059,24.18945 C42.0458153,25.3174731 42.0560391,26.4697605 41.88086,27.60107 C41.6457052,28.6696556 41.0968783,29.6437044 40.30469,30.39843 C40.3443038,29.5850798 40.4517807,28.7764592 40.626,27.981 C40.8380455,26.9280774 40.9961285,25.8650035 41.09963,24.79594 L41.11526,24.77694 C41.3070708,24.5223942 41.5599795,24.3203335 41.85059,24.18945 L41.85059,24.18945 Z M28,2.04932 L46.78418,8.01612 L46.77051,8.02198 L41,9.94336 L41,9 C40.9998227,8.58989888 40.7494023,8.22143006 40.36816,8.07031 C36.4055246,6.63426969 32.2142806,5.93269609 28,6 C23.7857194,5.93269609 19.5944754,6.63426969 15.63184,8.07031 C15.2505977,8.22143006 15.0001773,8.58989888 15,9 L15,9.94287 L9.2334,8.02295 L28,2.04932 Z M14.12207,27.625 C13.944347,26.4857951 13.9535816,25.3252325 14.14941,24.189 C14.4385776,24.3190699 14.6904281,24.5197127 14.88183,24.7725 L14.90038,24.79643 C15.0039103,25.8653272 15.1619898,26.9282363 15.374,27.981 C15.5482492,28.7766458 15.6557197,29.5854588 15.69529,30.399 C14.9070376,29.6510861 14.3593577,28.6853828 14.12207,27.625 L14.12207,27.625 Z M17.6875,32.19043 C17.71875,31.67043 17.74023,31.15043 17.74023,30.62012 C17.7253554,29.5811978 17.6042823,28.5465196 17.3789,27.53223 C17.1433167,26.3771161 16.979268,25.2085602 16.88769,24.03323 C16.79296,22.61868 16.76562,21.08206 16.80569,19.33548 C16.8079434,18.9103411 17.0803569,18.5337141 17.48342,18.39848 C20.9013886,17.4190712 24.4448583,16.9478656 28,17 C31.5551071,16.9479495 35.0985455,17.4189715 38.5166,18.39795 C38.9196251,18.5335306 39.1919511,18.9102375 39.19433,19.33545 C39.23433,21.08203 39.20703,22.61865 39.11328,24.02393 C39.0215427,25.2023748 38.8571669,26.3740351 38.62109,27.53223 C38.3957077,28.5465196 38.2746346,29.5811978 38.25976,30.62012 C38.25976,31.15039 38.28124,31.67041 38.31542,32.25537 C38.42968,34.69137 38.51952,36.61523 35.99511,38.92187 C34.8488166,40.0037549 33.842002,41.2244485 32.998,42.55566 C31.82129,44.29443 31.28223,45 29.73047,45 L26.26953,45 C24.71777,45 24.17871,44.29443 23.00195,42.55566 C22.1579604,41.2244508 21.1511593,40.0037573 20.00488,38.92187 C17.48047,36.61523 17.57031,34.69141 17.6875,32.19043 Z M3.71094,54.97168 L3.83494,54.86768 C4.18280133,54.5863162 4.5730594,54.3618651 4.99119,54.20268 C5.58662151,54.0067472 6.20045253,53.8719389 6.82319,53.80034 C7.15819,53.74956 7.49311,53.69829 7.82319,53.63286 C10.2723892,53.1225451 12.6903004,52.4721635 15.06501,51.68492 C14.9321496,52.0639647 15.0414743,52.485718 15.34174,52.75249 L21.339,58 L2.08008,58 C2.25303469,56.8309704 2.83007433,55.7594739 3.71094,54.97168 Z M34.661,58 L40.65819,52.75244 C40.9584557,52.485668 41.0677804,52.0639147 40.93492,51.68487 C43.3096296,52.4721135 45.7275408,53.1224951 48.17674,53.63281 C48.50682,53.69824 48.84174,53.74951 49.17674,53.80029 C49.7998434,53.8719168 50.4140197,54.0068915 51.00974,54.20312 C51.427334,54.3619786 51.8169765,54.5863023 52.16404,54.86767 L52.29004,54.97216 C53.1705489,55.7599009 53.7472451,56.8312336 53.91992,58 L34.661,58 Z" id="Shape"></path>
            <path d="M34,12 C34.2650558,11.9977448 34.51916,11.8939558 34.71,11.71 C34.8924566,11.5181869 34.9959931,11.264701 35,11 C34.998443,10.8691926 34.9712358,10.7399616 34.91992,10.61963 C34.8692102,10.4986041 34.7981876,10.3871358 34.70992,10.29004 C34.470439,10.0540665 34.1291802,9.95283165 33.79976,10.02004 C33.7372115,10.0307596 33.676635,10.0508416 33.62007,10.07961 C33.5561085,10.10157 33.4953549,10.1319468 33.43941,10.16994 L33.29,10.29 C33.2017324,10.3870958 33.1307098,10.4985641 33.08,10.61959 C33.0287066,10.7399396 33.0015265,10.8691845 33,11 C32.9974144,11.2660007 33.1019407,11.5218597 33.2900405,11.7099595 C33.4781403,11.8980593 33.7339993,12.0025856 34,12 L34,12 Z" id="Shape"></path>
            <path d="M37,14 C37.2650558,13.9977448 37.51916,13.8939558 37.71,13.71 C37.75,13.65971 37.79008,13.6099 37.83012,13.54984 C37.8695951,13.4987748 37.8999855,13.4412956 37.91996,13.37992 C37.9489487,13.3232742 37.9690409,13.262502 37.97953,13.19974 C37.9911726,13.1337423 37.9980138,13.0669873 38,13 C37.998443,12.8691926 37.9712358,12.7399616 37.91992,12.61963 C37.8692102,12.4986041 37.7981876,12.3871358 37.70992,12.29004 C37.3089719,11.9199169 36.6909481,11.9199169 36.29,12.29004 C36.1995436,12.3854448 36.1282524,12.4973347 36.08,12.61963 C36.0287117,12.7399672 36.0015317,12.8691979 36,13 C36.003556,13.2647929 36.1071571,13.5184369 36.29,13.71 C36.4806333,13.8942729 36.7348699,13.998116 37,14 L37,14 Z" id="Shape"></path>
            <path d="M28.71,11.71 C29.0967201,11.3156867 29.0967201,10.6843933 28.71,10.29008 C28.6126633,10.2017722 28.5010539,10.1306131 28.37992,10.07963 C28.0065138,9.93294351 27.581992,10.0148822 27.29,10.29 C27.0363414,10.5436586 26.9372765,10.913374 27.030122,11.259878 C27.1229674,11.6063821 27.3936179,11.8770326 27.740122,11.969878 C28.086626,12.0627235 28.4563414,11.9636586 28.71,11.71 Z" id="Shape"></path>
            <path d="M31,14 C31.2621469,13.9976511 31.5131587,13.8936902 31.7002,13.71 C31.8908788,13.5228251 31.9988208,13.2671918 32,13 C31.9969317,12.7331985 31.8892816,12.4782567 31.7002,12.29 C31.3030083,11.919871 30.6872317,11.919871 30.29004,12.29 C30.1071036,12.4815058 30.0034747,12.7351829 30,13 C29.9974144,13.2660007 30.1019407,13.5218597 30.2900405,13.7099595 C30.4781403,13.8980593 30.7339993,14.0025856 31,14 Z" id="Shape"></path>
            <path d="M21.29,10.29 C21.0015401,10.5760905 20.9148381,11.0082668 21.070629,11.3834815 C21.22642,11.7586962 21.5937349,12.0023626 22,12 C22.0635675,11.9981718 22.1269021,11.9914857 22.18945,11.98 C22.2557537,11.9703959 22.3200636,11.9501132 22.37988,11.91994 C22.4413182,11.8998846 22.4988109,11.8693213 22.5498,11.82961 C22.6037285,11.7947603 22.6541037,11.754698 22.7002,11.71 C22.8918755,11.5235204 23.0000054,11.2674613 23.0000054,11.00004 C23.0000054,10.7326187 22.8918755,10.4765596 22.7002,10.29008 C22.3030237,9.91990363 21.6872183,9.91986869 21.29,10.29 L21.29,10.29 Z" id="Shape"></path>
            <path d="M24.62012,12.07959 C24.497643,12.1279821 24.38558,12.1994082 24.29,12.29 C23.901799,12.6813529 23.9035017,13.3130467 24.2938069,13.7023011 C24.684112,14.0915556 25.315808,14.0915556 25.7061131,13.7023011 C26.0964183,13.3130467 26.098121,12.6813529 25.70992,12.29 C25.4203199,12.0103428 24.9930125,11.9278417 24.62012,12.07959 Z" id="Shape"></path>
            <path d="M19.91992,12.61963 C19.8978218,12.5561206 19.8676262,12.4957259 19.83008,12.43994 C19.7931868,12.3875292 19.7530834,12.3374534 19.71,12.29 C19.3090519,11.9198769 18.6910281,11.9198769 18.29008,12.29 C18.2469842,12.3374393 18.2068674,12.3875018 18.16996,12.4399 C18.1320348,12.495464 18.1018132,12.5559105 18.08012,12.61959 C18.051264,12.6763784 18.030865,12.7370802 18.01957,12.79977 C18.0081932,12.8659496 18.0016525,12.93287 18,13 C18,13.5522847 18.4477153,14 19,14 C19.5522847,14 20,13.5522847 20,13 C19.9985146,12.9328264 19.9916561,12.8658794 19.97949,12.7998 C19.9689999,12.7370415 19.9489077,12.6762726 19.91992,12.61963 Z" id="Shape"></path>
        </g>
    </g>
</svg>