<?xml version="1.0" encoding="UTF-8" standalone="no"?>
<svg width="58px" height="53px" viewBox="0 0 60 60" version="1.1" xmlns="http://www.w3.org/2000/svg" xmlns:xlink="http://www.w3.org/1999/xlink">
    <!-- Generator: Sketch 40.1 (33804) - http://www.bohemiancoding.com/sketch -->
    <title>35 -Bookmark- (education, study, learning, knowledge, outline)</title>
    <desc>Created with Sketch.</desc>
    <defs></defs>
    <g id="Page-1" stroke="none" stroke-width="1" fill="none" fill-rule="evenodd" stroke-linecap="round">
        <g id="Artboard-1-Copy" transform="translate(-601.000000, -822.000000)" stroke-width="1" stroke="#dd4f05">
            <g id="35--Bookmark--(education,-study,-learning,-knowledge,-outline)" transform="translate(602.000000, 823.000000)">
                <g id="Group-6">
                    <path d="M28,40.002 L28,40.002 C20.121,36.851 11.671,35.666 4,39.002 L3,39.002 L3,2.002 L4,2.002 C11.467,-0.665 20.533,-0.665 28,2.002 L28,40.002 L28,40.002 Z" id="Stroke-403"></path>
                    <path d="M13,9.002 L22,9.002" id="Stroke-404"></path>
                    <path id="Stroke-405"></path>
                    <path d="M9,14.002 L22,14.002" id="Stroke-406"></path>
                    <path d="M9,19.002 L18,19.002" id="Stroke-407"></path>
                    <path id="Stroke-408"></path>
                    <path d="M13,24.002 L22,24.002" id="Stroke-409"></path>
                    <path id="Stroke-410"></path>
                    <path d="M9,29.002 L22,29.002" id="Stroke-411"></path>
                    <path d="M36,14.002 L34,14.002" id="Stroke-412"></path>
                    <path id="Stroke-413"></path>
                    <path d="M36,9.002 L34,9.002" id="Stroke-414"></path>
                    <path d="M48,9.002 L44,9.002" id="Stroke-415"></path>
                    <path d="M48,29.002 L44,29.002" id="Stroke-416"></path>
                    <path id="Stroke-417"></path>
                    <path d="M36,24.002 L34,24.002" id="Stroke-418"></path>
                    <path id="Stroke-419"></path>
                    <path d="M36,19.002 L34,19.002" id="Stroke-420"></path>
                    <path d="M48,19.002 L44,19.002" id="Stroke-421"></path>
                    <path d="M36,37.6609 C33.344,38.1819 30.658,38.9869 28,40.0019 C20.121,36.8509 11.671,35.6659 4,39.0019 L3,39.0019 L3,2.0019 L0,2.0019 L0,41.0019 L36,41.0019 L36,37.6609 L36,37.6609 Z" id="Stroke-422"></path>
                    <path d="M52.9844,2.002 L52.9844,39.002 L52.0004,39.002 C49.4924,37.828 46.7984,37.222 44.0004,37.056 L44.0004,41.002 L56.0004,41.002 L56.0004,2.002 L52.9844,2.002 L52.9844,2.002 Z" id="Stroke-423"></path>
                    <polygon id="Stroke-424" points="0 44.002 36 44.002 36 41.002 0 41.002"></polygon>
                    <polygon id="Stroke-425" points="44 44.002 56 44.002 56 41.002 44 41.002"></polygon>
                    <path d="M36,0.2243 L36,25.6543 L36,37.6613 L36,50.0023 L40,47.0023 L44,50.0023 L44,37.0553 L44,25.0493 L44,0.2273 C41.339,-0.0627 38.656,-0.0637 36,0.2243 L36,0.2243 Z" id="Stroke-426"></path>
                    <path d="M52,2.002 C44.219,-0.665 35.74,-0.665 28,2.002 L28,40.002 C30.658,38.987 33.344,38.182 36,37.661 L36,25.655 L36,0.224 C38.656,-0.063 41.339,-0.062 44,0.227 L44,25.05 L44,37.056 C46.798,37.222 49.492,37.829 52,39.002 L52.984,39.002 L52.984,2.002 L52,2.002 L52,2.002 Z" id="Stroke-427"></path>
                </g>
            </g>
        </g>
    </g>
</svg>