<?xml version="1.0" encoding="UTF-8"?>
<svg width="60px" height="60px" viewBox="0 0 60 60" version="1.1" xmlns="http://www.w3.org/2000/svg" xmlns:xlink="http://www.w3.org/1999/xlink">
    <!-- Generator: Sketch 43.2 (39069) - http://www.bohemiancoding.com/sketch -->
    <title>26 -Shopping Bag- (shopping, shop, business)</title>
    <desc>Created with Sketch.</desc>
    <defs></defs>
    <g id="Page-1" stroke="none" stroke-width="1" fill="none" fill-rule="evenodd">
        <g id="Icons" transform="translate(-679.000000, -611.000000)" fill="#000000">
            <g id="26--Shopping-Bag--(shopping,-shop,-business)" transform="translate(679.000000, 611.000000)">
                <path d="M24.082,57.9995 L57.918,57.9995 L55.076,21.9995 L26.924,21.9995 L24.082,57.9995 Z M59,59.9995 L23,59.9995 C22.721,59.9995 22.455,59.8825 22.266,59.6785 C22.076,59.4735 21.981,59.1985 22.003,58.9205 L25.003,20.9205 C25.044,20.4005 25.478,19.9995 26,19.9995 L56,19.9995 C56.521,19.9995 56.956,20.4005 56.997,20.9205 L59.997,58.9205 C60.019,59.1985 59.924,59.4735 59.734,59.6785 C59.545,59.8825 59.279,59.9995 59,59.9995 L59,59.9995 Z" id="Fill-480"></path>
                <path d="M52,27.9995 C51.447,27.9995 51,27.5515 51,26.9995 L51,15.9995 C51,12.6905 48.309,9.9995 45,9.9995 C41.691,9.9995 39,12.6905 39,15.9995 L39,26.9995 C39,27.5515 38.553,27.9995 38,27.9995 C37.447,27.9995 37,27.5515 37,26.9995 L37,15.9995 C37,11.5885 40.589,7.9995 45,7.9995 C49.411,7.9995 53,11.5885 53,15.9995 L53,26.9995 C53,27.5515 52.553,27.9995 52,27.9995" id="Fill-481"></path>
                <path d="M47,21.9995 C46.447,21.9995 46,21.5515 46,20.9995 L46,15.9995 C46,12.6905 43.309,9.9995 40,9.9995 C36.691,9.9995 34,12.6905 34,15.9995 L34,20.9995 C34,21.5515 33.553,21.9995 33,21.9995 C32.447,21.9995 32,21.5515 32,20.9995 L32,15.9995 C32,11.5885 35.589,7.9995 40,7.9995 C44.411,7.9995 48,11.5885 48,15.9995 L48,20.9995 C48,21.5515 47.553,21.9995 47,21.9995" id="Fill-482"></path>
                <path d="M23,59.9995 L1,59.9995 C0.447,59.9995 0,59.5515 0,58.9995 L0,10.9995 C0,10.4475 0.447,9.9995 1,9.9995 L29,9.9995 C29.553,9.9995 30,10.4475 30,10.9995 L30,20.9995 C30,21.5515 29.553,21.9995 29,21.9995 C28.447,21.9995 28,21.5515 28,20.9995 L28,11.9995 L2,11.9995 L2,57.9995 L23,57.9995 C23.553,57.9995 24,58.4475 24,58.9995 C24,59.5515 23.553,59.9995 23,59.9995" id="Fill-483"></path>
                <path d="M23,59.9995 L11,59.9995 C10.447,59.9995 10,59.5515 10,58.9995 L10,26.9995 C10,26.4475 10.447,25.9995 11,25.9995 L25.526,25.9995 C26.079,25.9995 26.526,26.4475 26.526,26.9995 C26.526,27.5515 26.079,27.9995 25.526,27.9995 L12,27.9995 L12,57.9995 L23,57.9995 C23.553,57.9995 24,58.4475 24,58.9995 C24,59.5515 23.553,59.9995 23,59.9995" id="Fill-484"></path>
                <path d="M4,10 L9,10 L9,7 L4,7 L4,10 Z M10,12 L3,12 C2.447,12 2,11.552 2,11 L2,6 C2,5.447 2.447,5 3,5 L10,5 C10.553,5 11,5.447 11,6 L11,11 C11,11.552 10.553,12 10,12 L10,12 Z" id="Fill-485"></path>
                <path d="M21,10 L26,10 L26,5 L21,5 L21,10 Z M27,12 L20,12 C19.447,12 19,11.552 19,11 L19,4 C19,3.447 19.447,3 20,3 L27,3 C27.553,3 28,3.447 28,4 L28,11 C28,11.552 27.553,12 27,12 L27,12 Z" id="Fill-486"></path>
                <path d="M11,10 L19,10 L19,2 L11,2 L11,10 Z M20,12 L10,12 C9.447,12 9,11.552 9,11 L9,1 C9,0.447 9.447,0 10,0 L20,0 C20.553,0 21,0.447 21,1 L21,11 C21,11.552 20.553,12 20,12 L20,12 Z" id="Fill-487"></path>
            </g>
        </g>
    </g>
</svg>