<?xml version="1.0" encoding="UTF-8"?>
<svg width="60px" height="60px" viewBox="0 0 60 60" version="1.1" xmlns="http://www.w3.org/2000/svg" xmlns:xlink="http://www.w3.org/1999/xlink">
    <!-- Generator: Sketch 49.1 (51147) - http://www.bohemiancoding.com/sketch -->
    <title>059 - Football Game</title>
    <desc>Created with Sketch.</desc>
    <defs></defs>
    <g id="Page-1" stroke="none" stroke-width="1" fill="none" fill-rule="evenodd" stroke-linecap="round" stroke-linejoin="round">
        <g id="059---Football-Game" transform="translate(1.000000, 1.000000)" stroke="#dd4f05" stroke-width="1">
            <path d="M35.7099998,-1.82337061e-15 L53.9999997,-1.82337061e-15 C55.0609551,-0.000291883155 56.0785404,0.421041743 56.8287492,1.17125053 C57.578958,1.92145933 58.0002916,2.93904457 57.9999997,3.99999998 L57.9999997,45.9999997 C58.0002916,47.0609551 57.578958,48.0785404 56.8287492,48.8287492 C56.0785404,49.578958 55.0609551,50.0002916 53.9999997,49.9999997 L3.99999998,49.9999997 C2.93904457,50.0002916 1.92145933,49.578958 1.17125054,48.8287492 C0.421041744,48.0785404 -0.000291883155,47.0609551 -1.68018525e-15,45.9999997 L-1.68018525e-15,3.99999998 C-0.000291883155,2.93904457 0.421041744,1.92145933 1.17125054,1.17125053 C1.92145933,0.421041743 2.93904457,-0.000291883155 3.99999998,-1.601326e-15 L35.7099998,-1.82337061e-15 Z" id="Shape"></path>
            <polyline id="Shape" points="0 42 21 42 37 42 58 42"></polyline>
            <rect id="Rectangle-path" x="21" y="50" width="16" height="4"></rect>
            <rect id="Rectangle-path" x="13" y="54" width="32" height="4"></rect>
            <path d="M46.5,20.5 C46.5024178,21.3507382 46.4388202,22.2003817 46.30978,23.04128 C45.0446667,31.6284548 37.6798637,37.9929508 29,38 C27.2826997,38.003914 25.5745416,37.7500012 23.93263,37.24675 C23.65868,37.17064 23.38478,37.07933 23.11849,36.98042 C19.2101294,35.5845775 15.9253776,32.8445894 13.85111,29.25 C13.69893,28.9989 13.56198,28.7478 13.43259,28.48913 C11.2865648,24.3124128 10.9109029,19.4479983 12.3902,14.99131 C14.76393,7.8322928 21.4577111,2.99977196 29,3 C30.149958,2.99780017 31.2971602,3.11252341 32.42391,3.3424 C32.68263,3.38805 32.93368,3.44127 33.18478,3.50977 C36.1997584,4.24494968 38.9616979,5.77702609 41.18153,7.94565 C41.4402,8.18913 41.68368,8.44019 41.91953,8.70652 C44.8717682,11.9238662 46.5067187,16.1334245 46.5,20.5 Z" id="Shape"></path>
            <path d="M18.91848,8.63041 L18.87283,8.70652 L15.47934,14.13152 C15.4633784,14.160048 15.4428228,14.1857493 15.4185,14.20759 C15.3120885,14.3472093 15.1574567,14.4421526 14.9848,14.47388 L14.72608,14.52715 L12.3902,14.99132 C13.5135895,11.6042336 15.6454242,8.64143764 18.5,6.5 L18.97935,7.94567 L18.99454,7.98367 C19.0698768,8.19948838 19.0418315,8.43795841 18.91848,8.63041 Z" id="Shape"></path>
            <path d="M32.46408,5.45274 L27.33008,8.01974 C26.9818087,8.19387788 26.8212097,8.60285196 26.95793,8.96744 L28.83228,13.9657 C28.9348411,14.2392009 29.1849212,14.4298445 29.47582,14.45629 L36.70313,15.11329 C37.0842251,15.1479362 37.4317584,14.8941544 37.51477,14.5206 L38.76243,8.906 C38.8381695,8.56517498 38.6722296,8.21653968 38.35995,8.0604 L33.14462,5.45274 C32.9304149,5.34563803 32.6782851,5.34563803 32.46408,5.45274 Z" id="Shape"></path>
            <path d="M18.33578,22.09662 L24.79956,22.743 C25.0476686,22.7678105 25.2678759,22.9126129 25.38897,23.13058 L28.67774,29.05037 C28.8624001,29.3827569 28.7733308,29.8004389 28.46914,30.02858 L23.40644,33.82558 C23.1188171,34.0412991 22.7194542,34.0262515 22.44888,33.7895 L17.12514,29.13123 C16.9377709,28.9672823 16.842465,28.7220371 16.86996,28.47459 L17.50384,22.76967 C17.549895,22.3552666 17.9208955,22.0551225 18.33578,22.09662 Z" id="Shape"></path>
            <path d="M46.30978,23.04128 C45.6209703,27.7875891 43.0061689,32.0400843 39.08152,34.79672 C38.9024393,34.7046578 38.7700221,34.5418955 38.71632,34.34783 L37.4761,30.01083 L37.45325,29.93472 C37.3988141,29.740498 37.42344,29.5326267 37.52175,29.3565 L37.58263,29.24997 L40.92281,23.22385 L40.95327,23.17063 C41.0802572,22.9504677 41.3084151,22.8078695 41.56196,22.7902 C41.5814999,22.7834422 41.6022373,22.7808467 41.62284,22.78258 L45.73912,22.78258 C45.958022,22.7811972 46.1665536,22.8757319 46.30978,23.04128 Z" id="Shape"></path>
            <path d="M17.73362,22.30431 L15.12069,14.46552" id="Shape"></path>
            <path d="M26.96034,8.43103 L19.0069,8.43103" id="Shape"></path>
            <path d="M32.62069,5.39569 L32.62069,3.38017" id="Shape"></path>
            <path d="M29.39224,14.44138 L25.28276,22.98017" id="Shape"></path>
            <path d="M40.7431,7.5319 L38.60086,8.25" id="Shape"></path>
            <path d="M41.10517,22.98621 L37.12845,15.03276" id="Shape"></path>
            <path d="M37.44828,29.55172 L28.75862,29.55172" id="Shape"></path>
            <path d="M22.96552,36.91983 L22.96552,33.975" id="Shape"></path>
            <path d="M16.88879,28.73707 L14.16121,29.76293" id="Shape"></path>
        </g>
    </g>
</svg>