<svg id="Layer_1" data-name="Layer 1" xmlns="http://www.w3.org/2000/svg" viewBox="0 0 60 60"><defs><style>.cls-1{fill:#da5126;}</style></defs><title>LCC</title><path class="cls-1" d="M33.53,28.25c0-3.23,0-6.45,0-9.67a18.24,18.24,0,0,1,.13-1.95A1.19,1.19,0,0,1,35,15.48h3c1.53,0,2,.28,2,1.79.09,2.15,0,4.3,0,6.45,0,.44-.21.62-.63.61-.11,0-.23,0-.34,0-2.31,0-1.86.21-1.9-1.87,0-.69,0-1.38,0-2.07,0-.35.1-.94-.35-.94s-.36.56-.36.89c0,2.73,0,5.45,0,8.17q0,3.8,0,7.59c0,.31-.18.83.29.86s.42-.52.43-.86c0-1.65,0-3.3,0-5,0-.67.22-.84.86-.84,2,0,2,0,2,2,0,2.22,0,4.45,0,6.67,0,1.69-.43,2.07-2.11,2.12-.92,0-1.84,0-2.76,0s-1.39-.48-1.51-1.37a35.26,35.26,0,0,1-.1-4.36C33.51,33,33.53,30.62,33.53,28.25Z" transform="translate(-0.97 -3.49)"/><path class="cls-1" d="M25.88,28.32c0-3.45,0-6.9,0-10.35,0-2.09.35-2.41,2.37-2.42.77,0,1.53,0,2.3,0,1.2,0,1.72.41,1.76,1.61.06,2.18,0,4.37,0,6.55,0,.38-.11.55-.51.55-2.27,0-2.27.21-2.27-2V20c0-.31,0-.64-.44-.63s-.4.37-.4.66c0,1.61,0,3.22,0,4.83,0,3.72,0,11.15,0,11.15s-.15,1.05.37,1.1.46-1,.46-1,0-3.27,0-4.84c0-.62.12-.85.81-.85,2,0,2,0,2,2,0,2.41.09,4.82,0,7.23A1.38,1.38,0,0,1,30.92,41c-1,0-2.07,0-3.1,0-1.43,0-1.91-.44-1.92-1.91,0-3.6,0-7.2,0-10.8Z" transform="translate(-0.97 -3.49)"/><path class="cls-1" d="M20.17,28.22c0-3.87,0-7.75,0-11.62,0-.75.11-1.08,1-1.06,2,0,2,0,2,2,0,6.14,0,18.41,0,18.41v1.64l1.93.08C25.09,41,25.18,41,22,41c-1.82,0-1.82,0-1.82-1.77Z" transform="translate(-0.97 -3.49)"/><rect class="cls-1" x="19.2" y="34.15" width="4.92" height="3.41"/><rect class="cls-1" x="19.19" y="12.03" width="3.02" height="2.05"/><rect class="cls-1" x="28.55" y="26.83" width="2.85" height="7.02"/><polygon class="cls-1" points="25.21 13.71 27.76 13.38 27.76 33.61 25.27 33.84 25.21 13.71"/><polygon class="cls-1" points="28.55 12.86 31.27 13.11 31.38 20.82 28.55 20.82 28.55 12.86"/><rect class="cls-1" x="36.12" y="16.18" width="2.95" height="4.84"/><rect class="cls-1" x="36.12" y="26.83" width="2.95" height="7.02"/><polygon class="cls-1" points="57.91 52.68 57.91 52.33 0.69 52.33 0.69 0.69 57.56 0.69 57.56 52.68 57.91 52.68 57.91 52.33 57.91 52.68 58.26 52.68 58.26 0 0 0 0 53.02 58.26 53.02 58.26 52.68 57.91 52.68"/><path class="cls-1" d="M21.12,44.05h-.95v-.34h2.31v.34h-.95v2.78h-.41Z" transform="translate(-0.97 -3.49)"/><path class="cls-1" d="M25.38,45.24a1.47,1.47,0,0,1-1.45,1.65,1.44,1.44,0,0,1-1.41-1.59A1.49,1.49,0,0,1,24,43.66,1.42,1.42,0,0,1,25.38,45.24Zm-2.43,0c0,.67.37,1.27,1,1.27s1-.59,1-1.3S24.63,44,24,44,23,44.6,23,45.29Z" transform="translate(-0.97 -3.49)"/><path class="cls-1" d="M25.91,43.71h.4V46.5h1.33v.33H25.91Z" transform="translate(-0.97 -3.49)"/><path class="cls-1" d="M28.1,43.71h.4V46.5h1.33v.33H28.1Z" transform="translate(-0.97 -3.49)"/><path class="cls-1" d="M31.27,43.71H33v.34H31.67v1h1.19v.33H31.67v1.41h-.4Z" transform="translate(-0.97 -3.49)"/><path class="cls-1" d="M35.15,45.37H33.93V46.5h1.36v.33H33.53V43.71h1.69v.34H33.93v1h1.22Z" transform="translate(-0.97 -3.49)"/><path class="cls-1" d="M37.43,45.37H36.22V46.5h1.35v.33H35.81V43.71H37.5v.34H36.22v1h1.21Z" transform="translate(-0.97 -3.49)"/><path class="cls-1" d="M38,46.34a1.45,1.45,0,0,0,.72.21c.42,0,.66-.22.66-.54s-.17-.45-.59-.62S38,45,38,44.51a.9.9,0,0,1,1-.85,1.46,1.46,0,0,1,.7.15l-.12.33A1.18,1.18,0,0,0,39,44c-.43,0-.59.26-.59.47s.19.44.62.6.8.46.8.92-.36.9-1.09.9a1.62,1.62,0,0,1-.8-.2Z" transform="translate(-0.97 -3.49)"/></svg>