<?xml version="1.0" encoding="UTF-8"?>
<svg width="60px" height="60px" viewBox="0 0 60 60" version="1.1" xmlns="http://www.w3.org/2000/svg" xmlns:xlink="http://www.w3.org/1999/xlink">
    <!-- Generator: Sketch 50.2 (55047) - http://www.bohemiancoding.com/sketch -->
    <title>041 - Airport </title>
    <desc>Created with Sketch.</desc>
    <defs></defs>
    <g id="Page-1" stroke="none" stroke-width="1" fill="none" fill-rule="evenodd" stroke-linecap="round" stroke-linejoin="round">
        <g id="041---Airport-" transform="translate(1.000000, 0.000000)" stroke="#dd4f05" stroke-width="1">
            <path d="M0,47 L58,47 L58,50 C58,51.1045695 57.1045695,52 56,52 L2,52 C0.8954305,52 2.22044605e-16,51.1045695 0,50 L0,47 Z" id="Shape"></path>
            <path d="M1,47 L1,34.778 C1.06197273,30.4213139 4.64329495,26.9393734 9,27 C13.356705,26.9393734 16.9380273,30.4213139 17,34.778 L17,47" id="Shape"></path>
            <path d="M21,47 L21,34.778 C21.0619727,30.4213139 24.643295,26.9393734 29,27 C33.356705,26.9393734 36.9380273,30.4213139 37,34.778 L37,47" id="Shape"></path>
            <path d="M41,47 L41,34.778 C41.0619727,30.4213139 44.643295,26.9393734 49,27 C53.356705,26.9393734 56.9380273,30.4213139 57,34.778 L57,47" id="Shape"></path>
            <path d="M9,52 L9,59" id="Shape"></path>
            <path d="M5,59 L13,59" id="Shape"></path>
            <path d="M29,52 L29,59" id="Shape"></path>
            <path d="M25,59 L33,59" id="Shape"></path>
            <path d="M49,52 L49,59" id="Shape"></path>
            <path d="M45,59 L53,59" id="Shape"></path>
            <path d="M40,2.33 L40,4.5 C40.0194251,4.98369134 39.8385417,5.4539882 39.5,5.8 L35.8,8.96 L35.82,8.98 L37.32,20.368 C37.28,21.068 36.346,21.378 36.02,20.798 L30.846,13.179 L27.521,16.249 L27.601,20.728 C27.6460082,21.2600649 27.3253817,21.7551957 26.8214677,21.9318011 C26.3175537,22.1084065 25.7579849,21.9217553 25.461,21.478 L24.215,19.528 L21.985,20.738 C21.5720531,20.9608483 21.0724285,20.950533 20.6690315,20.7108304 C20.2656344,20.4711277 20.0177025,20.0372373 20.016,19.568 C20.0142157,19.3444282 20.0696383,19.1241147 20.177,18.928 L21.453,16.649 L19.544,15.409 C19.0843574,15.1276173 18.8809528,14.565364 19.0541787,14.0550304 C19.2274046,13.5446968 19.7310442,13.2224402 20.267,13.279 L24.688,13.419 L27.762,10.109 L20.107,4.96 C19.525,4.64 19.846,3.71 20.539,3.68 L31.982,5.17 L32,5.18 L35.187,1.5 C35.5357638,1.16194286 36.007646,0.981283531 36.493,1 L38.663,1.01 C39.3932732,1.01368728 39.9869685,1.59983378 40,2.33 Z" id="Shape"></path>
        </g>
    </g>
</svg>