<?xml version="1.0" encoding="UTF-8"?>
<svg width="60px" height="60px" viewBox="0 0 60 60" version="1.1" xmlns="http://www.w3.org/2000/svg" xmlns:xlink="http://www.w3.org/1999/xlink">
    <!-- Generator: Sketch 50.2 (55047) - http://www.bohemiancoding.com/sketch -->
    <title>069 - Question Target </title>
    <desc>Created with Sketch.</desc>
    <defs></defs>
    <g id="Page-1" stroke="none" stroke-width="1" fill="none" fill-rule="evenodd" stroke-linecap="round" stroke-linejoin="round">
        <g id="069---Question-Target-" transform="translate(1.000000, 1.000000)" stroke="#a7abad" stroke-width="1">
            <path d="M31.91,26.29 C36.3343311,30.6173818 43.1959264,31.2258572 48.3127182,27.744567 C53.4295099,24.2632769 55.3827616,17.6574809 52.9819876,11.95334 C50.5812135,6.2491991 44.4920781,3.02830451 38.4258431,4.25375646 C32.3596081,5.47920841 27.9982629,10.811225 28,17 C28,17.15 28,17.3 28.01,17.45" id="Shape"></path>
            <circle id="Oval" cx="41" cy="17" r="3"></circle>
            <path d="M16,48 C14.3431458,48 13,46.6568542 13,45 L13,41 C13,39.3431458 14.3431458,38 16,38 C21.5228475,38 26,33.5228475 26,28 C26,22.4771525 21.5228475,18 16,18 C10.4771525,18 6,22.4771525 6,28 C6,29.6568542 4.65685425,31 3,31 C1.34314575,31 2.22044605e-16,29.6568542 0,28 C0.000932422955,19.5540114 6.56654357,12.5633524 14.9958837,12.0333053 C23.4252238,11.5032581 30.8148176,17.6163969 31.8737474,25.9957401 C32.9326771,34.3750833 27.2961957,42.1343771 19,43.718 L19,45 C19,46.6568542 17.6568542,48 16,48 Z" id="Shape"></path>
            <circle id="Oval" cx="16" cy="55" r="3"></circle>
            <path d="M41,0 L41,8" id="Shape"></path>
            <path d="M58,17 L50,17" id="Shape"></path>
            <path d="M32,17 L28,17" id="Shape"></path>
            <path d="M41,34 L41,26" id="Shape"></path>
        </g>
    </g>
</svg>