<?xml version="1.0" encoding="UTF-8" standalone="no"?>
<svg width="60px" height="60px" viewBox="0 0 60 60" version="1.1" xmlns="http://www.w3.org/2000/svg" xmlns:xlink="http://www.w3.org/1999/xlink">
    <!-- Generator: Sketch 40.1 (33804) - http://www.bohemiancoding.com/sketch -->
    <title>152 - Give Money (business, finance, marketing, outline)</title>
    <desc>Created with Sketch.</desc>
    <defs></defs>
    <g id="Page-1" stroke="none" stroke-width="1" fill="none" fill-rule="evenodd" stroke-linecap="round">
        <g id="Icons" transform="translate(-1080.000000, -479.000000)" stroke="#dd4f05" stroke-width="1">
            <g id="Give-Money" transform="translate(1081.000000, 480.000000)">
                <path d="M29.7596739,41 L20.0416739,41" id="Stroke-298"></path>
                <path d="M57.3416739,37.166 C58.1156739,36.524 58.2726739,35.386 57.6866739,34.569 C56.4336739,32.824 55.3946739,32.409 51.0416739,34.698 L42.3676739,40 C39.7166739,41.409 32.7606739,41 29.7596739,41 C29.7596739,41 36.8416739,41.48 34.0156739,37.261 C32.6096739,35.163 30.1856739,33.972 27.6606739,33.972 L23.7596739,33.972 C21.4856739,33.972 19.2426739,33.296 17.4276739,31.927 C13.1906739,28.733 5.04167392,29 5.04167392,29 L5.04167392,53 L19.0416739,53 C21.0386739,53 23.0326739,52.849 25.0076739,52.549 L38.0416739,50.567 C38.4866739,50.567 38.9186739,50.515 39.3366739,50.422 C39.3436739,50.421 39.3496739,50.42 39.3566739,50.419 C40.4116739,50.271 41.3756739,49.737 42.1446739,49 L57.3416739,37.166 L57.3416739,37.166 Z" id="Stroke-300"></path>
                <polygon id="Stroke-302" points="0.0416739178 25.972 5.04167392 25.972 5.04167392 56 0.0416739178 56"></polygon>
                <path d="M16.0416739,44 C16.0416739,41.789 17.8306739,41 20.0416739,41" id="Stroke-304"></path>
                <path d="M30.0416739,27 C30.0416739,29.209 28.2506739,31 26.0416739,31 C23.8326739,31 22.0416739,29.209 22.0416739,27 C22.0416739,24.791 23.8326739,23 26.0416739,23 C28.2506739,23 30.0416739,24.791 30.0416739,27 L30.0416739,27 Z" id="Stroke-306"></path>
                <path d="M49.0416739,8 C49.0416739,12.418 45.4596739,16 41.0416739,16 C36.6236739,16 33.0416739,12.418 33.0416739,8 C33.0416739,3.582 36.6236739,0 41.0416739,0 C45.4596739,0 49.0416739,3.582 49.0416739,8 L49.0416739,8 Z" id="Stroke-308"></path>
                <path d="M45.0416739,8 C45.0416739,10.209 43.2506739,12 41.0416739,12 C38.8326739,12 37.0416739,10.209 37.0416739,8 C37.0416739,5.791 38.8326739,4 41.0416739,4 C43.2506739,4 45.0416739,5.791 45.0416739,8 L45.0416739,8 Z" id="Stroke-310"></path>
                <path d="M21.8476739,33.803 C22.4766739,33.912 23.1156739,33.972 23.7596739,33.972 L27.6606739,33.972 C28.2936739,33.972 28.9206739,34.047 29.5266739,34.192 C32.1966739,32.896 34.0416739,30.167 34.0416739,27 C34.0416739,22.582 30.4596739,19 26.0416739,19 C21.6236739,19 18.0416739,22.582 18.0416739,27 C18.0416739,29.878 19.5666739,32.394 21.8476739,33.803 L21.8476739,33.803 Z" id="Stroke-312"></path>
            </g>
        </g>
    </g>
</svg>