<?xml version="1.0" encoding="UTF-8"?>
<svg width="60px" height="60px" viewBox="0 0 60 60" version="1.1" xmlns="http://www.w3.org/2000/svg" xmlns:xlink="http://www.w3.org/1999/xlink">
    <!-- Generator: Sketch 49.1 (51147) - http://www.bohemiancoding.com/sketch -->
    <title>001 - Stamp</title>
    <desc>Created with Sketch.</desc>
    <defs></defs>
    <g id="Page-1" stroke="none" stroke-width="1" fill="none" fill-rule="evenodd">
        <g id="001---Stamp" transform="translate(1.000000, 1.000000)" stroke="#a7abad" stroke-width="1">
            <path d="M56.093,15.74461 C56.0977252,16.9124416 56.7304427,17.987402 57.74918,18.55839 C57.9047238,18.6531993 57.9997227,18.8221184 57.9999452,19.0042794 C58.0001677,19.1864404 57.9055817,19.355591 57.75027,19.45078 C56.727304,20.0197589 56.0929904,21.0983961 56.0929904,22.26895 C56.0929904,23.4395039 56.727304,24.5181411 57.75027,25.08712 C57.9053129,25.1816451 57.9999126,25.3501145 57.9999126,25.5317 C57.9999126,25.7132855 57.9053129,25.8817549 57.75027,25.97628 C56.7274936,26.5435975 56.0929931,27.6211186 56.0929931,28.7907 C56.0929931,29.9602814 56.7274936,31.0378025 57.75027,31.60512 C57.9053129,31.6996451 57.9999126,31.8681145 57.9999126,32.0497 C57.9999126,32.2312855 57.9053129,32.3997549 57.75027,32.49428 C56.727304,33.0632589 56.0929904,34.1418961 56.0929904,35.31245 C56.0929904,36.4830039 56.727304,37.5616411 57.75027,38.13062 C57.9055874,38.2258062 58.0001789,38.3949584 57.9999584,38.5771228 C57.9997379,38.7592872 57.9047374,38.92821 57.74919,39.02302 C56.7268295,39.5906213 56.0927768,40.6680924 56.0930012,41.8374479 C56.0932256,43.0068034 56.7276918,44.0840311 57.75027,44.65124 C57.9053178,44.7457614 57.9999218,44.9142322 57.9999218,45.09582 C57.9999218,45.2774078 57.9053178,45.4458786 57.75027,45.5404 C56.727304,46.1093789 56.0929904,47.1880161 56.0929904,48.35857 C56.0929904,49.5291239 56.727304,50.6077611 57.75027,51.17674 C57.9055612,51.2719487 58.000129,51.4410968 57.9999066,51.6232506 C57.9996841,51.8054043 57.9047033,51.9743209 57.74918,52.06915 C56.7304534,52.640144 56.0977393,53.7150949 56.093,54.88292 C56.0945331,55.3788676 56.2120283,55.8675842 56.4361,56.31003 C56.0643771,56.183892 55.6746394,56.1189469 55.2821,56.11773 C54.1020769,56.1109088 53.004858,56.7232298 52.3911,57.7311 C52.2985543,57.8969434 52.1235858,57.9998017 51.9336682,58.0000091 C51.7437506,58.0002166 51.5685578,57.8977408 51.47565,57.7321 C50.8555913,56.7287525 49.7602862,56.1179331 48.5808037,56.1177294 C47.4013212,56.1175257 46.3058052,56.7279668 45.6854,57.7311 C45.5930078,57.8966171 45.418288,57.9991853 45.22873,57.9991853 C45.039172,57.9991853 44.8644522,57.8966171 44.77206,57.7311 C44.153434,56.7283164 43.05934,56.1177347 41.88109,56.1177347 C40.70284,56.1177347 39.608746,56.7283164 38.99012,57.7311 C38.8975743,57.8969434 38.7226058,57.9998017 38.5326882,58.0000091 C38.3427706,58.0002166 38.1675778,57.8977408 38.07467,57.7321 C37.4546113,56.7287525 36.3593062,56.1179331 35.1798237,56.1177294 C34.0003412,56.1175257 32.9048252,56.7279668 32.28442,57.7311 C32.1920263,57.8966121 32.0173093,57.9991763 31.827755,57.9991763 C31.6382007,57.9991763 31.4634837,57.8966121 31.37109,57.7311 C30.7524717,56.7283156 29.6583817,56.1177319 28.480135,56.1177319 C27.3018883,56.1177319 26.2077983,56.7283156 25.58918,57.7311 C25.4967863,57.8966121 25.3220693,57.9991763 25.132515,57.9991763 C24.9429607,57.9991763 24.7682437,57.8966121 24.67585,57.7311 C24.0554448,56.7279668 22.9599288,56.1175257 21.7804463,56.1177294 C20.6009638,56.1179331 19.5056587,56.7287525 18.8856,57.7321 C18.7926922,57.8977408 18.6174994,58.0002166 18.4275818,58.0000091 C18.2376642,57.9998017 18.0626957,57.8969434 17.97015,57.7311 C17.351524,56.7283164 16.25743,56.1177347 15.07918,56.1177347 C13.90093,56.1177347 12.806836,56.7283164 12.18821,57.7311 C12.0958178,57.8966171 11.921098,57.9991853 11.73154,57.9991853 C11.541982,57.9991853 11.3672622,57.8966171 11.27487,57.7311 C10.6544648,56.7279668 9.55894875,56.1175257 8.37946628,56.1177294 C7.1999838,56.1179331 6.10467871,56.7287525 5.48462,57.7321 C5.39171224,57.8977408 5.21651939,58.0002166 5.0266018,58.0000091 C4.83668421,57.9998017 4.66171566,57.8969434 4.56917,57.7311 C3.95541202,56.7232298 2.85819314,56.1109088 1.67817,56.11773 L1.66786,56.11773 C1.82667953,55.7254667 1.90788003,55.3061142 1.90696,54.88292 C1.90221867,53.7150928 1.26950043,52.6401415 0.25077,52.06915 C0.0952467072,51.9743209 0.000265927623,51.8054043 4.34428785e-05,51.6232506 C-0.000179041866,51.4410968 0.0943888215,51.2719487 0.24968,51.17674 C1.26897457,50.6021231 1.90163628,49.524833 1.90696,48.35474 C1.90219375,47.1864854 1.26900631,46.1112202 0.24969,45.5404 C0.0946421595,45.4458786 3.82014846e-05,45.2774078 3.82014846e-05,45.09582 C3.82014846e-05,44.9142322 0.0946421595,44.7457614 0.24969,44.65124 C1.26903416,44.0804231 1.90224002,43.0051373 1.907,41.83686 C1.90227242,40.668995 1.26953618,39.5940047 0.25077,39.023 C0.0952226339,38.92819 0.00022205009,38.7592672 1.59114834e-06,38.5771028 C-0.000218867793,38.3949384 0.0943725711,38.2257862 0.24969,38.1306 C1.26896346,37.5560215 1.90163397,36.4787856 1.907,35.30873 C1.9022608,34.1404368 1.26906671,33.0651248 0.24972,32.49428 C0.0946771473,32.3997549 7.74122732e-05,32.2312855 7.74122732e-05,32.0497 C7.74122732e-05,31.8681145 0.0946771473,31.6996451 0.24972,31.60512 C1.2690557,31.0342936 1.90224971,29.9590046 1.907,28.79073 C1.9022608,27.6224368 1.26906671,26.5471248 0.24972,25.97628 C0.0946771473,25.8817549 7.74122732e-05,25.7132855 7.74122732e-05,25.5317 C7.74122732e-05,25.3501145 0.0946771473,25.1816451 0.24972,25.08712 C1.2690557,24.5162936 1.90224971,23.4410046 1.907,22.27273 C1.90167628,21.102637 1.26901457,20.0253469 0.24972,19.45073 C0.0944082894,19.355541 -0.000177733303,19.1863904 4.47652502e-05,19.0042294 C0.000267263804,18.8220684 0.095266218,18.6531493 0.25081,18.55834 C1.26953562,17.9873634 1.90225477,16.9124258 1.907,15.74461 C1.90226584,14.576331 1.26907256,13.501033 0.24973,12.93021 C0.0946868241,12.8356875 8.64030439e-05,12.6672194 8.64030439e-05,12.485635 C8.64030439e-05,12.3040506 0.0946868241,12.1355825 0.24973,12.04106 C1.26907285,11.4702126 1.90226283,10.3949011 1.907,9.22661 C1.90164473,8.0565437 1.26897275,6.97929378 0.24969,6.40471 C0.0943725711,6.30952378 -0.000218867793,6.14037158 1.59114835e-06,5.95820717 C0.00022205009,5.77604276 0.0952226339,5.60712 0.25077,5.51231 C1.26952686,4.94131055 1.90226162,3.86633422 1.907,2.69848 C1.90955173,2.4284317 1.87455008,2.15933964 1.803,1.89893 C2.95023157,1.86549613 4.00072336,1.24780988 4.58769,0.26154 C4.67437222,0.1010705 4.84178016,0.000761050767 5.02416355,8.66638673e-06 C5.20654695,-0.000743717994 5.37477678,0.0981811279 5.46278,0.25793 C6.07490497,1.28726063 7.18632855,1.91548403 8.3839,1.90907 C9.56392869,1.9158929 10.6611512,1.30356227 11.2749,0.29568 C11.3672922,0.130162894 11.542012,0.0275947134 11.73157,0.0275947134 C11.921128,0.0275947134 12.0958478,0.130162894 12.18824,0.29568 C12.8019664,1.30355571 13.8991686,1.9158877 15.07918,1.90907 C16.2592087,1.9158929 17.3564312,1.30356227 17.97018,0.29568 C18.0627257,0.129836593 18.2376942,0.026978337 18.4276118,0.0267708788 C18.6175294,0.0265634206 18.7927222,0.129039175 18.88563,0.29468 C19.503046,1.30298261 20.6025778,1.91523133 21.78488,1.90906 C22.9649107,1.91588078 24.0621337,1.30354611 24.67588,0.29566 C24.7682737,0.130147912 24.9429907,0.0275836705 25.132545,0.0275836705 C25.3220993,0.0275836705 25.4968163,0.130147912 25.58921,0.29566 C26.2029474,1.30355411 27.3001772,1.91588881 28.48021,1.90905 C29.6602428,1.91588881 30.7574726,1.30355411 31.37121,0.29566 C31.4636037,0.130147912 31.6383207,0.0275836705 31.827875,0.0275836705 C32.0174293,0.0275836705 32.1921463,0.130147912 32.28454,0.29566 C32.8982863,1.30354611 33.9955093,1.91588078 35.17554,1.90906 C36.3578422,1.91523133 37.457374,1.30298261 38.07479,0.29468 C38.1676978,0.129039175 38.3428906,0.0265634206 38.5328082,0.0267708788 C38.7227258,0.026978337 38.8976943,0.129836593 38.99024,0.29568 C39.6039888,1.30356227 40.7012113,1.9158929 41.88124,1.90907 C43.0612514,1.9158877 44.1584536,1.30355571 44.77218,0.29568 C44.8645722,0.130162894 45.039292,0.0275947134 45.22885,0.0275947134 C45.418408,0.0275947134 45.5931278,0.130162894 45.68552,0.29568 C46.2992688,1.30356227 47.3964913,1.9158929 48.57652,1.90907 C49.7587973,1.91521679 50.858297,1.3029712 51.4757,0.29469 C51.5686078,0.129049175 51.7438006,0.0265734206 51.9337182,0.0267808788 C52.1236358,0.026988337 52.2986043,0.129846593 52.39115,0.29569 C53.0048988,1.30357227 54.1021213,1.9159029 55.28215,1.90908 C55.6019162,1.90726935 55.9200274,1.86302297 56.22815,1.7775 C56.1404064,2.07670333 56.094913,2.38670219 56.09299,2.6985 C56.0977202,3.86634585 56.7304386,4.94132021 57.74918,5.51233 C57.9047274,5.60714 57.9997279,5.77606276 57.9999484,5.95822717 C58.0001689,6.14039158 57.9055774,6.30954378 57.75026,6.40473 C56.727294,6.97370888 56.0929804,8.05234609 56.0929804,9.2229 C56.0929804,10.3934539 56.727294,11.4720911 57.75026,12.04107 C57.9053032,12.1355925 57.9999036,12.3040606 57.9999036,12.485645 C57.9999036,12.6672294 57.9053032,12.8356975 57.75026,12.93022 C56.7309244,13.5010438 56.0977357,14.5763367 56.093,15.74461 Z" id="Shape" stroke-linecap="round" stroke-linejoin="round"></path>
            <rect id="Rectangle-path" stroke-linecap="round" stroke-linejoin="round" x="6" y="6" width="45" height="46" rx="2"></rect>
            <path d="M40.56337,15.5998 C40.471091,15.498428 40.3494063,15.4284698 40.21537,15.39973 C38.3607331,14.9257322 36.393321,15.4577 35.03026,16.80173 C34.0907164,17.8225075 33.5051542,19.1188964 33.3604,20.49867 C33.1602832,21.5109191 33.3277148,22.5613545 33.83261,23.46123 C34.5167764,24.3673196 35.7750145,24.6098895 36.74699,24.02308 C39.4046,22.68545 40.62535,19.45438 40.76933,16.54579 C40.8212877,16.2158023 40.7478112,15.8783192 40.56337,15.5998 Z" id="Shape" stroke-linejoin="round"></path>
            <path d="M40.14242,19.74292 C39.90117,21.2014463 40.2208098,22.6972368 41.03712,23.92977 C41.6339648,24.7220792 42.7511698,24.8992084 43.56382,24.33037 C44.3224179,23.8304919 44.9630493,23.1713994 45.44118,22.39891 C46.0074224,21.6223104 46.4548283,20.7656977 46.76867,19.85727 C47.1540746,18.513199 47.0489665,17.0758746 46.47213,15.80217 C45.9871014,14.6718381 45.2874032,13.6463315 44.41181,12.78248 C40.6423387,9.0645342 34.5852813,9.0645342 30.81581,12.78248 C29.9402168,13.6463315 29.2405186,14.6718381 28.75549,15.80217 C27.7481554,18.1644861 27.7481554,20.8355139 28.75549,23.19783 C29.2405186,24.3281619 29.9402168,25.3536685 30.81581,26.21752 C33.6010497,28.9521579 37.7526072,29.7540729 41.35593,28.25345" id="Shape" stroke-linecap="round" stroke-linejoin="round"></path>
            <path d="M10,31 L21,31" id="Shape" stroke-linecap="round"></path>
            <path d="M10,36 L47,36" id="Shape" stroke-linecap="round"></path>
            <path d="M10,41 L47,41" id="Shape" stroke-linecap="round"></path>
            <path d="M10,46 L21,46" id="Shape" stroke-linecap="round"></path>
        </g>
    </g>
</svg>