<?xml version="1.0" encoding="UTF-8"?>
<svg width="60px" height="60px" viewBox="0 0 60 60" version="1.1" xmlns="http://www.w3.org/2000/svg" xmlns:xlink="http://www.w3.org/1999/xlink">
    <!-- Generator: Sketch 43.2 (39069) - http://www.bohemiancoding.com/sketch -->
    <title>48 -Lock Password- (user, people, group, team)</title>
    <desc>Created with Sketch.</desc>
    <defs></defs>
    <g id="Page-1" stroke="none" stroke-width="1" fill="none" fill-rule="evenodd">
        <g id="Icons" transform="translate(-968.000000, -850.000000)" fill="#dd4f05">
            <g id="48--Lock-Password--(user,-people,-group,-team)" transform="translate(968.000000, 850.000000)">
                <path d="M31,23 L33,23 L33,13 C33,6.935 28.065,2 22,2 C15.935,2 11,6.935 11,13 L11,23 L13,23 L13,13 C13,8.038 17.037,4 22,4 C26.963,4 31,8.038 31,13 L31,23 Z M34,25 L30,25 C29.447,25 29,24.552 29,24 L29,13 C29,9.14 25.859,6 22,6 C18.141,6 15,9.14 15,13 L15,24 C15,24.552 14.553,25 14,25 L10,25 C9.447,25 9,24.552 9,24 L9,13 C9,5.832 14.832,0 22,0 C29.168,0 35,5.832 35,13 L35,24 C35,24.552 34.553,25 34,25 L34,25 Z" id="Fill-366"></path>
                <path d="M2.9492,25 C2.4262,25 2.0002,25.426 2.0002,25.949 L2.0002,57.051 C2.0002,57.574 2.4262,58 2.9492,58 L41.0512,58 C41.5742,58 42.0002,57.574 42.0002,57.051 L42.0002,25.949 C42.0002,25.426 41.5742,25 41.0512,25 L2.9492,25 Z M41.0512,60 L2.9492,60 C1.3232,60 0.0002,58.677 0.0002,57.051 L0.0002,25.949 C0.0002,24.323 1.3232,23 2.9492,23 L41.0512,23 C42.6772,23 44.0002,24.323 44.0002,25.949 L44.0002,57.051 C44.0002,58.677 42.6772,60 41.0512,60 L41.0512,60 Z" id="Fill-367"></path>
                <path d="M43,54 L1,54 C0.447,54 0,53.552 0,53 C0,52.448 0.447,52 1,52 L43,52 C43.553,52 44,52.448 44,53 C44,53.552 43.553,54 43,54" id="Fill-368"></path>
                <path d="M8,38 C7.744,38 7.488,37.902 7.293,37.707 C6.902,37.316 6.902,36.684 7.293,36.293 L11.293,32.293 C11.684,31.902 12.316,31.902 12.707,32.293 C13.098,32.684 13.098,33.316 12.707,33.707 L8.707,37.707 C8.512,37.902 8.256,38 8,38" id="Fill-370"></path>
                <path d="M12,38 C11.744,38 11.488,37.902 11.293,37.707 L7.293,33.707 C6.902,33.316 6.902,32.684 7.293,32.293 C7.684,31.902 8.316,31.902 8.707,32.293 L12.707,36.293 C13.098,36.684 13.098,37.316 12.707,37.707 C12.512,37.902 12.256,38 12,38" id="Fill-371"></path>
                <path d="M16,38 C15.744,38 15.488,37.902 15.293,37.707 C14.902,37.316 14.902,36.684 15.293,36.293 L19.293,32.293 C19.684,31.902 20.316,31.902 20.707,32.293 C21.098,32.684 21.098,33.316 20.707,33.707 L16.707,37.707 C16.512,37.902 16.256,38 16,38" id="Fill-372"></path>
                <path d="M20,38 C19.744,38 19.488,37.902 19.293,37.707 L15.293,33.707 C14.902,33.316 14.902,32.684 15.293,32.293 C15.684,31.902 16.316,31.902 16.707,32.293 L20.707,36.293 C21.098,36.684 21.098,37.316 20.707,37.707 C20.512,37.902 20.256,38 20,38" id="Fill-373"></path>
                <path d="M24,38 C23.744,38 23.488,37.902 23.293,37.707 C22.902,37.316 22.902,36.684 23.293,36.293 L27.293,32.293 C27.684,31.902 28.316,31.902 28.707,32.293 C29.098,32.684 29.098,33.316 28.707,33.707 L24.707,37.707 C24.512,37.902 24.256,38 24,38" id="Fill-374"></path>
                <path d="M28,38 C27.744,38 27.488,37.902 27.293,37.707 L23.293,33.707 C22.902,33.316 22.902,32.684 23.293,32.293 C23.684,31.902 24.316,31.902 24.707,32.293 L28.707,36.293 C29.098,36.684 29.098,37.316 28.707,37.707 C28.512,37.902 28.256,38 28,38" id="Fill-375"></path>
                <path d="M32,38 C31.744,38 31.488,37.902 31.293,37.707 C30.902,37.316 30.902,36.684 31.293,36.293 L35.293,32.293 C35.684,31.902 36.316,31.902 36.707,32.293 C37.098,32.684 37.098,33.316 36.707,33.707 L32.707,37.707 C32.512,37.902 32.256,38 32,38" id="Fill-376"></path>
                <path d="M36,38 C35.744,38 35.488,37.902 35.293,37.707 L31.293,33.707 C30.902,33.316 30.902,32.684 31.293,32.293 C31.684,31.902 32.316,31.902 32.707,32.293 L36.707,36.293 C37.098,36.684 37.098,37.316 36.707,37.707 C36.512,37.902 36.256,38 36,38" id="Fill-377"></path>
                <path d="M36,45 L8,45 C7.447,45 7,44.552 7,44 C7,43.448 7.447,43 8,43 L36,43 C36.553,43 37,43.448 37,44 C37,44.552 36.553,45 36,45" id="Fill-378"></path>
            </g>
        </g>
    </g>
</svg>