<?xml version="1.0" encoding="UTF-8"?>
<svg width="60px" height="60px" viewBox="0 0 60 60" version="1.1" xmlns="http://www.w3.org/2000/svg" xmlns:xlink="http://www.w3.org/1999/xlink">
    <!-- Generator: Sketch 48.2 (47327) - http://www.bohemiancoding.com/sketch -->
    <title>040 - Laptop Password</title>
    <desc>Created with Sketch.</desc>
    <defs></defs>
    <g id="Page-1" stroke="none" stroke-width="1" fill="none" fill-rule="evenodd" stroke-linecap="round" stroke-linejoin="round">
        <g id="040---Laptop-Password" transform="translate(1.000000, 1.000000)" stroke="#dd4f05" stroke-width="1">
            <path d="M58,38 L58,40 C58,42.209139 56.209139,44 54,44 L4,44 C1.790861,44 2.22044605e-16,42.209139 0,40 L0,38 L20.15,38 C20.5690941,37.9866865 20.9509265,38.239412 21.10243,38.63039 C21.3760376,39.4464385 22.1393089,39.9973452 23,40 L35,40 C35.8589663,39.9909884 36.6193464,39.4424859 36.89889,38.63023 C37.0499065,38.2392389 37.4316069,37.9864553 37.85053,38 L58,38 Z" id="Shape"></path>
            <path d="M53,38 L53,2 C53,0.8954305 52.1045695,0 51,0 L7,0 C5.8954305,0 5,0.8954305 5,2 L5,38" id="Shape"></path>
            <path d="M39,4 L48,4 C48.5522847,4 49,4.44771525 49,5 L49,33 C49,33.5522847 48.5522847,34 48,34 L10,34 C9.44771525,34 9,33.5522847 9,33 L9,5 C9,4.44771525 9.44771525,4 10,4 L19,4" id="Shape"></path>
            <circle id="Oval" cx="29" cy="11.00539" r="6.99461"></circle>
            <polyline id="Shape" points="27 12.005 28 13.005 31 10.005"></polyline>
            <path d="M38,18 L42,18 C43.1045695,18 44,18.8954305 44,20 L44,28 C44,29.1045695 43.1045695,30 42,30 L16,30 C14.8954305,30 14,29.1045695 14,28 L14,20 C14,18.8954305 14.8954305,18 16,18 L20,18" id="Shape"></path>
            <path d="M20,22 L20,26" id="Shape"></path>
            <path d="M22,23 L18,25" id="Shape"></path>
            <path d="M18,23 L22,25" id="Shape"></path>
            <path d="M29,22 L29,26" id="Shape"></path>
            <path d="M31,23 L27,25" id="Shape"></path>
            <path d="M27,23 L31,25" id="Shape"></path>
            <path d="M38,22 L38,26" id="Shape"></path>
            <path d="M40,23 L36,25" id="Shape"></path>
            <path d="M36,23 L40,25" id="Shape"></path>
        </g>
    </g>
</svg>