<?xml version="1.0" encoding="UTF-8" standalone="no"?>
<svg width="60px" height="60px" viewBox="0 0 60 60" version="1.1" xmlns="http://www.w3.org/2000/svg" xmlns:xlink="http://www.w3.org/1999/xlink">
    <!-- Generator: Sketch 40.1 (33804) - http://www.bohemiancoding.com/sketch -->
    <title>348 - Edit Profile (interaction, communication, interface, outline)</title>
    <desc>Created with Sketch.</desc>
    <defs></defs>
    <g id="Page-1" stroke="none" stroke-width="1" fill="none" fill-rule="evenodd">
        <g id="Icons" transform="translate(-360.000000, -2959.000000)" stroke-width="1">
            <g id="Edit-Profile" transform="translate(361.000000, 2960.000000)">
                <path d="M30.437,54.563 L29.73,55.27" id="Stroke-104" stroke="#dd4f05" stroke-linecap="round"></path>
                <path d="M38.216,52.441 L30.437,54.563 L32.559,46.784 L47.762,31.581 C48.537,30.806 49.794,30.806 50.569,31.581 L53.419,34.431 C54.194,35.206 54.194,36.463 53.419,37.238 L38.216,52.441 L38.216,52.441 Z" id="Stroke-106" stroke="#dd4f05"></path>
                <path d="M49.872,40.784 L44.216,35.128" id="Stroke-108" stroke="#dd4f05"></path>
                <path d="M32.559,46.784 L38.216,52.441" id="Stroke-110" stroke="#dd4f05"></path>
                <path d="M53,26.5 C53,11.864 41.136,0 26.5,0 C11.864,0 0,11.864 0,26.5 C0,39.602 9.508,50.482 22,52.619" id="Stroke-484" stroke="#dd4f05" stroke-linecap="round"></path>
                <path d="M35.251,29.144 C36.336,28.809 37.136,27.805 37.136,26.614 L37.136,23.068 C37.136,22.288 36.79,21.591 36.25,21.103 L36.25,15.977 C36.25,15.977 37.303,8 26.5,8 C15.697,8 16.75,15.977 16.75,15.977 L16.75,21.103 C16.21,21.591 15.864,22.288 15.864,23.068 L15.864,26.614 C15.864,27.548 16.355,28.37 17.089,28.844 C17.975,32.702 20.295,35.477 20.295,35.477 L20.295,38.717 C20.295,39.899 19.65,40.986 18.612,41.552 L10.705,45.865 C10.241,46.118 9.824,46.429 9.436,46.769 C12.959,49.738 17.264,51.808 22,52.619" id="Stroke-486" stroke="#dd4f05" stroke-linecap="round"></path>
            </g>
        </g>
    </g>
</svg>