<?xml version="1.0" encoding="UTF-8"?>
<svg width="60px" height="60px" viewBox="0 0 60 60" version="1.1" xmlns="http://www.w3.org/2000/svg" xmlns:xlink="http://www.w3.org/1999/xlink">
    <!-- Generator: Sketch 50.2 (55047) - http://www.bohemiancoding.com/sketch -->
    <title>044 - Signed Contract</title>
    <desc>Created with Sketch.</desc>
    <defs></defs>
    <g id="Page-1" stroke="none" stroke-width="1" fill="none" fill-rule="evenodd" stroke-linecap="round" stroke-linejoin="round">
        <g id="044---Signed-Contract" transform="translate(1.000000, 1.000000)" stroke="#dd4f05" stroke-width="1">
            <path d="M51,0 L51,37 C51,38.1045695 50.1045695,39 49,39 L7,39 C5.8954305,39 5,38.1045695 5,37 L5,0 L51,0 Z" id="Shape"></path>
            <path d="M12,23 L44,23" id="Shape"></path>
            <path d="M12,17 L44,17" id="Shape"></path>
            <path d="M12,11 L44,11" id="Shape"></path>
            <path d="M12,5 L44,5" id="Shape"></path>
            <path d="M18,33 C18,33 26,33 25,29.094 C24,25.188 13,33 28,33 C31.4094617,32.8296193 34.7769649,32.1719459 38,31.047" id="Shape"></path>
            <path d="M9.4,57.914 L2.594,55 C2.23264364,54.839598 1.99971419,54.4813571 1.99971419,54.086 C1.99971419,53.6906429 2.23264364,53.332402 2.594,53.172 L9.4,50.086 C9.52813837,50.0291205 9.66680484,49.99982 9.807,50 L52,50 C54.209139,50 56,51.790861 56,54 C56,56.209139 54.209139,58 52,58 L9.807,58 C9.66680484,58.00018 9.52813837,57.9708795 9.4,57.914 Z" id="Shape"></path>
            <path d="M30,46 L49,46 C50.1045695,46 51,46.8954305 51,48 L51,50" id="Shape"></path>
            <path d="M34,50 L34,58" id="Shape"></path>
            <path d="M2,54 L0,54" id="Shape"></path>
            <path d="M10,50 C10,50 13,54 10,58" id="Shape"></path>
            <path d="M17,54 L21,54" id="Shape"></path>
            <path d="M25,54 L29,54" id="Shape"></path>
            <polyline id="Shape" points="31 46 31 46 31 47"></polyline>
        </g>
    </g>
</svg>