<?xml version="1.0" encoding="UTF-8"?>
<svg width="60px" height="60px" viewBox="0 0 60 60" version="1.1" xmlns="http://www.w3.org/2000/svg" xmlns:xlink="http://www.w3.org/1999/xlink">
    <!-- Generator: Sketch 41.1 (35376) - http://www.bohemiancoding.com/sketch -->
    <title>98 -Savings- (business, finance, marketing)</title>
    <desc>Created with Sketch.</desc>
    <defs></defs>
    <g id="Page-1" stroke="none" stroke-width="1" fill="none" fill-rule="evenodd">
        <g id="Icons" transform="translate(-959.000000, -1428.000000)" fill="#dd4f05">
            <g id="98--Savings--(business,-finance,-marketing)" transform="translate(959.000000, 1428.000000)">
                <path d="M14.0003,14 C13.7513,14 13.0003,15.064 13.0003,17 C13.0003,18.936 13.7513,20 14.0003,20 C14.2493,20 15.0003,18.936 15.0003,17 C15.0003,15.064 14.2493,14 14.0003,14 M14.0003,22 C12.2903,22 11.0003,19.851 11.0003,17 C11.0003,14.149 12.2903,12 14.0003,12 C15.7103,12 17.0003,14.149 17.0003,17 C17.0003,19.851 15.7103,22 14.0003,22" id="Fill-1095"></path>
                <path d="M55.0013,13.9131 C54.4483,13.9131 54.0013,13.4661 54.0013,12.9131 C54.0013,10.1581 56.1973,8.0001 59.0003,8.0001 C59.5533,8.0001 60.0003,8.4471 60.0003,9.0001 C60.0003,9.5531 59.5533,10.0001 59.0003,10.0001 C57.3183,10.0001 56.0013,11.2791 56.0013,12.9131 C56.0013,13.4661 55.5543,13.9131 55.0013,13.9131" id="Fill-1096"></path>
                <path d="M33,51 L55,51 L55,47 L33,47 L33,51 Z M56,53 L32,53 C31.448,53 31,52.553 31,52 L31,46 C31,45.447 31.448,45 32,45 L56,45 C56.553,45 57,45.447 57,46 L57,52 C57,52.553 56.553,53 56,53 L56,53 Z" id="Fill-1097"></path>
                <path d="M36,45 L58,45 L58,41 L36,41 L36,45 Z M59,47 L35,47 C34.448,47 34,46.553 34,46 L34,40 C34,39.447 34.448,39 35,39 L59,39 C59.553,39 60,39.447 60,40 L60,46 C60,46.553 59.553,47 59,47 L59,47 Z" id="Fill-1098"></path>
                <path d="M41.0003,47 C40.4473,47 40.0003,46.553 40.0003,46 L40.0003,40 C40.0003,39.447 40.4473,39 41.0003,39 C41.5533,39 42.0003,39.447 42.0003,40 L42.0003,46 C42.0003,46.553 41.5533,47 41.0003,47" id="Fill-1099"></path>
                <path d="M47.0003,47 C46.4473,47 46.0003,46.553 46.0003,46 L46.0003,40 C46.0003,39.447 46.4473,39 47.0003,39 C47.5533,39 48.0003,39.447 48.0003,40 L48.0003,46 C48.0003,46.553 47.5533,47 47.0003,47" id="Fill-1100"></path>
                <path d="M53.0003,47 C52.4473,47 52.0003,46.553 52.0003,46 L52.0003,40 C52.0003,39.447 52.4473,39 53.0003,39 C53.5533,39 54.0003,39.447 54.0003,40 L54.0003,46 C54.0003,46.553 53.5533,47 53.0003,47" id="Fill-1101"></path>
                <path d="M38.0003,53 C37.4473,53 37.0003,52.553 37.0003,52 L37.0003,46 C37.0003,45.447 37.4473,45 38.0003,45 C38.5533,45 39.0003,45.447 39.0003,46 L39.0003,52 C39.0003,52.553 38.5533,53 38.0003,53" id="Fill-1102"></path>
                <path d="M44.0003,53 C43.4473,53 43.0003,52.553 43.0003,52 L43.0003,46 C43.0003,45.447 43.4473,45 44.0003,45 C44.5533,45 45.0003,45.447 45.0003,46 L45.0003,52 C45.0003,52.553 44.5533,53 44.0003,53" id="Fill-1103"></path>
                <path d="M50.0003,53 C49.4473,53 49.0003,52.553 49.0003,52 L49.0003,46 C49.0003,45.447 49.4473,45 50.0003,45 C50.5533,45 51.0003,45.447 51.0003,46 L51.0003,52 C51.0003,52.553 50.5533,53 50.0003,53" id="Fill-1104"></path>
                <path d="M46.0003,15 C39.3833,15 34.0003,20.383 34.0003,27 C34.0003,33.617 39.3833,39 46.0003,39 C52.6173,39 58.0003,33.617 58.0003,27 C58.0003,20.383 52.6173,15 46.0003,15 M46.0003,41 C38.2803,41 32.0003,34.72 32.0003,27 C32.0003,19.28 38.2803,13 46.0003,13 C53.7203,13 60.0003,19.28 60.0003,27 C60.0003,34.72 53.7203,41 46.0003,41" id="Fill-1105"></path>
                <path d="M42.9075,19.5469 C42.5005,19.5469 42.1175,19.2969 41.9695,18.8929 C41.7785,18.3739 42.0445,17.7989 42.5615,17.6089 C43.1825,17.3799 43.8325,17.2129 44.4905,17.1119 C45.0455,17.0279 45.5475,17.4029 45.6305,17.9489 C45.7145,18.4949 45.3395,19.0059 44.7935,19.0889 C44.2665,19.1699 43.7485,19.3029 43.2535,19.4849 C43.1385,19.5269 43.0225,19.5469 42.9075,19.5469 M50.6735,20.3109 C50.4955,20.3109 50.3155,20.2639 50.1535,20.1639 C49.6985,19.8869 49.2165,19.6549 48.7195,19.4759 C48.2005,19.2869 47.9315,18.7139 48.1195,18.1939 C48.3075,17.6759 48.8795,17.4049 49.4005,17.5949 C50.0225,17.8199 50.6265,18.1099 51.1945,18.4569 C51.6665,18.7439 51.8155,19.3599 51.5275,19.8309 C51.3395,20.1399 51.0105,20.3109 50.6735,20.3109 M38.1995,23.5129 C38.0295,23.5129 37.8575,23.4699 37.7005,23.3789 C37.2215,23.1029 37.0575,22.4909 37.3345,22.0129 C37.6655,21.4399 38.0555,20.8959 38.4945,20.3969 C38.8605,19.9819 39.4925,19.9429 39.9065,20.3069 C40.3205,20.6719 40.3605,21.3039 39.9965,21.7189 C39.6435,22.1179 39.3315,22.5539 39.0665,23.0129 C38.8815,23.3329 38.5455,23.5129 38.1995,23.5129 M54.5245,25.1109 C54.1085,25.1109 53.7205,24.8499 53.5785,24.4339 C53.4075,23.9329 53.1855,23.4449 52.9175,22.9849 C52.6395,22.5069 52.8015,21.8949 53.2785,21.6169 C53.7555,21.3399 54.3675,21.4999 54.6455,21.9789 C54.9805,22.5549 55.2585,23.1629 55.4705,23.7889 C55.6495,24.3129 55.3695,24.8799 54.8465,25.0579 C54.7395,25.0949 54.6315,25.1109 54.5245,25.1109 M37.1365,29.5709 C36.6605,29.5709 36.2385,29.2309 36.1535,28.7449 C36.0535,28.1759 36.0015,27.5889 36.0005,27.0019 L36.0035,26.7579 C36.0185,26.2049 36.4685,25.7929 37.0305,25.7849 C37.5825,25.8009 38.0175,26.2609 38.0035,26.8129 L38.0005,26.9999 C38.0015,27.4709 38.0425,27.9419 38.1225,28.3979 C38.2195,28.9419 37.8555,29.4599 37.3115,29.5559 C37.2535,29.5669 37.1945,29.5709 37.1365,29.5709 M54.3895,31.2599 C54.2685,31.2599 54.1465,31.2379 54.0265,31.1919 C53.5115,30.9909 53.2585,30.4109 53.4585,29.8969 C53.6505,29.4009 53.7945,28.8859 53.8845,28.3649 C53.9765,27.8209 54.4985,27.4569 55.0385,27.5489 C55.5835,27.6429 55.9485,28.1589 55.8545,28.7029 C55.7425,29.3569 55.5635,30.0019 55.3215,30.6229 C55.1685,31.0179 54.7905,31.2599 54.3895,31.2599 M40.2195,34.8949 C39.9935,34.8949 39.7645,34.8179 39.5775,34.6599 C39.0725,34.2349 38.6045,33.7569 38.1895,33.2379 C37.8445,32.8079 37.9135,32.1789 38.3455,31.8329 C38.7775,31.4879 39.4055,31.5569 39.7505,31.9879 C40.0845,32.4039 40.4595,32.7879 40.8645,33.1289 C41.2875,33.4849 41.3425,34.1149 40.9865,34.5379 C40.7895,34.7739 40.5055,34.8949 40.2195,34.8949 M50.3335,35.8879 C49.9805,35.8879 49.6385,35.7009 49.4575,35.3709 C49.1895,34.8879 49.3655,34.2789 49.8485,34.0129 C50.3145,33.7549 50.7565,33.4509 51.1605,33.1089 C51.5805,32.7529 52.2145,32.8039 52.5695,33.2249 C52.9275,33.6459 52.8755,34.2759 52.4535,34.6339 C51.9485,35.0629 51.3975,35.4429 50.8155,35.7629 C50.6625,35.8479 50.4965,35.8879 50.3335,35.8879 M46.0375,36.9999 L46.0005,36.9999 C45.3335,36.9999 44.6685,36.9339 44.0215,36.8039 C43.4795,36.6939 43.1295,36.1669 43.2385,35.6259 C43.3475,35.0849 43.8765,34.7299 44.4165,34.8429 C44.9325,34.9469 45.4665,34.9999 46.0005,34.9999 C46.5535,34.9999 47.0185,35.4469 47.0185,35.9999 C47.0185,36.5529 46.5905,36.9999 46.0375,36.9999" id="Fill-1106"></path>
                <path d="M31.0003,46 C26.8483,46 22.7303,45.236 19.0003,43.783 L19.0003,45 C19.0003,45.553 18.5533,46 18.0003,46 L12.0003,46 C11.4473,46 11.0003,45.553 11.0003,45 L11.0003,39.088 C7.6273,36.258 5.2133,32.792 3.9703,29 L1.0003,29 C0.4473,29 0.0003,28.553 0.0003,28 L0.0003,18 C0.0003,17.447 0.4473,17 1.0003,17 L3.9703,17 C7.2493,6.952 18.2363,0 31.0003,0 C45.9493,0 58.2333,9.6 58.9653,21.855 C58.9983,22.407 58.5783,22.88 58.0263,22.913 C57.4703,22.93 57.0013,22.526 56.9693,21.975 C56.3003,10.773 44.8943,2 31.0003,2 C18.8203,2 8.4043,8.692 5.6713,18.274 C5.5483,18.704 5.1553,19 4.7093,19 L2.0003,19 L2.0003,27 L4.7093,27 C5.1553,27 5.5483,27.296 5.6713,27.726 C6.7593,31.541 9.1653,35.037 12.6273,37.837 C12.8233,37.995 12.9523,38.223 12.9883,38.473 C12.9953,38.52 13.0003,38.581 13.0003,38.628 L13.0003,44 L17.0003,44 L17.0003,42.283 C17.0003,41.807 17.3373,41.396 17.8043,41.303 C18.0103,41.26 18.2263,41.286 18.4143,41.37 C22.2473,43.091 26.5993,44 31.0003,44 C32.2623,44 33.5303,43.921 34.8803,43.757 C35.4343,43.692 35.9273,44.081 35.9933,44.63 C36.0603,45.178 35.6693,45.677 35.1203,45.743 C33.6903,45.916 32.3433,46 31.0003,46" id="Fill-1107"></path>
                <path d="M38.0003,53 C37.4473,53 37.0003,52.553 37.0003,52 L37.0003,46 C37.0003,45.447 37.4473,45 38.0003,45 C38.5533,45 39.0003,45.447 39.0003,46 L39.0003,52 C39.0003,52.553 38.5533,53 38.0003,53" id="Fill-1108"></path>
                <path d="M44.0003,53 C43.4473,53 43.0003,52.553 43.0003,52 L43.0003,46 C43.0003,45.447 43.4473,45 44.0003,45 C44.5533,45 45.0003,45.447 45.0003,46 L45.0003,52 C45.0003,52.553 44.5533,53 44.0003,53" id="Fill-1109"></path>
                <path d="M50.0003,53 C49.4473,53 49.0003,52.553 49.0003,52 L49.0003,46 C49.0003,45.447 49.4473,45 50.0003,45 C50.5533,45 51.0003,45.447 51.0003,46 L51.0003,52 C51.0003,52.553 50.5533,53 50.0003,53" id="Fill-1110"></path>
            </g>
        </g>
    </g>
</svg>