<?xml version="1.0" encoding="UTF-8"?>
<svg width="60px" height="60px" viewBox="0 0 60 60" version="1.1" xmlns="http://www.w3.org/2000/svg" xmlns:xlink="http://www.w3.org/1999/xlink">
    <!-- Generator: Sketch 41.1 (35376) - http://www.bohemiancoding.com/sketch -->
    <title>96 -Savings- (business, finance, marketing)</title>
    <desc>Created with Sketch.</desc>
    <defs></defs>
    <g id="Page-1" stroke="none" stroke-width="1" fill="none" fill-rule="evenodd">
        <g id="Icons" transform="translate(-719.000000, -1427.000000)" fill="#dd4f05">
            <g id="96--Savings--(business,-finance,-marketing)" transform="translate(719.000000, 1427.000000)">
                <path d="M45.0003,54 L49.0003,54 L49.0003,48.628 C49.0003,48.326 49.1373,48.04 49.3723,47.85 C54.2913,43.878 57.0003,38.604 57.0003,33 C57.0003,21.421 45.3373,12 31.0003,12 C18.8203,12 8.4043,18.692 5.6713,28.274 C5.5483,28.704 5.1553,29 4.7093,29 L2.0003,29 L2.0003,37 L4.7093,37 C5.1553,37 5.5483,37.296 5.6713,37.726 C6.7603,41.541 9.1643,45.038 12.6263,47.837 C12.8043,47.98 12.9273,48.181 12.9753,48.404 C12.9893,48.474 13.0003,48.558 13.0003,48.628 L13.0003,54 L17.0003,54 L17.0003,52.283 C17.0003,51.807 17.3373,51.396 17.8043,51.303 C18.0093,51.261 18.2253,51.285 18.4143,51.37 C22.2473,53.091 26.5993,54 31.0003,54 C35.4033,54 39.7583,53.091 43.5913,51.371 C43.9013,51.23 44.2593,51.259 44.5433,51.443 C44.8283,51.628 45.0003,51.944 45.0003,52.283 L45.0003,54 Z M50.0003,56 L44.0003,56 C43.4473,56 43.0003,55.553 43.0003,55 L43.0003,53.785 C35.5403,56.688 26.4623,56.69 19.0003,53.783 L19.0003,55 C19.0003,55.553 18.5533,56 18.0003,56 L12.0003,56 C11.4473,56 11.0003,55.553 11.0003,55 L11.0003,49.089 C7.6283,46.26 5.2133,42.793 3.9703,39 L1.0003,39 C0.4473,39 0.0003,38.553 0.0003,38 L0.0003,28 C0.0003,27.447 0.4473,27 1.0003,27 L3.9703,27 C7.2493,16.952 18.2363,10 31.0003,10 C46.4393,10 59.0003,20.317 59.0003,33 C59.0003,39.076 56.1633,44.776 51.0003,49.101 L51.0003,55 C51.0003,55.553 50.5533,56 50.0003,56 L50.0003,56 Z" id="Fill-1084"></path>
                <path d="M14.0003,24 C13.7513,24 13.0003,25.064 13.0003,27 C13.0003,28.936 13.7513,30 14.0003,30 C14.2493,30 15.0003,28.936 15.0003,27 C15.0003,25.064 14.2493,24 14.0003,24 M14.0003,32 C12.2903,32 11.0003,29.851 11.0003,27 C11.0003,24.149 12.2903,22 14.0003,22 C15.7103,22 17.0003,24.149 17.0003,27 C17.0003,29.851 15.7103,32 14.0003,32" id="Fill-1085"></path>
                <path d="M55.0013,23.9131 C54.4483,23.9131 54.0013,23.4661 54.0013,22.9131 C54.0013,20.1581 56.1973,18.0001 59.0003,18.0001 C59.5533,18.0001 60.0003,18.4471 60.0003,19.0001 C60.0003,19.5531 59.5533,20.0001 59.0003,20.0001 C57.3183,20.0001 56.0013,21.2791 56.0013,22.9131 C56.0013,23.4661 55.5543,23.9131 55.0013,23.9131" id="Fill-1086"></path>
                <path d="M21.1292,13.5361 C20.6442,13.5361 20.2182,13.1821 20.1422,12.6881 C20.0452,12.0591 20.0002,11.5231 20.0002,11.0001 C20.0002,4.9341 24.9352,0.0001 31.0002,0.0001 C37.0662,0.0001 42.0002,4.9341 42.0002,11.0001 C42.0002,11.5201 41.9562,12.0531 41.8602,12.6751 C41.7772,13.2201 41.2762,13.5961 40.7212,13.5121 C40.1752,13.4291 39.8002,12.9181 39.8842,12.3721 C39.9632,11.8521 40.0002,11.4171 40.0002,11.0001 C40.0002,6.0371 35.9632,2.0001 31.0002,2.0001 C26.0372,2.0001 22.0002,6.0371 22.0002,11.0001 C22.0002,11.4191 22.0372,11.8591 22.1182,12.3841 C22.2022,12.9301 21.8282,13.4401 21.2822,13.5241 C21.2312,13.5321 21.1792,13.5361 21.1292,13.5361" id="Fill-1087"></path>
                <path d="M36.973,12.5469 C36.912,12.5469 36.852,12.5409 36.791,12.5299 C36.474,12.4719 36.156,12.4189 35.835,12.3689 C35.289,12.2849 34.914,11.7759 34.998,11.2299 C35.075,10.7349 35.5,10.3809 35.986,10.3809 L35.997,10.3809 C36.073,9.9369 36.443,9.5839 36.912,9.5509 C37.455,9.4989 37.942,9.9249 37.981,10.4769 C37.994,10.6499 38,10.8229 38,10.9999 C38,11.2139 37.988,11.4239 37.969,11.6329 C37.945,11.9139 37.803,12.1719 37.578,12.3429 C37.404,12.4769 37.19,12.5469 36.973,12.5469" id="Fill-1088"></path>
                <path d="M27.1028,7.4404 C26.8208,7.4404 26.5408,7.3214 26.3418,7.0894 C25.9838,6.6694 26.0338,6.0394 26.4538,5.6794 C27.0138,5.2014 27.6418,4.8154 28.3188,4.5334 C28.8278,4.3204 29.4138,4.5614 29.6258,5.0714 C29.8388,5.5814 29.5978,6.1674 29.0878,6.3784 C28.6038,6.5814 28.1548,6.8574 27.7518,7.2014 C27.5638,7.3614 27.3328,7.4404 27.1028,7.4404 M34.8998,7.4434 C34.6688,7.4434 34.4378,7.3644 34.2488,7.2034 C33.8478,6.8594 33.3988,6.5834 32.9148,6.3804 C32.4048,6.1694 32.1638,5.5834 32.3758,5.0734 C32.5888,4.5634 33.1768,4.3234 33.6838,4.5354 C34.3618,4.8174 34.9898,5.2044 35.5498,5.6834 C35.9698,6.0434 36.0188,6.6734 35.6598,7.0934 C35.4608,7.3254 35.1808,7.4434 34.8998,7.4434" id="Fill-1089"></path>
                <path d="M25.0286,12.5605 C24.8126,12.5605 24.6006,12.4915 24.4256,12.3595 C24.2026,12.1905 24.0596,11.9345 24.0336,11.6555 C24.0126,11.4395 24.0006,11.2215 24.0006,10.9995 C24.0006,10.8305 24.0076,10.6615 24.0176,10.4945 C24.0556,9.9435 24.5476,9.5395 25.0836,9.5635 C25.5536,9.5955 25.9256,9.9475 26.0026,10.3925 L26.0146,10.3925 C26.4996,10.3925 26.9246,10.7445 27.0026,11.2375 C27.0876,11.7835 26.7146,12.2945 26.1696,12.3805 C25.8476,12.4305 25.5286,12.4855 25.2116,12.5435 C25.1506,12.5545 25.0896,12.5605 25.0286,12.5605" id="Fill-1090"></path>
                <path d="M33.3675,12.085 C33.3435,12.085 33.3185,12.084 33.2945,12.082 C32.9565,12.058 32.6175,12.039 32.2755,12.025 C31.7235,12.004 31.2945,11.539 31.3155,10.987 C31.3375,10.436 31.8025,9.996 32.3535,10.027 C32.7175,10.041 33.0795,10.062 33.4385,10.088 C33.9895,10.128 34.4035,10.606 34.3635,11.157 C34.3255,11.684 33.8875,12.085 33.3675,12.085 M28.6295,12.09 C28.1105,12.09 27.6735,11.69 27.6335,11.165 C27.5915,10.614 28.0045,10.135 28.5555,10.093 C28.9145,10.065 29.2765,10.044 29.6395,10.029 C30.1845,9.995 30.6585,10.435 30.6805,10.986 C30.7045,11.539 30.2755,12.005 29.7235,12.027 C29.3825,12.042 29.0435,12.062 28.7055,12.087 C28.6805,12.089 28.6545,12.09 28.6295,12.09" id="Fill-1091"></path>
            </g>
        </g>
    </g>
</svg>