<?xml version="1.0" encoding="UTF-8" standalone="no"?>
<svg width="60px" height="60px" viewBox="0 0 60 60" version="1.1" xmlns="http://www.w3.org/2000/svg" xmlns:xlink="http://www.w3.org/1999/xlink">
    <!-- Generator: Sketch 40.1 (33804) - http://www.bohemiancoding.com/sketch -->
    <title>169 - Coins (business, finance, marketing, outline)</title>
    <desc>Created with Sketch.</desc>
    <defs></defs>
    <g id="Page-1" stroke="none" stroke-width="1" fill="none" fill-rule="evenodd" stroke-linecap="round">
        <g id="Icons" transform="translate(-240.000000, -357.000000)" stroke="#a7abad" stroke-width="1">
            <g id="Coins" transform="translate(241.000000, 358.000000)">
                <path d="M37.8216739,13.36 C38.6426739,13.186 39.1226739,12.68 38.9456739,12.103 L38.7556739,11.487 C38.6166739,11.034 38.0756739,10.655 37.4126739,10.468 C36.5106739,8.54 34.2116739,7.843 30.7946739,7.843 C30.6336739,7.843 30.4746739,7.846 30.3186739,7.853 C29.1536739,7.901 27.9906739,7.787 27.0826739,7.456 C26.7136739,7.321 26.4116739,7.179 26.2126739,7.033 C26.1226739,6.966 25.9046739,7.009 25.9046739,7.093 C25.9046739,7.239 25.9156739,7.412 25.9476739,7.604 C26.0716739,8.351 25.9236739,8.238 25.1866739,8.983 C24.7576739,9.417 24.4166739,9.916 24.1696739,10.47 C23.5106739,10.658 22.9726739,11.035 22.8336739,11.487 L22.6446739,12.103 C22.4666739,12.68 22.9476739,13.186 23.7676739,13.36 C24.0026739,14.834 25.0046739,16.132 27.1916739,16.845 L27.0716739,17.883 C27.0396739,18.159 26.8006739,18.416 26.4526739,18.541 L22.0416739,20.134 C24.6176739,20.673 27.5536739,21 30.7946739,21 C33.9906739,21 36.8896739,20.683 39.4396739,20.157 L35.1246739,18.544 C34.7836739,18.417 34.5506739,18.163 34.5186739,17.89 L34.3986739,16.845 C36.5856739,16.132 37.5876739,14.834 37.8216739,13.36 L37.8216739,13.36 Z" id="Stroke-66"></path>
                <path d="M32.0416739,50 C17.6826739,50 6.04167392,43.932 6.04167392,37 L6.04167392,45.448 C6.04167392,52.38 17.6826739,58 32.0416739,58 C46.4006739,58 58.0416739,52.38 58.0416739,45.448 L58.0416739,37 C58.0416739,43.932 46.4006739,50 32.0416739,50 L32.0416739,50 Z" id="Stroke-68"></path>
                <path d="M10.0416739,43.815 L10.0416739,52.134" id="Stroke-70"></path>
                <path d="M54.0416739,52.134 L54.0416739,43.815" id="Stroke-72"></path>
                <path d="M14.0416739,46.286 L14.0416739,54.501" id="Stroke-74"></path>
                <path d="M50.0416739,54.501 L50.0416739,46.286" id="Stroke-76"></path>
                <path d="M18.0416739,47.89 L18.0416739,56.022" id="Stroke-78"></path>
                <path d="M46.0416739,56.022 L46.0416739,47.89" id="Stroke-80"></path>
                <path d="M23.0416739,49.171 L23.0416739,57.227" id="Stroke-82"></path>
                <path d="M41.0416739,57.227 L41.0416739,49.171" id="Stroke-84"></path>
                <path d="M29.0416739,49.908 L29.0416739,57.914" id="Stroke-86"></path>
                <path d="M35.0416739,57.914 L35.0416739,49.908" id="Stroke-88"></path>
                <path d="M57.0416739,12 C57.0416739,18.932 45.4006739,25 31.0416739,25 C16.6826739,25 5.04167392,18.932 5.04167392,12 C5.04167392,5.068 16.6826739,0 31.0416739,0 C45.4006739,0 57.0416739,5.068 57.0416739,12 L57.0416739,12 Z" id="Stroke-90"></path>
                <path d="M31.0416739,20.966 C17.3596739,20.966 9.04167392,15.655 9.04167392,12 C9.04167392,8.345 17.3596739,4 31.0416739,4 C44.7236739,4 53.0416739,8.345 53.0416739,12 C53.0416739,15.655 44.7236739,20.966 31.0416739,20.966 L31.0416739,20.966 Z" id="Stroke-92"></path>
                <path d="M31.0416739,25 C16.6826739,25 5.04167392,18.932 5.04167392,12 L5.04167392,20.448 C5.04167392,27.38 16.6826739,33 31.0416739,33 C45.4006739,33 57.0416739,27.38 57.0416739,20.448 L57.0416739,12 C57.0416739,18.932 45.4006739,25 31.0416739,25 L31.0416739,25 Z" id="Stroke-94"></path>
                <path d="M9.04167392,18.815 L9.04167392,27.134" id="Stroke-96"></path>
                <path d="M53.0416739,27.134 L53.0416739,18.815" id="Stroke-98"></path>
                <path d="M13.0416739,21.286 L13.0416739,29.501" id="Stroke-100"></path>
                <path d="M49.0416739,29.501 L49.0416739,21.286" id="Stroke-102"></path>
                <path d="M17.0416739,22.89 L17.0416739,31.022" id="Stroke-104"></path>
                <path d="M45.0416739,31.022 L45.0416739,22.89" id="Stroke-106"></path>
                <path d="M22.0416739,24.171 L22.0416739,32.227" id="Stroke-108"></path>
                <path d="M40.0416739,32.227 L40.0416739,24.171" id="Stroke-110"></path>
                <path d="M28.0416739,24.908 L28.0416739,32.914" id="Stroke-112"></path>
                <path d="M34.0416739,32.914 L34.0416739,24.908" id="Stroke-114"></path>
                <path d="M4.04167392,28.815 L4.04167392,37.134" id="Stroke-116"></path>
                <path d="M48.0416739,37.134 L48.0416739,30" id="Stroke-118"></path>
                <path d="M8.04167392,31.286 L8.04167392,39.501" id="Stroke-120"></path>
                <path d="M44.0416739,39.501 L44.0416739,31.286" id="Stroke-122"></path>
                <path d="M12.0416739,32.89 L12.0416739,41.022" id="Stroke-124"></path>
                <path d="M40.0416739,41.022 L40.0416739,32.89" id="Stroke-126"></path>
                <path d="M17.0416739,34.171 L17.0416739,42.227" id="Stroke-128"></path>
                <path d="M35.0416739,42.227 L35.0416739,34.171" id="Stroke-130"></path>
                <path d="M23.0416739,34.908 L23.0416739,42.914" id="Stroke-132"></path>
                <path d="M29.0416739,42.914 L29.0416739,34.908" id="Stroke-134"></path>
                <path d="M51.3586739,33.302 C48.6816739,38.858 38.3666739,43 26.0416739,43 C21.4376739,43 17.1156739,42.42 13.3646739,41.406 C16.9926739,43.869 23.4496739,45.966 32.0416739,45.966 C45.7236739,45.966 54.0416739,40.655 54.0416739,37 C54.0416739,35.781 53.1026739,34.487 51.3586739,33.302 L51.3586739,33.302 Z" id="Stroke-136"></path>
                <path d="M52.0416739,29.211 L52.0416739,30.448 C52.0416739,37.38 40.4006739,43 26.0416739,43 C18.1146739,43 11.0216739,41.285 6.25367392,38.585 C7.86167392,44.831 18.7896739,50 32.0416739,50 C46.4006739,50 58.0416739,43.932 58.0416739,37 C58.0416739,33.952 55.7856739,31.266 52.0416739,29.211 L52.0416739,29.211 Z" id="Stroke-138"></path>
                <path d="M31.0416739,33 C16.6826739,33 5.04167392,27.38 5.04167392,20.448 L5.04167392,14.796 C1.90067392,16.765 0.0416739178,19.233 0.0416739178,22 C0.0416739178,28.932 11.6826739,35 26.0416739,35 C32.9556739,35 39.2336739,33.591 43.8906739,31.358 C40.0996739,32.401 35.7166739,33 31.0416739,33 L31.0416739,33 Z" id="Stroke-140"></path>
                <path d="M43.8906739,31.358 C39.2336739,33.591 32.9556739,35 26.0416739,35 C11.6826739,35 0.0416739178,28.932 0.0416739178,22 L0.0416739178,30.448 C0.0416739178,37.38 11.6826739,43 26.0416739,43 C40.4006739,43 52.0416739,37.38 52.0416739,30.448 L52.0416739,27.846 C49.8746739,29.277 47.0956739,30.477 43.8906739,31.358 L43.8906739,31.358 Z" id="Stroke-142"></path>
            </g>
        </g>
    </g>
</svg>