<?xml version="1.0" encoding="UTF-8"?>
<svg width="60px" height="60px" viewBox="0 0 60 60" version="1.1" xmlns="http://www.w3.org/2000/svg" xmlns:xlink="http://www.w3.org/1999/xlink">
    <!-- Generator: Sketch 49.3 (51167) - http://www.bohemiancoding.com/sketch -->
    <title>014 - sharing startup</title>
    <desc>Created with Sketch.</desc>
    <defs></defs>
    <g id="Page-1" stroke="none" stroke-width="1" fill="none" fill-rule="evenodd" stroke-linecap="round" stroke-linejoin="round">
        <g id="014---sharing-startup" transform="translate(1.000000, 1.000000)" stroke="#a7abad" stroke-width="1">
            <circle id="Oval" cx="29" cy="16" r="7"></circle>
            <path d="M28.268,23.019 C22.421,23.329 18,27.206 18,32 L18,41 C18,44.12 20.053,46.385 23,48 L23,56 C23,57.1045695 23.8954305,58 25,58 L33,58 C34.1045695,58 35,57.1045695 35,56 L35,48 C37.947,46.385 40,44.12 40,41 L40,32 C40,26.831 34.674,22.68 28.268,23.019 Z" id="Shape"></path>
            <path d="M29,42.667 L29,58" id="Shape"></path>
            <path d="M35,49 L35,36" id="Shape"></path>
            <path d="M23,49 L23,36" id="Shape"></path>
            <circle id="Oval" cx="49" cy="21" r="6"></circle>
            <path d="M48.4,27.017 C43.617,27.291 40,31 40,35.244 L40,43 C40,45.763 41.589,47.57 44,49 L44,56.229 C44.0690963,57.2674676 44.9608023,58.0570732 46,58 L52,58 C53.0391977,58.0570732 53.9309037,57.2674676 54,56.229 L54,49 C56.411,47.57 58,45.763 58,43 L58,34.971 C58,30.393 53.643,26.717 48.4,27.017 Z" id="Shape"></path>
            <path d="M49,46 L49,58" id="Shape"></path>
            <path d="M54,50.4 L54,40" id="Shape"></path>
            <path d="M44,50.4 L44,40" id="Shape"></path>
            <circle id="Oval" cx="9" cy="21" r="6"></circle>
            <path d="M9.6,27.017 C14.383,27.291 18,31 18,35.244 L18,43 C18,45.763 16.411,47.57 14,49 L14,56.229 C13.9309037,57.2674676 13.0391977,58.0570732 12,58 L6,58 C4.9608023,58.0570732 4.06909632,57.2674676 4,56.229 L4,49 C1.589,47.57 0,45.763 0,43 L0,34.971 C0,30.393 4.357,26.717 9.6,27.017 Z" id="Shape"></path>
            <path d="M9,46 L9,58" id="Shape"></path>
            <path d="M4,50.4 L4,40" id="Shape"></path>
            <path d="M14,50.4 L14,40" id="Shape"></path>
            <path d="M35,0 L47,0 C48.1045695,0 49,0.8954305 49,2 L49,11" id="Shape"></path>
            <path d="M9,15 L9,2 C9,0.8954305 9.8954305,2.22044605e-16 11,0 L29,0" id="Shape"></path>
            <path d="M29,5 L29,0" id="Shape"></path>
            <polyline id="Shape" points="27 3 29 5 31 3"></polyline>
            <polyline id="Shape" points="47 9 49 11 51 9"></polyline>
        </g>
    </g>
</svg>