<?xml version="1.0" encoding="UTF-8" standalone="no"?>
<svg width="60px" height="60px" viewBox="0 0 60 60" version="1.1" xmlns="http://www.w3.org/2000/svg" xmlns:xlink="http://www.w3.org/1999/xlink">
    <!-- Generator: Sketch 40.1 (33804) - http://www.bohemiancoding.com/sketch -->
    <title>197 - Up - (arrow, direction, orientation, Outline)</title>
    <desc>Created with Sketch.</desc>
    <defs></defs>
    <g id="Page-1" stroke="none" stroke-width="1" fill="none" fill-rule="evenodd" stroke-linecap="round" stroke-linejoin="round">
        <g id="Icons" transform="translate(-853.000000, -2634.000000)" stroke="#dd4f05" stroke-width="1">
            <g id="197---Up---(arrow,-direction,-orientation,-Outline)" transform="translate(854.000000, 2635.000000)">
                <polygon id="Stroke-113" points="21 34.001 21 34.001 21 22.001 32 22.001 16 0.001 0 22.001 11 22.001 11 34.001"></polygon>
                <path d="M21,40.001 L21,40.001 C21,41.101 20.1,42.001 19,42.001 L13,42.001 C11.9,42.001 11,41.101 11,40.001 L11,40.001 C11,38.901 11.9,38.001 13,38.001 L19,38.001 C20.1,38.001 21,38.901 21,40.001 L21,40.001 Z" id="Stroke-115"></path>
                <path d="M21,48.001 L21,48.001 C21,49.101 20.1,50.001 19,50.001 L13,50.001 C11.9,50.001 11,49.101 11,48.001 L11,48.001 C11,46.901 11.9,46.001 13,46.001 L19,46.001 C20.1,46.001 21,46.901 21,48.001 L21,48.001 Z" id="Stroke-117"></path>
                <path d="M21,56.001 L21,56.001 C21,57.101 20.1,58.001 19,58.001 L13,58.001 C11.9,58.001 11,57.101 11,56.001 L11,56.001 C11,54.901 11.9,54.001 13,54.001 L19,54.001 C20.1,54.001 21,54.901 21,56.001 L21,56.001 Z" id="Stroke-119"></path>
            </g>
        </g>
    </g>
</svg>