<?xml version="1.0" encoding="UTF-8" standalone="no"?>
<svg width="58px" height="60px" viewBox="0 0 58 60" version="1.1" xmlns="http://www.w3.org/2000/svg" xmlns:xlink="http://www.w3.org/1999/xlink">
    <!-- Generator: Sketch 40.1 (33804) - http://www.bohemiancoding.com/sketch -->
    <title>500 - Add Notes (interaction, communication, interface, outline)</title>
    <desc>Created with Sketch.</desc>
    <defs></defs>
    <g id="Page-1" stroke="none" stroke-width="1" fill="none" fill-rule="evenodd">
        <g id="Icons" transform="translate(-122.000000, -1157.000000)" stroke-width="1">
            <g id="Add-Notes" transform="translate(123.000000, 1158.000000)">
                <path d="M56,46 C56,52.627 50.627,58 44,58 C37.373,58 32,52.627 32,46 C32,39.372 37.373,34 44,34 C50.627,34 56,39.372 56,46 L56,46 Z" id="Stroke-976" stroke="#dd4f05"></path>
                <path d="M44,40 L44,52" id="Stroke-978" stroke="#dd4f05" stroke-linecap="round"></path>
                <path d="M50,46 L38,46" id="Stroke-980" stroke="#dd4f05" stroke-linecap="round"></path>
                <polygon id="Stroke-992" stroke="#dd4f05" points="0 0 8 0 8 58 0 58"></polygon>
                <polygon id="Stroke-994" stroke="#dd4f05" points="15 10 37 10 37 22 15 22"></polygon>
                <path d="M19,14 L33,14" id="Stroke-996" stroke="#dd4f05"></path>
                <path d="M19,18 L33,18" id="Stroke-998" stroke="#dd4f05"></path>
                <path d="M32,46 C32,39.372 37.373,34 44,34 L44,0 L0,0 L0,58 L44,58 C37.373,58 32,52.627 32,46 L32,46 Z" id="Stroke-1000" stroke="#dd4f05"></path>
            </g>
        </g>
    </g>
</svg>