<?xml version="1.0" encoding="UTF-8"?>
<svg width="60px" height="60px" viewBox="0 0 60 60" version="1.1" xmlns="http://www.w3.org/2000/svg" xmlns:xlink="http://www.w3.org/1999/xlink">
    <!-- Generator: Sketch 40.3 (33839) - http://www.bohemiancoding.com/sketch -->
    <title>3 -Secure Delivery- (shipping, transport, delivery, outline)</title>
    <desc>Created with Sketch.</desc>
    <defs></defs>
    <g id="Page-1" stroke="none" stroke-width="1" fill="none" fill-rule="evenodd" stroke-linecap="round" stroke-linejoin="round">
        <g id="Delivery-2---Outline" transform="translate(-360.000000, -402.000000)" stroke="#dd4f05" stroke-width="1">
            <g id="3--Secure-Delivery--(shipping,-transport,-delivery,-outline)" transform="translate(361.000000, 403.000000)">
                <path d="M34.6194,14.8167 L29.0004,9.9997 L23.3804,14.8167 C22.8384,15.2817 22.0004,14.8967 22.0004,14.1817 L22.0004,-0.0003 L36.0004,-0.0003 L36.0004,14.1817 C36.0004,14.8967 35.1614,15.2817 34.6194,14.8167 L34.6194,14.8167 Z" id="Stroke-740"></path>
                <path d="M36,2 L36,0 L22,0 L22,2 L4,2 C1.791,2 0,3.791 0,6 L0,54 C0,56.209 1.791,58 4,58 L54,58 C56.209,58 58,56.209 58,54 L58,6 C58,3.791 56.209,2 54,2 L36,2 L36,2 Z" id="Stroke-741"></path>
                <path d="M29,50 C27.54,49.43 26.128,48.614 24.787,47.565 C20.537,44.24 18,38.862 18,33.179 L18,23.968 C23.081,23.323 26.689,21.563 29,20 C31.311,21.563 34.919,23.323 40,23.968 L40,33.179 C40,38.862 37.463,44.24 33.214,47.565 C31.872,48.614 30.46,49.43 29,50 L29,50 Z" id="Stroke-742"></path>
                <path d="M23.6343,39.9976 C22.5793,37.9476 22.0003,35.6016 22.0003,33.1786 L22.0003,27.2996 C23.4703,26.9476 24.8033,26.5166 26.0003,26.0466" id="Stroke-743"></path>
                <path d="M49,54 L54,54" id="Stroke-744"></path>
                <path d="M47,50 L54,50" id="Stroke-745"></path>
            </g>
        </g>
    </g>
</svg>