<?xml version="1.0" encoding="UTF-8"?>
<svg width="60px" height="60px" viewBox="0 0 60 60" version="1.1" xmlns="http://www.w3.org/2000/svg" xmlns:xlink="http://www.w3.org/1999/xlink">
    <!-- Generator: Sketch 49.3 (51167) - http://www.bohemiancoding.com/sketch -->
    <title>038 - Transfer</title>
    <desc>Created with Sketch.</desc>
    <defs></defs>
    <g id="Page-1" stroke="none" stroke-width="1" fill="none" fill-rule="evenodd" stroke-linecap="round" stroke-linejoin="round">
        <g id="038---Transfer" transform="translate(1.000000, 1.000000)" stroke="#dd4f05" stroke-width="1">
            <circle id="Oval" cx="29" cy="10" r="10"></circle>
            <circle id="Oval" cx="29" cy="48" r="10"></circle>
            <g id="Page-1" transform="translate(0.000000, 14.000000)">
                <g id="Icons-2">
                    <g id="User">
                        <path d="M18,20.67186 C18.002864,19.4196456 17.3016697,18.2721078 16.18609,17.70331 L12.27845,15.727 C11.7717099,15.4685765 11.453222,14.947279 11.45455,14.37845 L11.45455,12.82759 C11.585979,12.6737571 11.709412,12.5132686 11.82436,12.34676 C12.3521195,11.5875481 12.7616581,10.7526711 13.039,9.87062 C13.5558761,9.70927929 13.9081968,9.231091 13.90914,8.68962 L13.90914,7.03448 C13.9082014,6.68467885 13.7596219,6.35153166 13.5,6.1171 L13.5,3.7241 C13.5,3.7241 13.98559,0 9,0 C4.014,0 4.5,3.72414 4.5,3.72414 L4.5,6.11714 C4.24039664,6.3515806 4.09183586,6.68472657 4.09091,7.03452 L4.09091,8.6897 C4.09146436,9.11015005 4.30426889,9.50189589 4.65668,9.73121 C4.92715339,10.8557492 5.43130986,11.9107612 6.13636,12.82763 L6.13636,14.34 C6.13753901,14.8897206 5.84000987,15.3966913 5.3595,15.66372 L1.71,17.67724 C0.652228759,18.2648208 -0.00273129815,19.3807502 4.4408921e-16,20.59076 L4.4408921e-16,23.931 C0,25.07352 4.02955,26 9,26 C13.97045,26 18,25.07352 18,23.931 L18,20.67186 Z" id="Path"></path>
                    </g>
                </g>
            </g>
            <g id="Page-1-2" transform="translate(40.000000, 13.000000)">
                <g id="Icons-3">
                    <g id="User-2">
                        <path d="M18,21.84605 C17.9998676,20.6032246 17.2976727,19.4671066 16.18609,18.91123 L11.67509,16.95741 C11.4137322,16.8004765 11.2078095,16.5659567 11.08599,16.2865 C11.0272388,16.1659464 11.0347504,16.0236277 11.1058655,15.9099285 C11.1769806,15.7962293 11.3016623,15.7271967 11.43577,15.72727 L14.61277,15.72727 C15.3122774,15.7846928 16.0159594,15.6912221 16.67622,15.45318 C16.9258917,15.3436185 17.1132076,15.1277827 17.186529,14.8651733 C17.2598504,14.602564 17.2114351,14.3209112 17.05463,14.09786 C16.09204,12.72786 14.10263,9.50173 14.0384,6.17009 C14.0384,6.17009 13.92795,1.04173 8.86831,1 C6.69613619,0.916074459 4.70209271,2.19562761 3.87331,4.20523 C3.53007551,5.01895716 3.33500974,5.88747056 3.29731,6.76982 C3.00422648,9.40382653 2.12225314,11.9381371 0.71673,14.185 C0.456844369,14.6062425 0.586956846,15.1583594 1.00759,15.41923 C1.4796723,15.6719998 2.01608147,15.77918 2.54905,15.72723 L5.80091,15.72723 C5.94334221,15.7271508 6.0702076,15.8172609 6.11704236,15.9517728 C6.16387711,16.0862847 6.12041086,16.2357013 6.00873,16.3241 C5.84986242,16.455405 5.68259716,16.5762049 5.508,16.68573 L1.71,18.88546 C0.655825858,19.4603061 -7.75489935e-05,20.5651389 0,21.76586 L0,24.95455 C0,26.08405 4.02955,27 9,27 C13.97045,27 18,26.084 18,24.95455 L18,21.84605 Z" id="Path-2"></path>
                    </g>
                </g>
            </g>
            <path d="M50.33,39.98 C47.7963688,44.9173666 43.6248716,48.820191 38.53,51.02" id="Shape"></path>
            <path d="M47.8,14.09 C45.3463442,10.9890322 42.1610218,8.5459209 38.53,6.98" id="Shape"></path>
            <path d="M19.47,51.02 C14.3751284,48.820191 10.2036312,44.9173666 7.67,39.98" id="Shape"></path>
            <path d="M19.47,6.98 C15.8445203,8.54590733 12.6631869,10.9851587 10.21,14.08" id="Shape"></path>
            <path d="M19.2,11.99 C16.983404,13.2647499 15.0397152,14.9637785 13.48,16.99" id="Shape"></path>
            <path d="M19.2,46.01 C16.559853,44.4880811 14.3104375,42.3721926 12.63,39.83" id="Shape"></path>
            <path d="M44.2,16.58 C42.6926608,14.7357613 40.8629854,13.1805373 38.8,11.99" id="Shape"></path>
            <path d="M45.37,39.83 C43.6895625,42.3721926 41.440147,44.4880811 38.8,46.01" id="Shape"></path>
        </g>
    </g>
</svg>