<?xml version="1.0" encoding="UTF-8"?>
<svg width="60px" height="60px" viewBox="0 0 60 60" version="1.1" xmlns="http://www.w3.org/2000/svg" xmlns:xlink="http://www.w3.org/1999/xlink">
    <!-- Generator: Sketch 41.1 (35376) - http://www.bohemiancoding.com/sketch -->
    <title>16 -ATM- (business, finance, marketing)</title>
    <desc>Created with Sketch.</desc>
    <defs></defs>
    <g id="Page-1" stroke="#dd4f05" stroke-width="1" fill="none" fill-rule="evenodd">
        <g id="Icons" transform="translate(-719.000000, -465.000000)" fill="#dd4f05">
            <g id="16--ATM--(business,-finance,-marketing)" transform="translate(719.000000, 465.000000)">
                <path d="M7,33 L53,33 L53,7 L7,7 L7,33 Z M54,35 L6,35 C5.448,35 5,34.552 5,34 L5,6 C5,5.448 5.448,5 6,5 L54,5 C54.553,5 55,5.448 55,6 L55,34 C55,34.552 54.553,35 54,35 L54,35 Z" id="Fill-188"></path>
                <path d="M27.0003,28 C26.7353,28 26.4803,27.895 26.2933,27.707 L19.2933,20.707 C18.9023,20.316 18.9023,19.684 19.2933,19.293 C19.6843,18.902 20.3163,18.902 20.7073,19.293 L26.9743,25.559 L39.2683,12.319 C39.6423,11.915 40.2763,11.891 40.6813,12.267 C41.0853,12.643 41.1083,13.276 40.7323,13.681 L27.7323,27.681 C27.5483,27.879 27.2903,27.995 27.0193,28 L27.0003,28 Z" id="Fill-189"></path>
                <path d="M47.0003,39 C44.2433,39 42.0003,41.243 42.0003,44 C42.0003,46.757 44.2433,49 47.0003,49 C49.7573,49 52.0003,46.757 52.0003,44 C52.0003,41.243 49.7573,39 47.0003,39 M47.0003,51 C43.1413,51 40.0003,47.86 40.0003,44 C40.0003,40.14 43.1413,37 47.0003,37 C50.8593,37 54.0003,40.14 54.0003,44 C54.0003,47.86 50.8593,51 47.0003,51" id="Fill-190"></path>
                <path d="M53.0003,45 L41.0003,45 C40.4473,45 40.0003,44.552 40.0003,44 C40.0003,43.448 40.4473,43 41.0003,43 L53.0003,43 C53.5533,43 54.0003,43.448 54.0003,44 C54.0003,44.552 53.5533,45 53.0003,45" id="Fill-191"></path>
                <path d="M14,58 L24,58 L24,40 L14,40 L14,58 Z M25,60 L13,60 C12.448,60 12,59.552 12,59 L12,39 C12,38.448 12.448,38 13,38 L25,38 C25.553,38 26,38.448 26,39 L26,59 C26,59.552 25.553,60 25,60 L25,60 Z" id="Fill-192"></path>
                <path d="M22.0003,44 C21.4473,44 21.0003,43.552 21.0003,43 L21.0003,42 C21.0003,41.448 21.4473,41 22.0003,41 C22.5533,41 23.0003,41.448 23.0003,42 L23.0003,43 C23.0003,43.552 22.5533,44 22.0003,44" id="Fill-193"></path>
                <path d="M16.0003,57 C15.4473,57 15.0003,56.552 15.0003,56 L15.0003,55 C15.0003,54.448 15.4473,54 16.0003,54 C16.5533,54 17.0003,54.448 17.0003,55 L17.0003,56 C17.0003,56.552 16.5533,57 16.0003,57" id="Fill-194"></path>
                <path d="M19.0003,47 C17.8973,47 17.0003,47.897 17.0003,49 C17.0003,50.103 17.8973,51 19.0003,51 C20.1033,51 21.0003,50.103 21.0003,49 C21.0003,47.897 20.1033,47 19.0003,47 M19.0003,53 C16.7943,53 15.0003,51.206 15.0003,49 C15.0003,46.794 16.7943,45 19.0003,45 C21.2063,45 23.0003,46.794 23.0003,49 C23.0003,51.206 21.2063,53 19.0003,53" id="Fill-195"></path>
                <path d="M57.0003,55 L25.0003,55 C24.4473,55 24.0003,54.552 24.0003,54 C24.0003,53.448 24.4473,53 25.0003,53 L57.0003,53 C57.5523,53 58.0003,52.551 58.0003,52 L58.0003,3 C58.0003,2.449 57.5523,2 57.0003,2 L3.0003,2 C2.4483,2 2.0003,2.449 2.0003,3 L2.0003,52 C2.0003,52.551 2.4483,53 3.0003,53 L13.0003,53 C13.5533,53 14.0003,53.448 14.0003,54 C14.0003,54.552 13.5533,55 13.0003,55 L3.0003,55 C1.3463,55 0.0003,53.654 0.0003,52 L0.0003,3 C0.0003,1.346 1.3463,0 3.0003,0 L57.0003,0 C58.6543,0 60.0003,1.346 60.0003,3 L60.0003,52 C60.0003,53.654 58.6543,55 57.0003,55" id="Fill-196"></path>
                <path d="M10,44 L12,44 L12,40 L10,40 L10,44 Z M13,46 L9,46 C8.448,46 8,45.552 8,45 L8,39 C8,38.448 8.448,38 9,38 L13,38 C13.553,38 14,38.448 14,39 L14,45 C14,45.552 13.553,46 13,46 L13,46 Z" id="Fill-197"></path>
                <path d="M26,44 L28,44 L28,40 L26,40 L26,44 Z M29,46 L25,46 C24.448,46 24,45.552 24,45 L24,39 C24,38.448 24.448,38 25,38 L29,38 C29.553,38 30,38.448 30,39 L30,45 C30,45.552 29.553,46 29,46 L29,46 Z" id="Fill-198"></path>
            </g>
        </g>
    </g>
</svg>