<?xml version="1.0" encoding="UTF-8"?>
<svg width="60px" height="60px" viewBox="0 0 60 60" version="1.1" xmlns="http://www.w3.org/2000/svg" xmlns:xlink="http://www.w3.org/1999/xlink">
    <!-- Generator: Sketch 49.3 (51167) - http://www.bohemiancoding.com/sketch -->
    <title>018 - ATM</title>
    <desc>Created with Sketch.</desc>
    <defs></defs>
    <g id="Page-1" stroke="none" stroke-width="1" fill="none" fill-rule="evenodd" stroke-linecap="round" stroke-linejoin="round">
        <g id="018---ATM" transform="translate(1.000000, 1.000000)" stroke="#dd4f05" stroke-width="1">
            <rect id="Rectangle-path" x="0" y="0" width="58" height="58" rx="6"></rect>
            <rect id="Rectangle-path" x="6" y="6" width="46" height="19" rx="3"></rect>
            <path d="M11,10 L20,10" id="Shape"></path>
            <path d="M24,10 L25,10" id="Shape"></path>
            <rect id="Rectangle-path" x="6" y="30" width="22" height="4" rx="2"></rect>
            <path d="M25,34 L25,52 C24.9967707,53.1032291 24.1032291,53.9967707 23,54 L11,54 C9.89677088,53.9967707 9.00322927,53.1032291 9,52 L9,34" id="Shape"></path>
            <path d="M21,54 L21,34" id="Shape"></path>
            <path d="M17,50 L17,40" id="Shape"></path>
            <path d="M13,50 L13,48.5" id="Shape"></path>
            <rect id="Rectangle-path" x="32" y="30" width="4" height="4" rx="1"></rect>
            <rect id="Rectangle-path" x="40" y="30" width="4" height="4" rx="1"></rect>
            <rect id="Rectangle-path" x="48" y="30" width="4" height="4" rx="1"></rect>
            <rect id="Rectangle-path" x="32" y="38" width="4" height="4" rx="1"></rect>
            <rect id="Rectangle-path" x="40" y="38" width="4" height="4" rx="1"></rect>
            <rect id="Rectangle-path" x="48" y="38" width="4" height="4" rx="1"></rect>
            <rect id="Rectangle-path" x="32" y="46" width="4" height="4" rx="1"></rect>
            <rect id="Rectangle-path" x="40" y="46" width="4" height="4" rx="1"></rect>
            <rect id="Rectangle-path" x="48" y="46" width="4" height="4" rx="1"></rect>
        </g>
    </g>
</svg>