<?xml version="1.0" encoding="UTF-8"?>
<svg width="60px" height="60px" viewBox="0 0 60 60" version="1.1" xmlns="http://www.w3.org/2000/svg" xmlns:xlink="http://www.w3.org/1999/xlink">
    <!-- Generator: Sketch 49.3 (51167) - http://www.bohemiancoding.com/sketch -->
    <title>042 - Transfer</title>
    <desc>Created with Sketch.</desc>
    <defs></defs>
    <g id="Page-1" stroke="none" stroke-width="1" fill="none" fill-rule="evenodd" stroke-linecap="round" stroke-linejoin="round">
        <g id="042---Transfer" transform="translate(0.000000, 1.000000)" stroke="#dd4f05" stroke-width="1">
            <path d="M58.93107,17.06 L57.81958,21.2 C57.80979,21.23534 57.78702,21.26293 57.77569,21.2976 C57.7239807,21.4669102 57.6510299,21.6289872 57.55858,21.77996 C57.3439871,22.1110049 57.0339041,22.3690616 56.66939,22.51996 C56.553597,22.5670482 56.4338854,22.6038568 56.31164,22.62996 C56.1935185,22.650257 56.0738622,22.6602944 55.95401,22.65996 C55.666438,22.657534 55.3828202,22.5927079 55.12275,22.46996 C55.09375,22.46996 55.07437,22.44996 55.04535,22.43996 L51.21768,20.31996 C50.2731259,19.7724858 49.924411,18.5801099 50.42513,17.60996 C50.6884351,17.0921607 51.1715272,16.7209895 51.73968,16.59996 C47.0030411,8.80833343 38.5586538,4.03694131 29.44033,4 C18.53725,4 8.84233,10.83 4.73433,21.4 C4.55177613,21.8855081 4.18123879,22.2769433 3.70646643,22.4858338 C3.23169407,22.6947243 2.69276595,22.703436 2.21149,22.51 C1.21297365,22.0673519 0.740067639,20.9169327 1.13859,19.9 C5.84589,7.81 16.952,0 29.44033,0 C40.2565515,0.05139281 50.2145412,5.8990848 55.52864,15.32 C55.9882597,14.6674895 56.8111858,14.3783617 57.57793,14.6 C58.623218,14.9151929 59.2245491,16.008409 58.93107,17.06 Z" id="Shape"></path>
            <path d="M1.06893,40.94 L2.18042,36.8 C2.19021,36.76466 2.21298,36.73707 2.22431,36.7024 C2.27601613,36.533076 2.34896701,36.3709854 2.44142,36.22 C2.65601292,35.8889551 2.96609595,35.6308984 3.33061,35.48 C3.44640298,35.4329118 3.56611459,35.3961032 3.68836,35.37 C3.8064815,35.349703 3.92613783,35.3396656 4.04599,35.34 C4.33356205,35.342426 4.61717978,35.4072521 4.87725,35.53 C4.90625,35.53 4.92563,35.55 4.95465,35.56 L8.78232,37.68 C9.72687406,38.2274742 10.075589,39.4198501 9.57487,40.39 C9.31156488,40.9077993 8.82847276,41.2789705 8.26032,41.4 C12.9969491,49.1916419 21.4413383,53.9630502 30.55967,54 C41.46275,54 51.15767,47.17 55.26572,36.6 C55.4482746,36.1145043 55.8188037,35.7230787 56.2935641,35.5141893 C56.7683246,35.3052999 57.3072399,35.2965799 57.78851,35.49 C58.7870264,35.9326481 59.2599324,37.0830673 58.86141,38.1 C54.15411,50.19 43.048,58 30.55967,58 C19.7434485,57.9486072 9.78545882,52.1009152 4.47136,42.68 C4.01174027,43.3325105 3.18881419,43.6216383 2.42207,43.4 C1.37678198,43.0848071 0.775450929,41.991591 1.06893,40.94 Z" id="Shape"></path>
            <path d="M17,21 L23,21 L23,23 C23,24.1045695 22.1045695,25 21,25 L19,25 C17.8954305,25 17,24.1045695 17,23 L17,21 Z" id="Shape"></path>
            <polyline id="Shape" points="22 24.73 22 34 18 34 18 24.73"></polyline>
            <path d="M27,21 L33,21 L33,23 C33,24.1045695 32.1045695,25 31,25 L29,25 C27.8954305,25 27,24.1045695 27,23 L27,21 Z" id="Shape"></path>
            <polyline id="Shape" points="32 24.73 32 34 28 34 28 24.73"></polyline>
            <path d="M37,21 L43,21 L43,23 C43,24.1045695 42.1045695,25 41,25 L39,25 C37.8954305,25 37,24.1045695 37,23 L37,21 Z" id="Shape"></path>
            <polyline id="Shape" points="42 24.73 42 34 38 34 38 24.73"></polyline>
            <path d="M46,17.76 L46,21 L14,21 L14,17.76 L25.59,10.19 C25.7670309,10.0691791 25.9756918,10.0031032 26.19,10 L33.81,10 C34.0243082,10.0031032 34.2329691,10.0691791 34.41,10.19 L46,17.76 Z" id="Shape"></path>
            <path d="M16,38 L44,38 C45.1045695,38 46,38.8954305 46,40 L46,42 L14,42 L14,40 C14,38.8954305 14.8954305,38 16,38 Z" id="Shape"></path>
            <path d="M18,34 L42,34 C43.1045695,34 44,34.8954305 44,36 L44,38 L16,38 L16,36 C16,34.8954305 16.8954305,34 18,34 Z" id="Shape"></path>
        </g>
    </g>
</svg>