<?xml version="1.0" encoding="UTF-8"?>
<svg width="60px" height="60px" viewBox="0 0 60 60" version="1.1" xmlns="http://www.w3.org/2000/svg" xmlns:xlink="http://www.w3.org/1999/xlink">
    <!-- Generator: Sketch 49.3 (51167) - http://www.bohemiancoding.com/sketch -->
    <title>041 - Donation</title>
    <desc>Created with Sketch.</desc>
    <defs></defs>
    <g id="Page-1" stroke="none" stroke-width="1" fill="none" fill-rule="evenodd" stroke-linecap="round" stroke-linejoin="round">
        <g id="041---Donation" transform="translate(1.000000, 0.000000)" stroke="#dd4f05" stroke-width="1">
            <path d="M25.02,15 C23.7125277,13.4660993 22.9961331,11.5155198 23,9.5 C23,9.33 23,9.17 23.01,9 C23.2424145,4.98956664 26.2500666,1.68906676 30.2217182,1.08609433 C34.1933698,0.483121903 38.0450779,2.74224014 39.4573054,6.50298549 C40.869533,10.2637308 39.4568549,14.4997208 36.07,16.66" id="Shape"></path>
            <path d="M23,9 C17.22,11.48 8,16.06 8,20.08 L8,26 C8,31 25,31 25,31 L28,31 C29.1012677,30.9920691 29.9920691,30.1012677 30,29 C29.9967707,27.8967709 29.1032291,27.0032293 28,27 L30,27 C31.1012677,26.9920691 31.9920691,26.1012677 32,25 C31.9967707,23.8967709 31.1032291,23.0032293 30,23 L32,23 C33.1012677,22.9920691 33.9920691,22.1012677 34,21 C33.9967707,19.8967709 33.1032291,19.0032293 32,19 L34.11,19 C34.6405839,19.0027896 35.1495196,18.7898307 35.52,18.41 C35.7383666,18.2025528 35.9030869,17.9451774 36,17.66 C36.0944713,17.3907077 36.1286098,17.1039448 36.1,16.82 C35.9751733,15.7619825 35.0650181,14.9731813 34,15 L23,15" id="Shape"></path>
            <path d="M32,19 L27,19" id="Shape"></path>
            <path d="M30,23 L27,23" id="Shape"></path>
            <path d="M30,27 L27,27" id="Shape"></path>
            <rect id="Rectangle-path" x="0" y="17" width="8" height="12" rx="1"></rect>
            <rect id="Rectangle-path" transform="translate(53.999210, 40.000000) rotate(-180.000000) translate(-53.999210, -40.000000) " x="49.99921" y="34" width="8" height="12" rx="1"></rect>
            <path d="M49.99921,36 L49.99921,45 C49.99921,45 48.92914,47 44.96921,47 L28.67921,47 C27.8801336,46.9974006 27.0975684,46.7723265 26.41921,46.35 L14.80927,39.04 C14.399369,38.7693402 14.117534,38.3432617 14.0288356,37.8601384 C13.9401372,37.377015 14.052243,36.8786114 14.33927,36.48 C14.6510921,36.0438874 15.1530098,35.7836049 15.68912,35.78 C15.8761368,35.7797791 16.0619279,35.8101813 16.23912,35.87 L27.69912,39.82 C27.9497807,39.9075884 28.2136015,39.9515585 28.47912,39.95 L29.89912,39.95 C29.2071801,39.1894008 29.0897163,38.0674186 29.60912,37.18 L29.65904,37.09 C30.2076494,36.1389768 31.2212871,35.5521692 32.3192,35.55 L35.5592,35.55 C36.84883,35.5463406 38.0969458,35.093766 39.0892,34.27 C40.0830797,33.4502739 41.3308987,33.0013431 42.61921,33 L42.99921,33 C42.99921,33 47.99921,33 49.99921,36 Z" id="Shape"></path>
            <path d="M37.52921,41.23 L37.07921,40.92 C36.170996,40.2916395 35.0936003,39.9534279 33.98921,39.95 L29.89921,39.95" id="Shape"></path>
            <path d="M29,15 L31,15 C32.1045695,15 33,14.1045695 33,13 C33,11.8954305 32.1045695,11 31,11 C29.8954305,11 29,10.1045695 29,9 C29,7.8954305 29.8954305,7 31,7 L33,7" id="Shape"></path>
            <path d="M31,7 L31,5" id="Shape"></path>
        </g>
    </g>
</svg>