<?xml version="1.0" encoding="UTF-8"?>
<svg width="60px" height="60px" viewBox="0 0 60 60" version="1.1" xmlns="http://www.w3.org/2000/svg" xmlns:xlink="http://www.w3.org/1999/xlink">
    <!-- Generator: Sketch 49.3 (51167) - http://www.bohemiancoding.com/sketch -->
    <title>049 - Financial Advise</title>
    <desc>Created with Sketch.</desc>
    <defs></defs>
    <g id="Page-1" stroke="none" stroke-width="1" fill="none" fill-rule="evenodd" stroke-linecap="round" stroke-linejoin="round">
        <g id="049---Financial-Advise" transform="translate(1.000000, 1.000000)" stroke="#dd4f05" stroke-width="1">
            <path d="M58,2.26667 L58,17.73333 C57.9963205,18.98365 56.98365,19.9963205 55.73333,20 L48.8,20 L44.04,26.54415 C43.7474669,26.9347402 43.2377184,27.0941615 42.7747684,26.9398448 C42.3118184,26.7855282 41.9996724,26.352142 42,25.86415 L42,20 L40.26667,20 C39.01635,19.9963205 38.0036795,18.98365 38,17.73333 L38,2.26667 C38.0036577,1.01634091 39.0163409,0.00365765864 40.26667,0 L55.73333,0 C56.9836591,0.00365765864 57.9963423,1.01634091 58,2.26667 Z" id="Shape"></path>
            <g id="Page-1">
                <g id="Icons-2">
                    <g id="User">
                        <path d="M40,46.11415 C40.0085861,43.324382 38.4511274,40.7657227 35.96909,39.492 L27.28545,35.08338 C26.1580069,34.5046915 25.4505918,33.3423577 25.45455,32.07508 L25.45455,28.61538 C25.7466772,28.2721551 26.0209755,27.9141464 26.27636,27.54277 C27.4495551,25.8482404 28.3595579,23.9859256 28.97546,22.01908 C30.125756,21.6568618 30.908368,20.5905978 30.90909,19.38462 L30.90909,15.69231 C30.907335,14.9126663 30.5773372,14.1698054 30,13.64585 L30,8.30769 C30,8.30769 31.07909,0 20,0 C8.92,0 10,8.30769 10,8.30769 L10,13.64585 C9.42266284,14.1698054 9.09266499,14.9126663 9.09091,15.69231 L9.09091,19.38462 C9.09155802,20.3215011 9.5642364,21.1949901 10.34818,21.708 C10.9484781,24.2153049 12.0687216,26.5685664 13.63636,28.61538 L13.63636,31.98923 C13.6398641,33.2140084 12.9790094,34.3443932 11.91,34.94215 L3.8,39.43385 C1.44672375,40.7491577 -0.00803858524,43.2373296 1.11022302e-15,45.93323 L1.11022302e-15,53.38462 C4.4408921e-16,55.93323 8.95455,58 20,58 C31.04545,58 40,55.93323 40,53.38462 L40,46.11415 Z" id="Path"></path>
                    </g>
                </g>
            </g>
            <path d="M25.95,33.84 C22.0097399,36.5517108 16.8519706,36.7235063 12.74,34.28" id="Shape"></path>
            <polyline id="Shape" points="15.12 35.37 17 41 21 41 22.88 35.37"></polyline>
            <polyline id="Shape" points="17 41 14 54 19 58"></polyline>
            <polyline id="Shape" points="21 41 24 54 19 58"></polyline>
            <polyline id="Shape" points="12.38 34.61 8 46 11.45 57.55"></polyline>
            <polyline id="Shape" points="27.52 57.66 31 46 26.63 34.63"></polyline>
            <path d="M46,14 L48,14 C49.1045695,14 50,13.1045695 50,12 C50,10.8954305 49.1045695,10 48,10 C46.8954305,10 46,9.1045695 46,8 C46,6.8954305 46.8954305,6 48,6 L50,6" id="Shape"></path>
            <path d="M48,16 L48,14" id="Shape"></path>
            <path d="M48,6 L48,4" id="Shape"></path>
        </g>
    </g>
</svg>