<?xml version="1.0" encoding="UTF-8"?>
<svg width="60px" height="60px" viewBox="0 0 60 60" version="1.1" xmlns="http://www.w3.org/2000/svg" xmlns:xlink="http://www.w3.org/1999/xlink">
    <!-- Generator: Sketch 49.3 (51167) - http://www.bohemiancoding.com/sketch -->
    <title>091 - Wallet</title>
    <desc>Created with Sketch.</desc>
    <defs></defs>
    <g id="Page-1" stroke="none" stroke-width="1" fill="none" fill-rule="evenodd" stroke-linecap="round" stroke-linejoin="round">
        <g id="091---Wallet" transform="translate(1.000000, 1.000000)" stroke="#dd4f05" stroke-width="1">
            <path d="M56,45 L56,53 C55.9989955,55.7610076 53.7610076,57.9989955 51,58 L5,58 C2.23899242,57.9989955 0.00100445843,55.7610076 0,53 L0,24 C0.00100445843,21.2389924 2.23899242,19.0010045 5,19 L51,19 C53.7610076,19.0010045 55.9989955,21.2389924 56,24 L56,31" id="Shape"></path>
            <path d="M47,31 L57,31 C57.5522847,31 58,31.4477153 58,32 L58,44 C58,44.5522847 57.5522847,45 57,45 L47,45 C43.6862915,45 41,42.3137085 41,39 L41,37 C41,33.6862915 43.6862915,31 47,31 Z" id="Shape"></path>
            <circle id="Oval" cx="48" cy="38" r="3"></circle>
            <path d="M32.34,19 C32.35,19.01 32.35,19.01 32.35,19 C33.1777512,18.6031671 33.9453269,18.09145 34.63,17.48 C36.7736379,15.5850261 38.0008443,12.8611377 38,10 C38.001636,8.8114946 37.7881975,7.63250105 37.37,6.52 C35.9174786,2.6010352 32.179486,-2.0732019e-06 28,-2.0732019e-06 C23.820514,-2.0732019e-06 20.0825214,2.6010352 18.63,6.52 C18.2118025,7.63250105 17.998364,8.8114946 18,10 C17.9991557,12.8611377 19.2263621,15.5850261 21.37,17.48 C22.0546731,18.09145 22.8222488,18.6031671 23.65,19" id="Shape"></path>
            <path d="M31,14.9999987 L25,14.9999987 C25,14.9999987 26.15909,14.9999987 26.18182,9.32219942 C26.20455,3.64440018 30,5.19288997 30,5.19288997" id="Shape"></path>
            <path d="M25.09091,10 L30,10" id="Shape"></path>
            <path d="M21.37,17.48 C21.180359,18.0073314 20.9426944,18.5161343 20.66,19" id="Shape"></path>
            <path d="M3.48,19.23 C2.50861393,17.6587882 1.99597585,15.8472361 2,14 C1.99800915,10.0644202 4.30574088,6.4940204 7.89496383,4.87962547 C11.4841868,3.26523054 15.6866865,3.90739637 18.63,6.52" id="Shape"></path>
            <path d="M15,18.9999987 L9,18.9999987 C9,18.9999987 10.15909,18.9999987 10.18182,13.3221994 C10.20455,7.64440018 14,9.19288997 14,9.19288997" id="Shape"></path>
            <path d="M9.09091,14 L14,14" id="Shape"></path>
            <path d="M37.37,6.52 C41.0761676,3.23090427 46.6326352,3.15364684 50.4288159,6.3384295 C54.2249967,9.52321216 55.1147861,15.0085176 52.52,19.23" id="Shape"></path>
            <path d="M35.34,19 C35.0573056,18.5161343 34.819641,18.0073314 34.63,17.48" id="Shape"></path>
            <path d="M47,18.9999987 L41,18.9999987 C41,18.9999987 42.15909,18.9999987 42.18182,13.3221994 C42.20455,7.64440018 46,9.19288997 46,9.19288997" id="Shape"></path>
            <path d="M41.09091,14 L46,14" id="Shape"></path>
            <path d="M6,24 L21,24" id="Shape"></path>
            <path d="M25,24 L26,24" id="Shape"></path>
            <path d="M50,53 L35,53" id="Shape"></path>
            <path d="M31,53 L30,53" id="Shape"></path>
        </g>
    </g>
</svg>