<?xml version="1.0" encoding="UTF-8"?>
<svg width="60px" height="60px" viewBox="0 0 60 60" version="1.1" xmlns="http://www.w3.org/2000/svg" xmlns:xlink="http://www.w3.org/1999/xlink">
    <!-- Generator: Sketch 47.1 (45422) - http://www.bohemiancoding.com/sketch -->
    <title>Video Games - Outline - 002 - Alert Box</title>
    <desc>Created with Sketch.</desc>
    <defs></defs>
    <g id="Page-1" stroke="none" stroke-width="1" fill="none" fill-rule="evenodd">
        <g id="Video-Games---Outline---002---Alert-Box" fill-rule="nonzero" fill="#000000">
            <path d="M0,53 C0.00433165023,56.8641976 3.1358024,59.9956683 7,60 L53,60 C56.8641976,59.9956683 59.9956683,56.8641976 60,53 L60,7 C59.9956683,3.1358024 56.8641976,0.00433165023 53,0 L7,0 C3.1358024,0.00433165023 0.00433165023,3.1358024 0,7 L0,53 Z M7,2 L53,2 C55.7600782,2.00324564 57.9967544,4.23992176 58,7 L58,53 C57.9967544,55.7600782 55.7600782,57.9967544 53,58 L7,58 C4.23992176,57.9967544 2.00324564,55.7600782 2,53 L2,7 C2.00324564,4.23992176 4.23992176,2.00324564 7,2 Z" id="Shape"></path>
            <path d="M8.5,12 C10.4329966,12 12,10.4329966 12,8.5 C12,6.56700338 10.4329966,5 8.5,5 C6.56700338,5 5,6.56700338 5,8.5 C5.00234177,10.4320258 6.5679742,11.9976582 8.5,12 Z M8.5,7 C9.32842712,7 10,7.67157288 10,8.5 C10,9.32842712 9.32842712,10 8.5,10 C7.67157288,10 7,9.32842712 7,8.5 C7.00090386,7.67194755 7.67194755,7.00090386 8.5,7 Z" id="Shape"></path>
            <path d="M51.5,12 C53.4329966,12 55,10.4329966 55,8.5 C55,6.56700338 53.4329966,5 51.5,5 C49.5670034,5 48,6.56700338 48,8.5 C48.0023418,10.4320258 49.5679742,11.9976582 51.5,12 Z M51.5,7 C52.3284271,7 53,7.67157288 53,8.5 C53,9.32842712 52.3284271,10 51.5,10 C50.6715729,10 50,9.32842712 50,8.5 C50.0009039,7.67194755 50.6719476,7.00090386 51.5,7 L51.5,7 Z" id="Shape"></path>
            <path d="M8.5,48 C6.56700338,48 5,49.5670034 5,51.5 C5,53.4329966 6.56700338,55 8.5,55 C10.4329966,55 12,53.4329966 12,51.5 C11.9976582,49.5679742 10.4320258,48.0023418 8.5,48 Z M8.5,53 C7.67157288,53 7,52.3284271 7,51.5 C7,50.6715729 7.67157288,50 8.5,50 C9.32842712,50 10,50.6715729 10,51.5 C9.99909614,52.3280524 9.32805245,52.9990961 8.5,53 Z" id="Shape"></path>
            <path d="M51.5,48 C49.5670034,48 48,49.5670034 48,51.5 C48,53.4329966 49.5670034,55 51.5,55 C53.4329966,55 55,53.4329966 55,51.5 C54.9976582,49.5679742 53.4320258,48.0023418 51.5,48 Z M51.5,53 C50.6715729,53 50,52.3284271 50,51.5 C50,50.6715729 50.6715729,50 51.5,50 C52.3284271,50 53,50.6715729 53,51.5 C52.9990961,52.3280524 52.3280524,52.9990961 51.5,53 L51.5,53 Z" id="Shape"></path>
            <path d="M33,42 L27,42 C25.3438951,42.0018077 24.0018077,43.3438951 24,45 L24,49 C24.0018077,50.6561049 25.3438951,51.9981923 27,52 L33,52 C34.6561049,51.9981923 35.9981923,50.6561049 36,49 L36,45 C35.9981923,43.3438951 34.6561049,42.0018077 33,42 Z M34,49 C33.9992838,49.5519878 33.5519878,49.9992838 33,50 L27,50 C26.4480122,49.9992838 26.0007162,49.5519878 26,49 L26,45 C26.0007162,44.4480122 26.4480122,44.0007162 27,44 L33,44 C33.5519878,44.0007162 33.9992838,44.4480122 34,45 L34,49 Z" id="Shape"></path>
            <path d="M23.86963,35.21387 C23.9869209,36.7814118 25.2903844,37.9949164 26.8623,38 L33.1377,38 C34.7096194,37.9949216 36.0130888,36.7814156 36.13038,35.21387 L37.84474,11.21387 C37.9038712,10.3831893 37.6151434,9.5652931 37.0476226,8.95582859 C36.4801017,8.34636409 35.6848326,8.00014875 34.85205,8 L25.14795,8 C24.3151691,8.00015152 23.5199027,8.34636807 22.952384,8.95583225 C22.3848653,9.56529643 22.0961389,10.383191 22.15527,11.21387 L23.86963,35.21387 Z M24.416,10.31836 C24.6045893,10.1143567 24.8701336,9.99885883 25.14795,10 L34.85205,10 C35.1296903,9.99990539 35.3948671,10.1152668 35.5840718,10.3184557 C35.7732766,10.5216446 35.8694684,10.7943608 35.84961,11.07129 L34.13525,35.07129 C34.0963731,35.593907 33.6617589,35.9985289 33.1377,36 L26.8623,36 C26.3382372,35.9985341 25.9036172,35.5939108 25.86474,35.07129 L24.15038,11.07129 C24.1293424,10.7941597 24.2257279,10.520944 24.416,10.31836 Z" id="Shape"></path>
        </g>
    </g>
</svg>