<?xml version="1.0" encoding="UTF-8"?>
<svg width="60px" height="61px" viewBox="0 0 60 60" version="1.1" xmlns="http://www.w3.org/2000/svg" xmlns:xlink="http://www.w3.org/1999/xlink">
    <!-- Generator: Sketch 49.3 (51167) - http://www.bohemiancoding.com/sketch -->
    <title>017 - Wallet </title>
    <desc>Created with Sketch.</desc>
    <defs></defs>
    <g id="Page-1" stroke="none" stroke-width="1" fill="none" fill-rule="evenodd" stroke-linecap="round" stroke-linejoin="round">
        <g id="017---Wallet-" transform="translate(0.000000, 1.000000)" stroke="#dd4f05" stroke-width="2">
            <path d="M41.89,2.67 C55.4180726,8.75189158 62.1762624,24.0615849 57.5544097,38.1554357 C52.9325571,52.2492866 38.4206328,60.5837866 23.9180757,57.4734822 C9.4155187,54.3631777 -0.402405915,40.8107538 1.16168692,26.0611176 C2.72577975,11.3114814 15.1676652,0.119550213 30,0.12 C32.3850218,0.113232512 34.7610662,0.412338522 37.07,1.01 L37.08,1.01" id="Shape"></path>
            <path d="M10,33 L10,42 C10.0032293,43.1032291 10.8967709,43.9967707 12,44 L48,44 C49.1032291,43.9967707 49.9967707,43.1032291 50,42 L50,16 C49.9967707,14.8967709 49.1032291,14.0032293 48,14 L12,14 C10.8967709,14.0032293 10.0032293,14.8967709 10,16 L10,25" id="Shape"></path>
            <rect id="Rectangle-path" x="6" y="25" width="14" height="8" rx="2"></rect>
            <path d="M15,29 L16,29" id="Shape"></path>
            <path d="M15.75,14 L38.26862,0.283 C38.7291065,0.00505194528 39.2841684,-0.0696954405 39.8017772,0.0765374742 C40.319386,0.222770389 40.7532793,0.576913756 41.00025,1.05473 L48.09,14" id="Shape"></path>
            <path d="M19.25,14 L38.11,7.96 C38.6248055,7.79956702 39.1830167,7.85890928 39.6525868,8.12398916 C40.1221568,8.38906904 40.4613757,8.83634057 40.59,9.36 L41.84,14" id="Shape"></path>
        </g>
    </g>
</svg>