<?xml version="1.0" encoding="UTF-8" standalone="no"?>
<svg width="60px" height="44px" viewBox="0 0 60 60" version="1.1" xmlns="http://www.w3.org/2000/svg" xmlns:xlink="http://www.w3.org/1999/xlink">
    <!-- Generator: Sketch 40.1 (33804) - http://www.bohemiancoding.com/sketch -->
    <title>46 -Credit Card- ( shipping, transport, delivery, outline)</title>
    <desc>Created with Sketch.</desc>
    <defs></defs>
    <g id="Page-1" stroke="none" stroke-width="1" fill="none" fill-rule="evenodd" stroke-linecap="round" stroke-linejoin="round">
        <g id="Icons" transform="translate(-720.000000, -868.000000)" stroke="#dd4f05" stroke-width="1">
            <g id="46--Credit-Card--(-shipping,-transport,-delivery,-outline)" transform="translate(721.000000, 869.000000)">
                <path d="M54,42 L4,42 C1.791,42 0,40.209 0,38 L0,4 C0,1.791 1.791,0 4,0 L54,0 C56.209,0 58,1.791 58,4 L58,38 C58,40.209 56.209,42 54,42 L54,42 Z" id="Stroke-452"></path>
                <polygon id="Stroke-453" points="0 14 58 14 58 6 0 6"></polygon>
                <polygon id="Stroke-454" points="34 36 52 36 52 26 34 26"></polygon>
                <path d="M5,21 L13.988,21" id="Stroke-455"></path>
                <path d="M18.0118,21 L26.9998,21" id="Stroke-456"></path>
                <path d="M5,25 L20,25" id="Stroke-457"></path>
                <path d="M24,25 L27,25" id="Stroke-458"></path>
            </g>
        </g>
    </g>
</svg>