<?xml version="1.0" encoding="UTF-8"?>
<svg width="60px" height="60px" viewBox="0 0 60 60" version="1.1" xmlns="http://www.w3.org/2000/svg" xmlns:xlink="http://www.w3.org/1999/xlink">
    <!-- Generator: Sketch 49.3 (51167) - http://www.bohemiancoding.com/sketch -->
    <title>014 - Currency</title>
    <desc>Created with Sketch.</desc>
    <defs></defs>
    <g id="Page-1" stroke="none" stroke-width="1" fill="none" fill-rule="evenodd" stroke-linecap="round" stroke-linejoin="round">
        <g id="014---Currency" stroke="#dd4f05" stroke-width="1">
            <path d="M20,23.0000016 L10,23.0000016 C10,23.0000016 13.59848,23.0000016 13.63636,14.4833007 C13.67424,5.96659979 20,8.28934003 20,8.28934003" id="Shape"></path>
            <path d="M11,16 L19,16" id="Shape"></path>
            <polyline id="Shape" points="48 36 44 41 40 36"></polyline>
            <path d="M45.886,24 C41.467722,24 37.886,20.418278 37.886,16 C37.886,11.581722 41.467722,8 45.886,8" id="Shape"></path>
            <path d="M36,14 L45,14" id="Shape"></path>
            <path d="M36,18 L45,18" id="Shape"></path>
            <path d="M30,21.39 C31.5264094,25.3464087 34.6535913,28.4735906 38.61,30 C42.0796475,31.3333333 45.9203525,31.3333333 49.39,30 C55.8131633,27.5263772 59.7288119,20.9989508 58.8875125,14.1675488 C58.0462131,7.33614691 52.6638531,1.95378687 45.8324512,1.1124875 C39.0010492,0.271188134 32.4736228,4.18683666 30,10.61" id="Shape"></path>
            <path d="M38.61,30 C34.6535913,31.5264094 31.5264094,34.6535913 30,38.61 C28.6666667,42.0796475 28.6666667,45.9203525 30,49.39 C32.4736228,55.8131633 39.0010492,59.7288119 45.8324512,58.8875125 C52.6638531,58.0462131 58.0462131,52.6638531 58.8875125,45.8324512 C59.7288119,39.0010492 55.8131633,32.4736228 49.39,30" id="Shape"></path>
            <path d="M30,38.61 C28.4735906,34.6535913 25.3464087,31.5264094 21.39,30 C17.9203525,28.6666667 14.0796475,28.6666667 10.61,30 C4.18683666,32.4736228 0.271188134,39.0010492 1.1124875,45.8324512 C1.95378687,52.6638531 7.33614691,58.0462131 14.1675488,58.8875125 C20.9989508,59.7288119 27.5263772,55.8131633 30,49.39" id="Shape"></path>
            <path d="M10.61,30 C4.18683666,27.5263772 0.271188134,20.9989508 1.1124875,14.1675488 C1.95378687,7.33614691 7.33614691,1.95378687 14.1675488,1.1124875 C20.9989508,0.271188134 27.5263772,4.18683666 30,10.61 C31.3333333,14.0796475 31.3333333,17.9203525 30,21.39 C28.4735906,25.3464087 25.3464087,28.4735906 21.39,30" id="Shape"></path>
            <path d="M13,50 L16,50 C17.6568542,49.9999999 18.9999999,48.6568542 18.9999999,47 C18.9999999,45.3431458 17.6568542,44.0000001 16,44 C14.3431458,44 13,42.6568542 13,41 C13,39.3431458 14.3431458,38 16,38 L19,38" id="Shape"></path>
            <path d="M16,52 L16,50" id="Shape"></path>
            <path d="M16,38 L16,36" id="Shape"></path>
            <path d="M44,52 L44,41" id="Shape"></path>
            <path d="M41,44 L47,44" id="Shape"></path>
            <path d="M41,48 L47,48" id="Shape"></path>
        </g>
    </g>
</svg>