<?xml version="1.0" encoding="UTF-8"?>
<svg width="60px" height="60px" viewBox="0 0 60 60" version="1.1" xmlns="http://www.w3.org/2000/svg" xmlns:xlink="http://www.w3.org/1999/xlink">
    <!-- Generator: Sketch 49.3 (51167) - http://www.bohemiancoding.com/sketch -->
    <title>034 - Mortgage</title>
    <desc>Created with Sketch.</desc>
    <defs></defs>
    <g id="Page-1" stroke="none" stroke-width="1" fill="none" fill-rule="evenodd" stroke-linecap="round" stroke-linejoin="round">
        <g id="034---Mortgage" transform="translate(1.000000, 1.000000)" stroke="#dd4f05" stroke-width="1">
            <path d="M49,28.54 L49,54 C49,56.209139 47.209139,58 45,58 L11,58 C8.790861,58 7,56.209139 7,54 L7,28.54" id="Shape"></path>
            <path d="M54.87781,30.17961 C54.3161377,30.7412877 53.5543434,31.0568354 52.760015,31.0568354 C51.9656866,31.0568354 51.2038923,30.7412877 50.64222,30.17961 L29.41422,8.95161 C28.6331722,8.17056617 27.3668478,8.17056617 26.5858,8.95161 L5.3578,30.17961 C4.79612731,30.7412907 4.03433083,31.0568404 3.24,31.0568404 C2.44566917,31.0568404 1.68387269,30.7412907 1.1222,30.17961 C0.55975484,29.6171754 0.244141204,28.8541071 0.244966629,28.0586974 C0.245792055,27.2632877 0.562988735,26.5008761 1.1266,25.93961 L26.58872,0.58286 C27.3690928,-0.194285264 28.6309072,-0.194285264 29.41128,0.58286 L54.87341,25.93964 C55.4370121,26.5009049 55.7542029,27.26331 55.7550283,28.0587124 C55.7558538,28.8541147 55.440246,29.6171766 54.87781,30.17961 Z" id="Shape"></path>
            <path d="M39,42.10526 C38.9418968,48.1390681 34.0340878,52.9998443 28,52.9998443 C21.9659122,52.9998443 17.0581032,48.1390681 17,42.10526 C17.1372656,37.2051968 19.6656705,32.6830265 23.76821,30 L32.23179,30 C36.3343295,32.6830265 38.8627344,37.2051968 39,42.10526 Z" id="Shape"></path>
            <polyline id="Shape" points="24.535 22.855 21 25 23.954 29.999"></polyline>
            <polyline id="Shape" points="31.776 30 35 25 31.351 22.946"></polyline>
            <polyline id="Shape" points="25.36 25 24.54 22.85 23.87 21.08"></polyline>
            <polyline id="Shape" points="32.13 21.08 31.35 22.95 30.49 25"></polyline>
            <path d="M32.13467,21.0796 C30.8272948,20.4888462 29.4292969,20.1238162 28,20 C26.5707031,20.1238162 25.1727052,20.4888462 23.86533,21.0796" id="Shape"></path>
            <path d="M29.94606,46 L23.94614,45.97 C23.94614,45.97 26.1052,45.9808 26.15914,39.73541 C26.21308,33.49002 30,35.21232 30,35.21232" id="Shape"></path>
            <path d="M24.06204,40.97052 L28.97107,40.99506" id="Shape"></path>
        </g>
    </g>
</svg>