<?xml version="1.0" encoding="UTF-8"?>
<svg width="60px" height="62px" viewBox="0 0 60 60" version="1.1" xmlns="http://www.w3.org/2000/svg" xmlns:xlink="http://www.w3.org/1999/xlink">
    <!-- Generator: Sketch 49.3 (51167) - http://www.bohemiancoding.com/sketch -->
    <title>048 - Global Transfer</title>
    <desc>Created with Sketch.</desc>
    <defs></defs>
    <g id="Page-1" stroke="none" stroke-width="1" fill="none" fill-rule="evenodd" stroke-linecap="round" stroke-linejoin="round">
        <g id="048---Global-Transfer" transform="translate(1.000000, 1.000000)" stroke="#dd4f05" stroke-width="1">
            <g id="Page-1" transform="translate(3.000000, 24.000000)">
                <g id="Icons-2">
                    <g id="User">
                        <path d="M12.97,14.02 C9.41294279,16.6747999 4.52924989,16.6584937 0.99,13.98 C1.09694516,13.8942896 1.21064941,13.817372 1.33,13.75 L4.17,12.18 C4.54312487,11.972036 4.77315277,11.5771548 4.77,11.15 L4.77,9.98 C4.2233778,9.26529785 3.83171647,8.44451194 3.62,7.57 C3.34657427,7.39105961 3.18128199,7.08677155 3.18,6.76 L3.18,5.47 C3.18232806,5.1989188 3.29844334,4.94128803 3.5,4.76 L3.5,2.9 C3.5,2.9 3.12,0 7,0 C10.88,0 10.5,2.9 10.5,2.9 L10.5,4.76 C10.7015567,4.94128803 10.8176719,5.1989188 10.82,5.47 L10.82,6.76 C10.8177244,7.18198018 10.5427413,7.55401616 10.14,7.68 C9.92276066,8.36273155 9.60601956,9.0096921 9.2,9.6 C9.09,9.75 8.99,9.88 8.91,9.98 L8.91,11.18 C8.90856413,11.6225994 9.15594633,12.0284609 9.55,12.23 L12.59,13.77 C12.7261174,13.8379953 12.8536775,13.9219164 12.97,14.02 Z" id="Shape"></path>
                    </g>
                </g>
            </g>
            <path d="M20,30 C20,35.5228475 15.5228475,40 10,40 C4.4771525,40 6.66133815e-16,35.5228475 0,30 C-6.66133815e-16,24.4771525 4.4771525,20 10,20 C12.6545464,19.9922065 15.2026162,21.0432721 17.0796721,22.9203279 C18.9567279,24.7973838 20.0077935,27.3454536 20,30 Z" id="Shape"></path>
            <circle id="Oval" cx="48" cy="30" r="10"></circle>
            <path d="M50,34.9999992 L44,34.9999992 C44,34.9999992 46.15909,34.9999992 46.18182,28.7544197 C46.20455,22.5088401 50,24.21218 50,24.21218" id="Shape"></path>
            <path d="M44.09091,30 L49,30" id="Shape"></path>
            <path d="M8.21,20.16 C9.10983293,18.2547817 10.271021,16.4843906 11.66,14.9 C16.0244615,9.8814812 22.3491313,6.99999934 29,6.99999934 C35.6508687,6.99999934 41.9755385,9.8814812 46.34,14.9 C47.728979,16.4843906 48.8901671,18.2547817 49.79,20.16" id="Shape"></path>
            <path d="M49.79,39.84 C48.8901671,41.7452183 47.728979,43.5156094 46.34,45.1 C41.9755385,50.1185188 35.6508687,53.0000007 29,53.0000007 C22.3491313,53.0000007 16.0244615,50.1185188 11.66,45.1 C10.2697279,43.5129211 9.10846038,41.739043 8.21,39.83" id="Shape"></path>
            <path d="M29,7 L29,53" id="Shape"></path>
            <path d="M20,30 L38,30" id="Shape"></path>
            <ellipse id="Oval" cx="29" cy="30" rx="9" ry="23"></ellipse>
            <path d="M46.34,14.9 C43.2157623,16.2244621 39.9197057,17.0998194 36.55,17.5 C34.0473275,17.8351284 31.5250101,18.0021693 29,18 C26.4748302,18.0071364 23.9521758,17.8400732 21.45,17.5 C18.0802943,17.0998194 14.7842377,16.2244621 11.66,14.9 C16.0244864,9.8815236 22.3491469,7.00007268 29,7.00007268 C35.6508531,7.00007268 41.9755136,9.8815236 46.34,14.9 Z" id="Shape"></path>
            <path d="M46.34,45.1 C41.9755332,50.1185097 35.6508654,52.9999849 29,52.9999849 C22.3491346,52.9999849 16.0244668,50.1185097 11.66,45.1 C14.7842287,43.7755116 18.0802891,42.9001534 21.45,42.5 C23.9526725,42.1648716 26.4749899,41.9978307 29,42 C31.5251707,41.9928336 34.0478273,42.159897 36.55,42.5 C39.9197109,42.9001534 43.2157713,43.7755116 46.34,45.1 Z" id="Shape"></path>
            <path d="M58,42.01989 C53.44332,52.034 42.44806,59.09106 29.60263,59.09106 C16.74663,59.09106 5.75137,52.03397 1.19468,42.01045" id="Shape"></path>
            <polyline id="Shape" points="0 45.865 1.186 42 5.286 43.975"></polyline>
            <path d="M0,17.98013 C4.5567,7.96605 15.552,0.909 28.39739,0.909 C41.25339,0.909 52.24864,7.96609 56.80533,17.98962" id="Shape"></path>
            <polyline id="Shape" points="58 14.135 56.814 18 52.714 16.025"></polyline>
        </g>
    </g>
</svg>