<?xml version="1.0" encoding="UTF-8" standalone="no"?>
<svg width="44px" height="44px" viewBox="0 0 44 44" version="1.1" xmlns="http://www.w3.org/2000/svg" xmlns:xlink="http://www.w3.org/1999/xlink">
    <!-- Generator: Sketch 40.1 (33804) - http://www.bohemiancoding.com/sketch -->
    <title>204 - Amazed (emoticon, emoji, face, solid)</title>
    <desc>Created with Sketch.</desc>
    <defs></defs>
    <g id="Page-1" stroke="none" stroke-width="1" fill="none" fill-rule="evenodd">
        <g id="Icons" transform="translate(-849.000000, -561.000000)" fill="#dd4f05">
            <g id="Amazed" transform="translate(849.000000, 561.000000)">
                <path d="M18,16 C18,13.243 15.757,11 13,11 C10.243,11 8,13.243 8,16 C8,18.757 10.243,21 13,21 C15.757,21 18,18.757 18,16 L18,16 Z M10,16 C10,14.343 11.343,13 13,13 C14.657,13 16,14.343 16,16 C16,17.657 14.657,19 13,19 C11.343,19 10,17.657 10,16 L10,16 Z" id="Fill-45"></path>
                <path d="M22,0 C9.869,0 0,9.869 0,22 C0,34.131 9.869,44 22,44 C34.131,44 44,34.131 44,22 C44,9.869 34.131,0 22,0 L22,0 Z M6,16 C6,12.14 9.141,9 13,9 C16.859,9 20,12.14 20,16 C20,19.86 16.859,23 13,23 C9.141,23 6,19.86 6,16 L6,16 Z M22,40 C15.383,40 10,34.617 10,28 C10,27.448 10.447,27 11,27 L33,27 C33.553,27 34,27.448 34,28 C34,34.617 28.617,40 22,40 L22,40 Z M31,23 C27.141,23 24,19.86 24,16 C24,12.14 27.141,9 31,9 C34.859,9 38,12.14 38,16 C38,19.86 34.859,23 31,23 L31,23 Z" id="Fill-46"></path>
                <path d="M31,11 C28.243,11 26,13.243 26,16 C26,18.757 28.243,21 31,21 C33.757,21 36,18.757 36,16 C36,13.243 33.757,11 31,11 L31,11 Z M31,19 C29.343,19 28,17.657 28,16 C28,14.343 29.343,13 31,13 C32.657,13 34,14.343 34,16 C34,17.657 32.657,19 31,19 L31,19 Z" id="Fill-47"></path>
            </g>
        </g>
    </g>
</svg>