<?xml version="1.0" encoding="UTF-8"?>
<svg width="60px" height="60px" viewBox="0 0 60 60" version="1.1" xmlns="http://www.w3.org/2000/svg" xmlns:xlink="http://www.w3.org/1999/xlink">
    <!-- Generator: Sketch 41.1 (35376) - http://www.bohemiancoding.com/sketch -->
    <title>1 -Blushing- (face, emoticons, emoji)</title>
    <desc>Created with Sketch.</desc>
    <defs></defs>
    <g id="Page-1" stroke="none" stroke-width="1" fill="none" fill-rule="evenodd">
        <g id="Icons" transform="translate(-119.000000, -347.000000)" fill="#dd4f05">
            <g id="1--Blushing--(face,-emoticons,-emoji)" transform="translate(119.000000, 347.000000)">
                <path d="M51.0001,28 C49.8971,28 49.0001,28.897 49.0001,30 C49.0001,31.103 49.8971,32 51.0001,32 C52.1031,32 53.0001,31.103 53.0001,30 C53.0001,28.897 52.1031,28 51.0001,28" id="Fill-20"></path>
                <path d="M51.0001,34 C48.7941,34 47.0001,32.206 47.0001,30 C47.0001,27.794 48.7941,26 51.0001,26 C53.2061,26 55.0001,27.794 55.0001,30 C55.0001,32.206 53.2061,34 51.0001,34 M46.0001,22 C45.4481,22 45.0001,21.552 45.0001,21 C45.0001,19.346 43.6541,18 42.0001,18 C40.3461,18 39.0001,19.346 39.0001,21 C39.0001,21.552 38.5521,22 38.0001,22 C37.4481,22 37.0001,21.552 37.0001,21 C37.0001,18.243 39.2431,16 42.0001,16 C44.7571,16 47.0001,18.243 47.0001,21 C47.0001,21.552 46.5521,22 46.0001,22 M45.7961,38.557 C42.2551,43.844 36.3511,47 30.0001,47 C23.6491,47 17.7451,43.844 14.2041,38.557 C13.8971,38.098 14.0201,37.477 14.4791,37.169 C14.9371,36.862 15.5591,36.985 15.8661,37.443 C19.0351,42.175 24.3181,45 30.0001,45 C35.6821,45 40.9651,42.175 44.1341,37.443 C44.4411,36.984 45.0631,36.862 45.5211,37.169 C45.9801,37.477 46.1031,38.098 45.7961,38.557 M13.0001,21 C13.0001,18.243 15.2431,16 18.0001,16 C20.7571,16 23.0001,18.243 23.0001,21 C23.0001,21.552 22.5521,22 22.0001,22 C21.4481,22 21.0001,21.552 21.0001,21 C21.0001,19.346 19.6541,18 18.0001,18 C16.3461,18 15.0001,19.346 15.0001,21 C15.0001,21.552 14.5521,22 14.0001,22 C13.4481,22 13.0001,21.552 13.0001,21 M9.0001,34 C6.7941,34 5.0001,32.206 5.0001,30 C5.0001,27.794 6.7941,26 9.0001,26 C11.2061,26 13.0001,27.794 13.0001,30 C13.0001,32.206 11.2061,34 9.0001,34 M30.0001,0 C13.4581,0 0.0001,13.458 0.0001,30 C0.0001,46.542 13.4581,60 30.0001,60 C46.5421,60 60.0001,46.542 60.0001,30 C60.0001,13.458 46.5421,0 30.0001,0" id="Fill-22"></path>
                <path d="M9.0001,28 C7.8971,28 7.0001,28.897 7.0001,30 C7.0001,31.103 7.8971,32 9.0001,32 C10.1031,32 11.0001,31.103 11.0001,30 C11.0001,28.897 10.1031,28 9.0001,28" id="Fill-24"></path>
            </g>
        </g>
    </g>
</svg>