<?xml version="1.0" encoding="UTF-8"?>
<svg width="60px" height="60px" viewBox="0 0 60 60" version="1.1" xmlns="http://www.w3.org/2000/svg" xmlns:xlink="http://www.w3.org/1999/xlink">
    <!-- Generator: Sketch 41.1 (35376) - http://www.bohemiancoding.com/sketch -->
    <title>37 -Happy- (face, emoticons, emoji)</title>
    <desc>Created with Sketch.</desc>
    <defs></defs>
    <g id="Page-1" stroke="none" stroke-width="1" fill="none" fill-rule="evenodd">
        <g id="Icons" transform="translate(-839.000000, -707.000000)" fill="#000000">
            <g id="37--Happy--(face,-emoticons,-emoji)" transform="translate(839.000000, 707.000000)">
                <path d="M46.4132,15.5166 C46.2262,15.8286 45.8942,16.0006 45.5562,16.0006 C45.3802,16.0006 45.2022,15.9536 45.0402,15.8566 C43.1352,14.7076 40.7672,14.7066 38.8592,15.8556 C38.3872,16.1406 37.7712,15.9886 37.4872,15.5156 C37.2022,15.0426 37.3542,14.4276 37.8282,14.1426 C40.3702,12.6096 43.5292,12.6116 46.0732,14.1436 C46.5462,14.4296 46.6982,15.0436 46.4132,15.5166 M45.7502,25.3076 C44.8012,26.3826 43.4342,26.9996 42.0002,26.9996 C40.5662,26.9996 39.1992,26.3826 38.2492,25.3076 C37.8842,24.8926 37.9232,24.2606 38.3372,23.8956 C38.7522,23.5306 39.3832,23.5696 39.7492,23.9826 C40.3192,24.6296 41.1402,24.9996 42.0002,24.9996 C42.8602,24.9996 43.6812,24.6296 44.2502,23.9836 C44.6152,23.5696 45.2502,23.5316 45.6612,23.8956 C46.0752,24.2606 46.1152,24.8926 45.7502,25.3076 M40.3952,41.7096 C37.6092,44.4756 33.9182,45.9996 30.0002,45.9996 C26.0832,45.9996 22.3922,44.4766 19.6062,41.7106 C19.2152,41.3216 19.2132,40.6876 19.6012,40.2966 C19.9932,39.9046 20.6252,39.9026 21.0172,40.2916 C23.4242,42.6836 26.6142,43.9996 30.0002,43.9996 C33.3862,43.9996 36.5772,42.6826 38.9852,40.2906 C39.3772,39.9006 40.0092,39.9026 40.4002,40.2956 C40.7892,40.6866 40.7872,41.3206 40.3952,41.7096 M14.2522,25.3086 C13.8862,24.8956 13.9252,24.2636 14.3392,23.8976 C14.7532,23.5316 15.3862,23.5706 15.7502,23.9846 C16.3202,24.6296 17.1412,24.9996 18.0002,24.9996 C18.8602,24.9996 19.6812,24.6296 20.2502,23.9836 C20.6152,23.5696 21.2492,23.5316 21.6612,23.8956 C22.0752,24.2606 22.1152,24.8926 21.7502,25.3076 C20.8012,26.3826 19.4342,26.9996 18.0002,26.9996 C16.5672,26.9996 15.2012,26.3836 14.2522,25.3086 M13.4872,15.5156 C13.2022,15.0426 13.3542,14.4276 13.8282,14.1426 C16.3702,12.6096 19.5292,12.6116 22.0732,14.1436 C22.5462,14.4296 22.6982,15.0436 22.4132,15.5166 C22.2262,15.8286 21.8942,16.0006 21.5562,16.0006 C21.3802,16.0006 21.2022,15.9536 21.0402,15.8566 C19.1352,14.7076 16.7672,14.7066 14.8592,15.8556 C14.3872,16.1406 13.7712,15.9886 13.4872,15.5156 M30.0002,-0.0004 C13.4582,-0.0004 0.0002,13.4576 0.0002,29.9996 C0.0002,46.5416 13.4582,59.9996 30.0002,59.9996 C46.5422,59.9996 60.0002,46.5416 60.0002,29.9996 C60.0002,13.4576 46.5422,-0.0004 30.0002,-0.0004" id="Fill-142"></path>
            </g>
        </g>
    </g>
</svg>