<?xml version="1.0" encoding="UTF-8"?>
<svg width="60px" height="60px" viewBox="0 0 60 60" version="1.1" xmlns="http://www.w3.org/2000/svg" xmlns:xlink="http://www.w3.org/1999/xlink">
    <!-- Generator: Sketch 41.1 (35376) - http://www.bohemiancoding.com/sketch -->
    <title>3 -Happy- (face, emoticons, emoji)</title>
    <desc>Created with Sketch.</desc>
    <defs></defs>
    <g id="Page-1" stroke="none" stroke-width="1" fill="none" fill-rule="evenodd">
        <g id="Icons" transform="translate(-359.000000, -347.000000)" fill="#000000">
            <g id="3--Happy--(face,-emoticons,-emoji)" transform="translate(359.000000, 347.000000)">
                <path d="M42.0001,17 C40.3461,17 39.0001,18.346 39.0001,20 C39.0001,21.654 40.3461,23 42.0001,23 C43.6541,23 45.0001,21.654 45.0001,20 C45.0001,18.346 43.6541,17 42.0001,17" id="Fill-5"></path>
                <path d="M43.6563,35 L16.3543,35 C16.1813,35 16.0933,35.1 16.0483,35.184 C16.0093,35.257 15.9603,35.404 16.0713,35.567 C19.2243,40.222 24.4313,43 30.0003,43 C35.5723,43 40.7813,40.218 43.9353,35.559 C44.0443,35.398 43.9953,35.252 43.9573,35.18 C43.9133,35.098 43.8263,35 43.6563,35" id="Fill-7"></path>
                <path d="M18.0001,23 C19.6541,23 21.0001,21.654 21.0001,20 C21.0001,18.346 19.6541,17 18.0001,17 C16.3461,17 15.0001,18.346 15.0001,20 C15.0001,21.654 16.3461,23 18.0001,23" id="Fill-9"></path>
                <path d="M42.0001,25 C39.2431,25 37.0001,22.757 37.0001,20 C37.0001,17.243 39.2431,15 42.0001,15 C44.7571,15 47.0001,17.243 47.0001,20 C47.0001,22.757 44.7571,25 42.0001,25 M45.5911,36.679 C42.0651,41.89 36.2371,45 30.0001,45 C23.7671,45 17.9411,41.893 14.4161,36.689 C13.9211,35.959 13.8691,35.023 14.2811,34.247 C14.6891,33.478 15.4831,33 16.3541,33 L43.6561,33 C44.5251,33 45.3171,33.476 45.7241,34.242 C46.1351,35.017 46.0841,35.951 45.5911,36.679 M18.0001,15 C20.7571,15 23.0001,17.243 23.0001,20 C23.0001,22.757 20.7571,25 18.0001,25 C15.2431,25 13.0001,22.757 13.0001,20 C13.0001,17.243 15.2431,15 18.0001,15 M30.0001,0 C13.4581,0 0.0001,13.458 0.0001,30 C0.0001,46.542 13.4581,60 30.0001,60 C46.5421,60 60.0001,46.542 60.0001,30 C60.0001,13.458 46.5421,0 30.0001,0" id="Fill-11"></path>
            </g>
        </g>
    </g>
</svg>