<?xml version="1.0" encoding="UTF-8" standalone="no"?>
<svg width="44px" height="44px" viewBox="0 0 44 44" version="1.1" xmlns="http://www.w3.org/2000/svg" xmlns:xlink="http://www.w3.org/1999/xlink">
    <!-- Generator: Sketch 40.1 (33804) - http://www.bohemiancoding.com/sketch -->
    <title>213 - Impassive (emoticon, emoji, face, solid)</title>
    <desc>Created with Sketch.</desc>
    <defs></defs>
    <g id="Page-1" stroke="none" stroke-width="1" fill="none" fill-rule="evenodd">
        <g id="Icons" transform="translate(-969.000000, -440.000000)" fill="#070707">
            <g id="Impassive" transform="translate(969.000000, 440.000000)">
                <path d="M22,0 C9.869,0 0,9.869 0,22 C0,34.131 9.869,44 22,44 C34.131,44 44,34.131 44,22 C44,9.869 34.131,0 22,0 L22,0 Z M29.5,11 C31.433,11 33,12.567 33,14.5 C33,16.433 31.433,18 29.5,18 C27.567,18 26,16.433 26,14.5 C26,12.567 27.567,11 29.5,11 L29.5,11 Z M13.5,11 C15.433,11 17,12.567 17,14.5 C17,16.433 15.433,18 13.5,18 C11.567,18 10,16.433 10,14.5 C10,12.567 11.567,11 13.5,11 L13.5,11 Z M33,31 L11,31 C10.447,31 10,30.552 10,30 C10,29.448 10.447,29 11,29 L33,29 C33.553,29 34,29.448 34,30 C34,30.552 33.553,31 33,31 L33,31 Z" id="Fill-23"></path>
            </g>
        </g>
    </g>
</svg>