<?xml version="1.0" encoding="UTF-8"?>
<svg width="60px" height="60px" viewBox="0 0 60 60" version="1.1" xmlns="http://www.w3.org/2000/svg" xmlns:xlink="http://www.w3.org/1999/xlink">
    <!-- Generator: Sketch 41.1 (35376) - http://www.bohemiancoding.com/sketch -->
    <title>67 -Happy- (face, emoticons, emoji)</title>
    <desc>Created with Sketch.</desc>
    <defs></defs>
    <g id="Page-1" stroke="none" stroke-width="1" fill="none" fill-rule="evenodd">
        <g id="Icons" transform="translate(-839.000000, -1067.000000)" fill="#dd4f05">
            <g id="67--Happy--(face,-emoticons,-emoji)" transform="translate(839.000000, 1067.000000)">
                <path d="M46.7511,21.6611 C46.3851,22.0761 45.7531,22.1141 45.3391,21.7511 C43.3041,19.9591 39.6301,19.5381 37.7621,21.6611 C37.5681,21.8801 37.2931,22.0001 37.0111,22.0001 C36.9021,22.0001 36.7931,21.9821 36.6871,21.9461 C36.3051,21.8151 36.0381,21.4671 36.0131,21.0631 C35.7661,17.1611 39.1091,13.2431 42.8951,13.0021 C43.4311,12.9701 43.9211,13.3861 43.9561,13.9361 C43.9911,14.4871 43.5731,14.9631 43.0221,14.9981 C40.9961,15.1271 39.0971,16.8051 38.3421,18.8231 C39.2591,18.4191 40.3081,18.2101 41.4161,18.2451 C43.3521,18.2881 45.2631,19.0181 46.6611,20.2491 C47.0751,20.6141 47.1151,21.2461 46.7511,21.6611 M42.8651,36.5011 C40.6811,40.2711 37.1481,42.8181 33.0791,43.6771 L26.4621,50.2451 C25.3311,51.3761 23.8241,52.0001 22.2221,52.0001 C20.6191,52.0001 19.1121,51.3761 17.9801,50.2421 C16.8461,49.1091 16.2221,47.6021 16.2221,46.0001 C16.2221,44.3971 16.8461,42.8901 17.9801,41.7581 L19.8211,39.9161 C18.7911,38.9311 17.8821,37.7901 17.1351,36.5011 C16.8571,36.0231 17.0211,35.4111 17.4991,35.1351 C17.9761,34.8581 18.5881,35.0201 18.8651,35.4991 C21.2241,39.5691 25.3861,42.0001 30.0001,42.0001 C34.6141,42.0001 38.7761,39.5691 41.1351,35.4991 C41.4111,35.0191 42.0231,34.8561 42.5011,35.1351 C42.9801,35.4111 43.1431,36.0231 42.8651,36.5011 M13.0001,17.0001 C13.0001,14.2431 15.2431,12.0001 18.0001,12.0001 C20.7571,12.0001 23.0001,14.2431 23.0001,17.0001 C23.0001,19.7571 20.7571,22.0001 18.0001,22.0001 C15.2431,22.0001 13.0001,19.7571 13.0001,17.0001 M30.0001,0.0001 C13.4581,0.0001 0.0001,13.4581 0.0001,30.0001 C0.0001,46.5421 13.4581,60.0001 30.0001,60.0001 C46.5421,60.0001 60.0001,46.5421 60.0001,30.0001 C60.0001,13.4581 46.5421,0.0001 30.0001,0.0001" id="Fill-282"></path>
                <path d="M21.0001,17 C21.0001,15.346 19.6541,14 18.0001,14 C16.3461,14 15.0001,15.346 15.0001,17 C15.0001,18.654 16.3461,20 18.0001,20 C19.6541,20 21.0001,18.654 21.0001,17" id="Fill-283"></path>
                <path d="M21.3621,41.2034 L19.3941,43.1714 C18.6381,43.9274 18.2221,44.9314 18.2221,46.0004 C18.2221,47.0684 18.6381,48.0724 19.3941,48.8284 C20.9051,50.3394 23.5391,50.3394 25.0511,48.8284 L29.9171,43.9974 C26.7711,43.9804 23.8141,42.9834 21.3621,41.2034" id="Fill-284"></path>
            </g>
        </g>
    </g>
</svg>