<?xml version="1.0" encoding="UTF-8"?>
<svg width="60px" height="60px" viewBox="0 0 60 60" version="1.1" xmlns="http://www.w3.org/2000/svg" xmlns:xlink="http://www.w3.org/1999/xlink">
    <!-- Generator: Sketch 41.1 (35376) - http://www.bohemiancoding.com/sketch -->
    <title>42 -Sad- (face, emoticons, emoji)</title>
    <desc>Created with Sketch.</desc>
    <defs></defs>
    <g id="Page-1" stroke="none" stroke-width="1" fill="none" fill-rule="evenodd">
        <g id="Icons" transform="translate(-239.000000, -827.000000)" fill="#dd4f05">
            <g id="42--Sad--(face,-emoticons,-emoji)" transform="translate(239.000000, 827.000000)">
                <path d="M41.0001,18 C40.1851,18 39.0001,19.948 39.0001,23 C39.0001,26.052 40.1851,28 41.0001,28 C41.8151,28 43.0001,26.052 43.0001,23 C43.0001,19.948 41.8151,18 41.0001,18" id="Fill-174"></path>
                <path d="M19.0001,28 C19.8151,28 21.0001,26.052 21.0001,23 C21.0001,19.948 19.8151,18 19.0001,18 C18.1851,18 17.0001,19.948 17.0001,23 C17.0001,26.052 18.1851,28 19.0001,28" id="Fill-175"></path>
                <path d="M46.0001,16 C42.6911,16 40.0001,13.309 40.0001,10 C40.0001,9.448 40.4481,9 41.0001,9 C41.5521,9 42.0001,9.448 42.0001,10 C42.0001,12.206 43.7941,14 46.0001,14 C46.5521,14 47.0001,14.448 47.0001,15 C47.0001,15.552 46.5521,16 46.0001,16 M41.0001,30 C38.7201,30 37.0001,26.991 37.0001,23 C37.0001,19.009 38.7201,16 41.0001,16 C43.2801,16 45.0001,19.009 45.0001,23 C45.0001,26.991 43.2801,30 41.0001,30 M42.5011,43.865 C42.3431,43.957 42.1711,44 42.0011,44 C41.6561,44 41.3201,43.821 41.1351,43.501 C38.7761,39.43 34.6141,37 30.0001,37 C25.3861,37 21.2241,39.43 18.8651,43.501 C18.5881,43.979 17.9791,44.142 17.4991,43.865 C17.0211,43.588 16.8581,42.977 17.1351,42.499 C19.8551,37.803 24.6641,35 30.0001,35 C35.3361,35 40.1451,37.803 42.8651,42.499 C43.1421,42.977 42.9791,43.588 42.5011,43.865 M19.0001,16 C21.2801,16 23.0001,19.009 23.0001,23 C23.0001,26.991 21.2801,30 19.0001,30 C16.7201,30 15.0001,26.991 15.0001,23 C15.0001,19.009 16.7201,16 19.0001,16 M13.0001,15 C13.0001,14.448 13.4481,14 14.0001,14 C16.2061,14 18.0001,12.206 18.0001,10 C18.0001,9.448 18.4481,9 19.0001,9 C19.5521,9 20.0001,9.448 20.0001,10 C20.0001,13.309 17.3091,16 14.0001,16 C13.4481,16 13.0001,15.552 13.0001,15 M30.0001,0 C13.4581,0 0.0001,13.458 0.0001,30 C0.0001,46.542 13.4581,60 30.0001,60 C46.5421,60 60.0001,46.542 60.0001,30 C60.0001,13.458 46.5421,0 30.0001,0" id="Fill-176"></path>
            </g>
        </g>
    </g>
</svg>