<?xml version="1.0" encoding="UTF-8"?>
<svg width="60px" height="60px" viewBox="0 0 60 60" version="1.1" xmlns="http://www.w3.org/2000/svg" xmlns:xlink="http://www.w3.org/1999/xlink">
    <!-- Generator: Sketch 41.1 (35376) - http://www.bohemiancoding.com/sketch -->
    <title>31 -Sad- (face, emoticons, emoji)</title>
    <desc>Created with Sketch.</desc>
    <defs></defs>
    <g id="Page-1" stroke="none" stroke-width="1" fill="none" fill-rule="evenodd">
        <g id="Icons" transform="translate(-119.000000, -707.000000)" fill="#000000">
            <g id="31--Sad--(face,-emoticons,-emoji)" transform="translate(119.000000, 707.000000)">
                <path d="M24.0001,18 C24.0001,16.883 23.6191,15.861 22.9971,15.028 C22.9821,17.22 21.1961,19 19.0001,19 C16.8041,19 15.0181,17.22 15.0031,15.028 C14.3811,15.861 14.0001,16.883 14.0001,18 C14.0001,20.757 16.2431,23 19.0001,23 C21.7571,23 24.0001,20.757 24.0001,18" id="Fill-166"></path>
                <path d="M39.0001,15 C39.0001,16.103 39.8971,17 41.0001,17 C42.1031,17 43.0001,16.103 43.0001,15 C43.0001,13.897 42.1031,13 41.0001,13 C39.8971,13 39.0001,13.897 39.0001,15" id="Fill-167"></path>
                <path d="M17.0001,15 C17.0001,16.103 17.8971,17 19.0001,17 C20.1031,17 21.0001,16.103 21.0001,15 C21.0001,13.897 20.1031,13 19.0001,13 C17.8971,13 17.0001,13.897 17.0001,15" id="Fill-168"></path>
                <path d="M41.0001,25 C37.1401,25 34.0001,21.86 34.0001,18 C34.0001,14.14 37.1401,11 41.0001,11 C44.8601,11 48.0001,14.14 48.0001,18 C48.0001,21.86 44.8601,25 41.0001,25 M42.5011,44.865 C42.3431,44.957 42.1711,45 42.0011,45 C41.6561,45 41.3201,44.821 41.1351,44.501 C38.7761,40.43 34.6141,38 30.0001,38 C25.3861,38 21.2241,40.43 18.8651,44.501 C18.5881,44.979 17.9791,45.142 17.4991,44.865 C17.0211,44.588 16.8581,43.977 17.1351,43.499 C19.8551,38.803 24.6641,36 30.0001,36 C35.3361,36 40.1451,38.803 42.8651,43.499 C43.1421,43.977 42.9791,44.588 42.5011,44.865 M12.0001,18 C12.0001,14.14 15.1401,11 19.0001,11 C22.8601,11 26.0001,14.14 26.0001,18 C26.0001,21.86 22.8601,25 19.0001,25 C15.1401,25 12.0001,21.86 12.0001,18 M30.0001,0 C13.4581,0 0.0001,13.458 0.0001,30 C0.0001,46.542 13.4581,60 30.0001,60 C46.5421,60 60.0001,46.542 60.0001,30 C60.0001,13.458 46.5421,0 30.0001,0" id="Fill-169"></path>
                <path d="M41.0001,19 C38.8041,19 37.0181,17.22 37.0031,15.028 C36.3811,15.861 36.0001,16.883 36.0001,18 C36.0001,20.757 38.2431,23 41.0001,23 C43.7571,23 46.0001,20.757 46.0001,18 C46.0001,16.883 45.6191,15.861 44.9971,15.028 C44.9821,17.22 43.1961,19 41.0001,19" id="Fill-170"></path>
            </g>
        </g>
    </g>
</svg>