<?xml version="1.0" encoding="UTF-8"?>
<svg width="60px" height="60px" viewBox="0 0 60 60" version="1.1" xmlns="http://www.w3.org/2000/svg" xmlns:xlink="http://www.w3.org/1999/xlink">
    <!-- Generator: Sketch 49.3 (51167) - http://www.bohemiancoding.com/sketch -->
    <title>047 - Contactless </title>
    <desc>Created with Sketch.</desc>
    <defs></defs>
    <g id="Page-1" stroke="none" stroke-width="1" fill="none" fill-rule="evenodd" stroke-linecap="round" stroke-linejoin="round">
        <g id="047---Contactless-" transform="translate(1.000000, 1.000000)" stroke="#dd4f05" stroke-width="1">
            <path d="M51.9999997,30.9999997 L51.9999997,3.99999997 C52.0002916,2.93904456 51.578958,1.92145932 50.8287492,1.17125053 C50.0785404,0.421041742 49.0609551,-0.000291883155 47.9999997,-2.12970269e-15 L3.99999998,-2.12970269e-15 C2.93904457,-0.000291883155 1.92145933,0.421041742 1.17125053,1.17125053 C0.421041743,1.92145932 -0.000291883155,2.93904456 -1.77157068e-15,3.99999997 L-1.77157068e-15,32.9999997 C-0.000291883155,34.0609551 0.421041743,35.0785404 1.17125053,35.8287492 C1.92145933,36.578958 2.93904457,37.0002916 3.99999998,36.9999997 L37.0299998,36.9999997" id="Shape"></path>
            <rect id="Rectangle-path" x="5" y="6" width="10" height="8" rx="2"></rect>
            <polyline id="Shape" points="34.85 32 0 32 0 24 28.14 24"></polyline>
            <path d="M43.73,24 L52,24" id="Shape"></path>
            <path d="M44.45454,4 C48.5900729,8.14486837 48.5900729,14.8551316 44.45454,19" id="Shape"></path>
            <path d="M41.72727,6.72727 C44.3586607,9.36504078 44.3586607,13.6349492 41.72727,16.27272" id="Shape"></path>
            <path d="M39,9.45454 C40.1296682,10.5842158 40.1296682,12.4157742 39,13.54545" id="Shape"></path>
            <path d="M52,31 L49,28.46 L43.73,24 L28.79,11.36 C27.0850192,9.91806939 24.5656446,9.99950223 22.9573393,11.548527 C21.3490341,13.0975518 21.1730869,15.6120939 22.55,17.37 C23.99,19.2 25.93,21.57 28.14,24 C29.06,25 30.02,26.02 31,27 C32.516503,28.473385 33.8131211,30.1573046 34.85,32 C35.6963099,33.6119061 36.4248788,35.2829356 37.03,37 C37.7776135,39.1111024 38.7746737,41.1253655 40,43 C42.1959896,46.4531605 45.3131936,49.2240085 49,51 L58,51 L58,22 C56.3070406,20.5343916 54.2205045,19.5989279 52,19.31" id="Shape"></path>
            <path d="M40.7,44 L32,44 C29.2389924,43.9989955 27.0010045,41.7610076 27,39 L27,37 L37.03,37" id="Shape"></path>
            <path d="M51,51 L37,51 C34.2389924,50.9989955 32.0010045,48.7610076 32,46 L32,44 L40.7,44" id="Shape"></path>
        </g>
    </g>
</svg>