<?xml version="1.0" encoding="UTF-8"?>
<svg width="60px" height="60px" viewBox="0 0 60 60" version="1.1" xmlns="http://www.w3.org/2000/svg" xmlns:xlink="http://www.w3.org/1999/xlink">
    <!-- Generator: Sketch 49.3 (51167) - http://www.bohemiancoding.com/sketch -->
    <title>028 - Pin Number Document</title>
    <desc>Created with Sketch.</desc>
    <defs></defs>
    <g id="Page-1" stroke="none" stroke-width="1" fill="none" fill-rule="evenodd" stroke-linecap="round" stroke-linejoin="round">
        <g id="028---Pin-Number-Document" transform="translate(1.000000, 1.000000)" stroke="#dd4f05" stroke-width="1">
            <rect id="Rectangle-path" x="0" y="0" width="42" height="58" rx="2"></rect>
            <path d="M5,18 L33,18" id="Shape"></path>
            <path d="M5,14 L33,14" id="Shape"></path>
            <path d="M5,22 L21,22" id="Shape"></path>
            <path d="M5,26 L21,26" id="Shape"></path>
            <path d="M5,30 L11,30" id="Shape"></path>
            <path d="M5,10 L10,10" id="Shape"></path>
            <rect id="Rectangle-path" x="5" y="40" width="32" height="12" rx="1"></rect>
            <path d="M12,40 L5,47" id="Shape"></path>
            <path d="M12,45 L14,47" id="Shape"></path>
            <path d="M14,45 L12,47" id="Shape"></path>
            <path d="M18,45 L20,47" id="Shape"></path>
            <path d="M20,45 L18,47" id="Shape"></path>
            <path d="M24,45 L26,47" id="Shape"></path>
            <path d="M26,45 L24,47" id="Shape"></path>
            <path d="M30,45 L32,47" id="Shape"></path>
            <path d="M32,45 L30,47" id="Shape"></path>
        </g>
    </g>
</svg>