<?xml version="1.0" encoding="UTF-8"?>
<svg width="60px" height="60px" viewBox="0 0 60 60" version="1.1" xmlns="http://www.w3.org/2000/svg" xmlns:xlink="http://www.w3.org/1999/xlink">
    <!-- Generator: Sketch 48.2 (47327) - http://www.bohemiancoding.com/sketch -->
    <title>068 - Card Cloud</title>
    <desc>Created with Sketch.</desc>
    <defs></defs>
    <g id="Page-1" stroke="none" stroke-width="1" fill="none" fill-rule="evenodd" stroke-linecap="round" stroke-linejoin="round">
        <g id="068---Card-Cloud" transform="translate(1.000000, 1.000000)" stroke="#dd4f05" stroke-width="1">
            <path d="M53,31 L48,31" id="Shape"></path>
            <path d="M53,27 L46,27" id="Shape"></path>
            <path d="M45.0699958,35.9999946 L54.9999949,35.9999946 C55.7959698,36.0010581 56.5596495,35.6853291 57.1224893,35.1224894 C57.6853291,34.5596496 58.0010581,33.79597 57.9999946,32.9999951 L57.9999946,2.99999955 C58.0010581,2.20402467 57.6853291,1.44034502 57.1224893,0.877505279 C56.5596495,0.31466554 55.7959698,-0.00106342812 54.9999949,-3.96593688e-13 L2.99999972,-3.96593688e-13 C2.2040248,-0.00106342812 1.4403451,0.31466554 0.877505329,0.877505279 C0.314665558,1.44034502 -0.00106342818,2.20402467 -2.49014e-13,2.99999955 L-2.49014e-13,32.9999951 C-0.00106342818,33.79597 0.314665558,34.5596496 0.877505329,35.1224894 C1.4403451,35.6853291 2.2040248,36.0010581 2.99999972,35.9999946 L12.9299988,35.9999946" id="Shape"></path>
            <rect id="Rectangle-path" x="0" y="6" width="58" height="6"></rect>
            <rect id="Rectangle-path" x="4" y="26" width="8" height="6" rx="2"></rect>
            <rect id="Rectangle-path" x="4" y="16" width="27" height="4" rx="1"></rect>
            <path d="M47,40.8125 C46.992694,42.736041 46.2018946,44.5735556 44.81,45.90122 C43.3742992,47.2553425 41.473535,48.0066204 39.5,48 L18.5,48 C14.4454568,48.0829642 11.0895665,44.8669027 11,40.8125 C11.007322,38.8889362 11.7981169,37.0513997 13.19,35.72369 C14.2467754,34.7208904 15.569099,34.0423752 17,33.76869 L17,33.625 C17.1095568,28.7606305 21.1353728,24.9025569 26,25 C29.4376623,24.9680259 32.5953077,26.8906772 34.145,29.95939 C34.8546256,29.5290868 35.670136,29.305076 36.5,29.3125 C37.6689066,29.2865888 38.8001282,29.7266248 39.6442724,30.5355962 C40.4884165,31.3445677 40.9761695,32.4560491 41,33.625 C41.0024562,33.6733906 40.9973961,33.7218696 40.985,33.76871 C44.4196109,34.3705893 46.9433748,37.3260112 47,40.8125 Z" id="Shape"></path>
        </g>
    </g>
</svg>