<?xml version="1.0" encoding="UTF-8" standalone="no"?>
<svg width="60px" height="60px" viewBox="0 0 60 60" version="1.1" xmlns="http://www.w3.org/2000/svg" xmlns:xlink="http://www.w3.org/1999/xlink">
    <!-- Generator: Sketch 40.1 (33804) - http://www.bohemiancoding.com/sketch -->
    <title>148 - Rich (business, finance, marketing, outline)</title>
    <desc>Created with Sketch.</desc>
    <defs></defs>
    <g id="Page-1" stroke="none" stroke-width="1" fill="none" fill-rule="evenodd">
        <g id="Icons" transform="translate(-360.000000, -597.000000)" stroke="#dd4f05" stroke-width="1">
            <g id="Rich" transform="translate(360.000000, 598.000000)">
                <path d="M48.0416739,41.593 C43.0706739,41.593 39.0416739,40.74 39.0416739,39.689 L39.0416739,43.69 C39.0446739,44.741 43.0726739,45.593 48.0416739,45.593 C53.0106739,45.593 57.0386739,44.741 57.0416739,43.69 L57.0416739,39.689 C57.0416739,40.74 53.0126739,41.593 48.0416739,41.593 L48.0416739,41.593 Z" id="Stroke-10" stroke-linecap="round"></path>
                <path d="M39.0416739,39.687 L39.0416739,39.689 L39.0416739,39.687 L39.0416739,39.687 Z" id="Stroke-12" stroke-linecap="round"></path>
                <path d="M57.0416739,39.687 L57.0416739,39.689 L57.0416739,39.687 L57.0416739,39.687 Z" id="Stroke-14" stroke-linecap="round"></path>
                <path d="M57.0416739,35.689 C57.0416739,36.74 53.0126739,37.593 48.0416739,37.593 C43.0706739,37.593 39.0416739,36.74 39.0416739,35.689 C39.0416739,34.637 43.0706739,32.593 48.0416739,32.593 C53.0126739,32.593 57.0416739,34.637 57.0416739,35.689 L57.0416739,35.689 Z" id="Stroke-16" stroke-linecap="round"></path>
                <path d="M48.0416739,37.593 C43.0706739,37.593 39.0416739,36.74 39.0416739,35.689 L39.0416739,39.69 C39.0446739,40.741 43.0726739,41.593 48.0416739,41.593 C53.0106739,41.593 57.0386739,40.741 57.0416739,39.69 L57.0416739,35.689 C57.0416739,36.74 53.0126739,37.593 48.0416739,37.593 L48.0416739,37.593 Z" id="Stroke-18" stroke-linecap="round"></path>
                <path d="M39.0416739,35.687 L39.0416739,35.689 L39.0416739,35.687 L39.0416739,35.687 Z" id="Stroke-20" stroke-linecap="round"></path>
                <path d="M57.0416739,35.687 L57.0416739,35.689 L57.0416739,35.687 L57.0416739,35.687 Z" id="Stroke-22" stroke-linecap="round"></path>
                <path d="M18.0416739,16 L30.0416739,16" id="Stroke-62" stroke-linecap="round"></path>
                <path d="M18.0416739,13 L30.0416739,13" id="Stroke-64" stroke-linecap="round"></path>
                <path d="M22.0826739,1.31 C19.9546739,-0.392 17.4066739,-0.178 15.3236739,0.511 C13.8786739,0.989 13.5796739,2.839 14.7416739,3.822 C15.9376739,4.835 17.6856739,7.674 18.0416739,8.704 C18.3066739,9.472 19.0136739,10 19.8266739,10 L27.2576739,10 C28.0696739,10 28.7766739,9.472 29.0416739,8.704 C29.3976739,7.674 30.6976739,4.835 31.8936739,3.822 C33.0546739,2.839 32.7566739,0.989 31.3106739,0.511 C29.2276739,-0.178 26.6806739,-0.392 24.5516739,1.31 C23.8216739,1.894 22.8126739,1.894 22.0826739,1.31 L22.0826739,1.31 Z" id="Stroke-66" stroke-linecap="round"></path>
                <path d="M30.0416739,13 L30.0416739,16" id="Stroke-68" stroke-linecap="round"></path>
                <path d="M30.3176739,16 C31.8806739,17.563 34.4106739,17.563 35.9746739,16" id="Stroke-70" stroke-linecap="round"></path>
                <path d="M48.0416739,53.593 C46.0286739,53.593 44.1776739,53.451 42.6786739,53.215 C42.2186739,54.592 41.3426739,55.775 40.2006739,56.621 C41.7436739,57.201 44.6746739,57.593 48.0416739,57.593 C53.0106739,57.593 57.0386739,56.741 57.0416739,55.69 L57.0416739,51.689 C57.0416739,52.74 53.0126739,53.593 48.0416739,53.593 L48.0416739,53.593 Z" id="Stroke-74" stroke-linecap="round"></path>
                <path d="M48.0416739,45.593 C43.0706739,45.593 39.0416739,44.74 39.0416739,43.689 L39.0416739,44.683 C40.8876739,45.561 42.2836739,47.22 42.8086739,49.236 C44.2836739,49.459 46.0876739,49.592 48.0416739,49.592 C53.0106739,49.592 57.0386739,48.741 57.0416739,47.69 L57.0416739,43.689 C57.0416739,44.74 53.0126739,45.593 48.0416739,45.593 L48.0416739,45.593 Z" id="Stroke-76" stroke-linecap="round"></path>
                <path d="M48.0416739,49.592 C46.0876739,49.592 44.2836739,49.459 42.8086739,49.236 C42.9556739,49.8 43.0416739,50.389 43.0416739,51 C43.0416739,51.775 42.9106739,52.518 42.6786739,53.215 C44.1766739,53.451 46.0286739,53.593 48.0416739,53.593 C53.0106739,53.593 57.0386739,52.741 57.0416739,51.69 L57.0416739,47.689 C57.0416739,48.74 53.0126739,49.592 48.0416739,49.592 L48.0416739,49.592 Z" id="Stroke-78" stroke-linecap="round"></path>
                <path d="M29.1266739,49.905 C29.5646739,47.069 31.7846739,44.731 34.5946739,44.15 C36.2066739,43.816 37.7316739,44.059 39.0416739,44.683 L39.0416739,35.689 C39.0416739,34.842 41.6586739,33.352 45.2736739,32.804 C44.0136739,30.092 42.1136739,27.637 39.6176739,25.723 L32.3696739,20.796 C31.0386739,19.776 29.4086739,19 27.7316739,19 L19.9546739,19 C18.2466739,19 16.5876739,19.574 15.2436739,20.63 L8.19567392,25.764 C1.26267392,31.215 -1.07132608,40.829 2.91767392,48.694 C4.58167392,51.975 6.88567392,54.384 9.59267392,54.567 C9.84267392,54.584 10.0936739,54.593 10.3476739,54.593 L30.0416739,54.593 C29.2386739,53.254 28.8596739,51.633 29.1266739,49.905 L29.1266739,49.905 Z" id="Stroke-80"></path>
                <path d="M43.0416739,51 C43.0416739,54.866 39.9076739,58 36.0416739,58 C32.1756739,58 29.0416739,54.866 29.0416739,51 C29.0416739,47.134 32.1756739,44 36.0416739,44 C39.9076739,44 43.0416739,47.134 43.0416739,51 L43.0416739,51 Z" id="Stroke-82"></path>
                <path d="M8.04167392,40 C8.04167392,33.92 14.9616739,26 21.0416739,26" id="Stroke-86" stroke-linecap="round"></path>
            </g>
        </g>
    </g>
</svg>