<?xml version="1.0" encoding="UTF-8"?>
<svg width="60px" height="60px" viewBox="0 0 60 60" version="1.1" xmlns="http://www.w3.org/2000/svg" xmlns:xlink="http://www.w3.org/1999/xlink">
    <!-- Generator: Sketch 49.3 (51167) - http://www.bohemiancoding.com/sketch -->
    <title>036 - Loan</title>
    <desc>Created with Sketch.</desc>
    <defs></defs>
    <g id="Page-1" stroke="none" stroke-width="1" fill="none" fill-rule="evenodd" stroke-linecap="round" stroke-linejoin="round">
        <g id="036---Loan" transform="translate(1.000000, 1.000000)" stroke="#a7abad" stroke-width="1">
            <path d="M18,39 C18.9423213,37.7386358 20.4255158,36.9970385 22,37 L22,9 C19.2389924,8.99899554 17.0010045,6.76100758 17,4 L9,4 C8.99899554,6.76100758 6.76100758,8.99899554 4,9 L4,37 C6.76100758,37.0010045 8.99899554,39.2389924 9,42 L10.57,42" id="Shape"></path>
            <path d="M9.93,46 L1,46 C0.448385439,45.9983854 0.00161463667,45.5516146 0,45 L0,1 C0.00161463667,0.448385439 0.448385439,0.00161463667 1,0 L25,0 C25.5516146,0.00161463667 25.9983854,0.448385439 26,1 L26,37.51" id="Shape"></path>
            <path d="M33.50692,42.304 L27.4121,58 L11.29994,58 C8.59375,50.03125 11,40.27692 11,40.27692 L11,29.75383 C11.0790639,28.402833 11.9234506,27.215919 13.1738155,26.6982014 C14.4241804,26.1804838 15.8604606,26.4230806 16.87142,27.32275 C18.25068,28.553 18,30.25764 18,31.91147 L18,40.27692 C18,40.27692 17.967,41.93846 21.85618,41.93846 C25.74536,41.93846 26,37.50769 26,37.50769 L26,22 C26,22 32.92353,30.96119 33.94586,38.87013 C34.087912,40.0334467 33.9370288,41.2138207 33.50692,42.304 Z" id="Shape"></path>
            <path d="M26,25.78 L26.03,25.67 L31.37,5.36 C31.5085056,4.82736209 31.1915297,4.2826993 30.66,4.14 L26,2.91" id="Shape"></path>
            <circle id="Oval" cx="13" cy="13" r="2"></circle>
            <path d="M16.79,27.26 C18.2133637,25.6069176 18.4008933,23.2219153 17.2533836,21.3666885 C16.1058738,19.5114616 13.8881551,18.6141727 11.7734278,19.1494987 C9.65870055,19.6848246 8.13501659,21.529219 8.0084234,23.7069746 C7.88183021,25.8847302 9.18154389,27.893249 11.22,28.67" id="Shape"></path>
        </g>
    </g>
</svg>