<?xml version="1.0" encoding="UTF-8" standalone="no"?>
<svg width="60px" height="60px" viewBox="0 0 60 60" version="1.1" xmlns="http://www.w3.org/2000/svg" xmlns:xlink="http://www.w3.org/1999/xlink">
    <!-- Generator: Sketch 40.1 (33804) - http://www.bohemiancoding.com/sketch -->
    <title>154 - Money Stack (business, finance, marketing, outline)</title>
    <desc>Created with Sketch.</desc>
    <defs></defs>
    <g id="Page-1" stroke="none" stroke-width="1" fill="none" fill-rule="evenodd">
        <g id="Icons" transform="translate(-841.000000, -483.000000)" stroke="#a7abad" stroke-width="1">
            <g id="Money-Stack" transform="translate(842.000000, 484.000000)">
                <polygon id="Stroke-174" stroke-linecap="round" points="0.0416739178 0 56.0416739 0 56.0416739 32 0.0416739178 32"></polygon>
                <path d="M21.1356739,27 C17.4796739,24.699 15.0416739,20.639 15.0416739,16 C15.0416739,11.361 17.4796739,7.301 21.1356739,5 L11.0166739,5 C11.0316739,5.165 11.0416739,5.331 11.0416739,5.5 C11.0416739,8.538 8.57867392,11 5.54167392,11 C5.37267392,11 5.20667392,10.99 5.04167392,10.975 L5.04167392,21.025 C5.20667392,21.01 5.37267392,21 5.54167392,21 C8.57867392,21 11.0416739,23.462 11.0416739,26.5 C11.0416739,26.669 11.0316739,26.835 11.0166739,27 L21.1356739,27 L21.1356739,27 Z" id="Stroke-176" stroke-linecap="round" stroke-linejoin="round"></path>
                <path d="M50.5416739,11 C47.5046739,11 45.0416739,8.538 45.0416739,5.5 C45.0416739,5.331 45.0516739,5.165 45.0666739,5 L34.9476739,5 C38.6036739,7.301 41.0416739,11.361 41.0416739,16 C41.0416739,20.639 38.6036739,24.699 34.9476739,27 L45.0666739,27 C45.0516739,26.835 45.0416739,26.669 45.0416739,26.5 C45.0416739,23.462 47.5046739,21 50.5416739,21 C50.7106739,21 50.8766739,21.01 51.0416739,21.025 L51.0416739,10.975 C50.8766739,10.99 50.7106739,11 50.5416739,11 L50.5416739,11 Z" id="Stroke-178" stroke-linecap="round" stroke-linejoin="round"></path>
                <path d="M5.54167392,8 C4.16267392,8 3.04167392,6.879 3.04167392,5.5 C3.04167392,4.121 4.16267392,3 5.54167392,3 C6.92067392,3 8.04167392,4.121 8.04167392,5.5 C8.04167392,6.879 6.92067392,8 5.54167392,8 L5.54167392,8 Z" id="Stroke-180"></path>
                <path d="M50.5416739,8 C49.1626739,8 48.0416739,6.879 48.0416739,5.5 C48.0416739,4.121 49.1626739,3 50.5416739,3 C51.9206739,3 53.0416739,4.121 53.0416739,5.5 C53.0416739,6.879 51.9206739,8 50.5416739,8 L50.5416739,8 Z" id="Stroke-182"></path>
                <path d="M5.54167392,29 C4.16267392,29 3.04167392,27.879 3.04167392,26.5 C3.04167392,25.121 4.16267392,24 5.54167392,24 C6.92067392,24 8.04167392,25.121 8.04167392,26.5 C8.04167392,27.879 6.92067392,29 5.54167392,29 L5.54167392,29 Z" id="Stroke-184"></path>
                <path d="M50.5416739,29 C49.1626739,29 48.0416739,27.879 48.0416739,26.5 C48.0416739,25.121 49.1626739,24 50.5416739,24 C51.9206739,24 53.0416739,25.121 53.0416739,26.5 C53.0416739,27.879 51.9206739,29 50.5416739,29 L50.5416739,29 Z" id="Stroke-186"></path>
                <polygon id="Stroke-188" stroke-linecap="round" points="22.0416739 0 34.0416739 0 34.0416739 47 22.0416739 47"></polygon>
                <path d="M22.0416739,4.474 C17.8836739,6.643 15.0416739,10.986 15.0416739,16 C15.0416739,21.014 17.8836739,25.357 22.0416739,27.526 L22.0416739,4.474 L22.0416739,4.474 Z" id="Stroke-190" stroke-linecap="round"></path>
                <path d="M34.0416739,4.474 L34.0416739,27.526 C38.1986739,25.357 41.0416739,21.014 41.0416739,16 C41.0416739,10.986 38.1986739,6.643 34.0416739,4.474 L34.0416739,4.474 Z" id="Stroke-192" stroke-linecap="round"></path>
                <polygon id="Stroke-194" stroke-linecap="round" points="0.0416739178 47 22.0416739 47 22.0416739 44 0.0416739178 44"></polygon>
                <polygon id="Stroke-196" stroke-linecap="round" points="34.0416739 47 56.0416739 47 56.0416739 44 34.0416739 44"></polygon>
                <polygon id="Stroke-198" stroke-linecap="round" points="0.0416739178 44 22.0416739 44 22.0416739 41 0.0416739178 41"></polygon>
                <polygon id="Stroke-200" stroke-linecap="round" points="34.0416739 44 56.0416739 44 56.0416739 41 34.0416739 41"></polygon>
                <polygon id="Stroke-202" stroke-linecap="round" points="0.0416739178 41 22.0416739 41 22.0416739 38 0.0416739178 38"></polygon>
                <polygon id="Stroke-204" stroke-linecap="round" points="34.0416739 41 56.0416739 41 56.0416739 38 34.0416739 38"></polygon>
                <polygon id="Stroke-206" stroke-linecap="round" points="0.0416739178 38 22.0416739 38 22.0416739 35 0.0416739178 35"></polygon>
                <polygon id="Stroke-208" stroke-linecap="round" points="34.0416739 38 56.0416739 38 56.0416739 35 34.0416739 35"></polygon>
                <polygon id="Stroke-210" stroke-linecap="round" points="0.0416739178 35 22.0416739 35 22.0416739 32 0.0416739178 32"></polygon>
                <polygon id="Stroke-212" stroke-linecap="round" points="34.0416739 35 56.0416739 35 56.0416739 32 34.0416739 32"></polygon>
            </g>
        </g>
    </g>
</svg>