<?xml version="1.0" encoding="UTF-8" standalone="no"?>
<svg width="60px" height="60px" viewBox="0 0 60 60" version="1.1" xmlns="http://www.w3.org/2000/svg" xmlns:xlink="http://www.w3.org/1999/xlink">
    <!-- Generator: Sketch 40.1 (33804) - http://www.bohemiancoding.com/sketch -->
    <title>153 - Change (business, finance, marketing, outline)</title>
    <desc>Created with Sketch.</desc>
    <defs></defs>
    <g id="Page-1" stroke="none" stroke-width="1" fill="none" fill-rule="evenodd">
        <g id="Icons" transform="translate(-963.000000, -477.000000)" stroke="#dd4f05" stroke-width="1">
            <g id="Change" transform="translate(964.000000, 478.000000)">
                <path d="M5.04167392,21.094 C7.34267392,17.438 11.4026739,15 16.0416739,15 C20.6806739,15 24.7406739,17.438 27.0416739,21.094 L27.0416739,10.975 C26.8766739,10.99 26.7106739,11 26.5416739,11 C23.5046739,11 21.0416739,8.538 21.0416739,5.5 C21.0416739,5.331 21.0516739,5.165 21.0666739,5 L11.0166739,5 C11.0316739,5.165 11.0416739,5.331 11.0416739,5.5 C11.0416739,8.538 8.57967392,11 5.54167392,11 C5.37267392,11 5.20667392,10.99 5.04167392,10.975 L5.04167392,21.094 L5.04167392,21.094 Z" id="Stroke-218" stroke-linecap="round"></path>
                <path d="M19.0416739,43 L19.0416739,40.644 C18.0786739,40.873 17.0756739,41 16.0416739,41 C11.4026739,41 7.34267392,38.562 5.04167392,34.906 L5.04167392,45.025 C5.20667392,45.01 5.37267392,45 5.54167392,45 C8.57967392,45 11.0416739,47.463 11.0416739,50.5 C11.0416739,50.669 11.0316739,50.835 11.0166739,51 L19.0416739,51 L19.0416739,43 L19.0416739,43 Z" id="Stroke-220" stroke-linecap="round"></path>
                <path d="M24.0416739,5.5 C24.0416739,4.121 25.1626739,3 26.5416739,3 C27.9206739,3 29.0416739,4.121 29.0416739,5.5 C29.0416739,6.879 27.9206739,8 26.5416739,8 C25.1626739,8 24.0416739,6.879 24.0416739,5.5 L24.0416739,5.5 Z" id="Stroke-222"></path>
                <path d="M3.04167392,5.5 C3.04167392,4.121 4.16267392,3 5.54167392,3 C6.92067392,3 8.04167392,4.121 8.04167392,5.5 C8.04167392,6.879 6.92067392,8 5.54167392,8 C4.16267392,8 3.04167392,6.879 3.04167392,5.5 L3.04167392,5.5 Z" id="Stroke-224"></path>
                <path d="M3.04167392,50.5 C3.04167392,49.121 4.16267392,48 5.54167392,48 C6.92067392,48 8.04167392,49.121 8.04167392,50.5 C8.04167392,51.879 6.92067392,53 5.54167392,53 C4.16267392,53 3.04167392,51.879 3.04167392,50.5 L3.04167392,50.5 Z" id="Stroke-226"></path>
                <path d="M38.0416739,35 C38.0416739,38.314 33.7886739,41 28.5416739,41 C23.2946739,41 19.0416739,38.314 19.0416739,35 C19.0416739,31.686 23.2946739,29 28.5416739,29 C33.7886739,29 38.0416739,31.686 38.0416739,35 L38.0416739,35 Z" id="Stroke-228" stroke-linecap="round"></path>
                <path d="M28.5416739,53 C23.2946739,53 19.0416739,50.314 19.0416739,47 L19.0416739,51 C19.0416739,54.314 23.2946739,57 28.5416739,57 C33.7886739,57 38.0416739,54.314 38.0416739,51 L38.0416739,47 C38.0416739,50.314 33.7886739,53 28.5416739,53 L28.5416739,53 Z" id="Stroke-230" stroke-linecap="round"></path>
                <path d="M28.5416739,49 C23.2946739,49 19.0416739,46.314 19.0416739,43 L19.0416739,47 C19.0416739,50.314 23.2946739,53 28.5416739,53 C33.7886739,53 38.0416739,50.314 38.0416739,47 L38.0416739,43 C38.0416739,46.314 33.7886739,49 28.5416739,49 L28.5416739,49 Z" id="Stroke-232" stroke-linecap="round"></path>
                <path d="M28.5416739,45 C23.2946739,45 19.0416739,42.314 19.0416739,39 L19.0416739,43 C19.0416739,46.314 23.2946739,49 28.5416739,49 C33.7886739,49 38.0416739,46.314 38.0416739,43 L38.0416739,39 C38.0416739,42.314 33.7886739,45 28.5416739,45 L28.5416739,45 Z" id="Stroke-234" stroke-linecap="round"></path>
                <path d="M28.5416739,41 C23.2946739,41 19.0416739,38.314 19.0416739,35 L19.0416739,39 C19.0416739,42.314 23.2946739,45 28.5416739,45 C33.7886739,45 38.0416739,42.314 38.0416739,39 L38.0416739,35 C38.0416739,38.314 33.7886739,41 28.5416739,41 L28.5416739,41 Z" id="Stroke-236" stroke-linecap="round"></path>
                <path d="M51.0416739,23 C51.0416739,26.314 46.7886739,29 41.5416739,29 C36.2946739,29 32.0416739,26.314 32.0416739,23 C32.0416739,19.686 36.2946739,17 41.5416739,17 C46.7886739,17 51.0416739,19.686 51.0416739,23 L51.0416739,23 Z" id="Stroke-238" stroke-linecap="round"></path>
                <path d="M19.0416739,51 L19.0416739,35 C19.0416739,31.686 23.2946739,29 28.5416739,29 C29.7786739,29 30.9576739,29.154 32.0416739,29.426 L32.0416739,0 L0.0416739178,0 L0.0416739178,56 L23.2946739,56 C20.7326739,54.925 19.0416739,53.088 19.0416739,51 L19.0416739,51 Z" id="Stroke-240" stroke-linecap="round"></path>
                <path d="M19.0416739,39 L19.0416739,35 C19.0416739,31.686 23.2946739,29 28.5416739,29 C28.6926739,29 28.8406739,29.01 28.9906739,29.014 C29.0166739,28.679 29.0416739,28.343 29.0416739,28 C29.0416739,20.82 23.2216739,15 16.0416739,15 C8.86167392,15 3.04167392,20.82 3.04167392,28 C3.04167392,35.18 8.86167392,41 16.0416739,41 C17.0756739,41 18.0766739,40.866 19.0416739,40.638 L19.0416739,39 L19.0416739,39 Z" id="Stroke-242" stroke-linecap="round"></path>
                <path d="M21.9606739,30.679 C24.0596739,26.929 22.0416739,23 22.0416739,23 C21.1896739,22.751 18.6906739,23.496 18.4036739,24.306 C17.5156739,23.497 16.3376739,23 15.0416739,23 C13.4166739,23 12.7286739,24.7 12.2346739,24.871 C11.9926739,24.954 11.7416739,24.996 11.4896739,25 C10.7446739,25.012 10.0466739,24.627 9.54467392,24.076 L5.81867392,19.987 C4.08467392,22.196 3.04167392,24.974 3.04167392,28 C3.04167392,31.026 4.08467392,33.804 5.81867392,36.013 L9.51167392,31.955 C10.1176739,31.288 11.0126739,30.884 11.8996739,31.04 C12.0256739,31.062 12.1506739,31.093 12.2736739,31.135 C12.5946739,31.243 14.1656739,32.918 14.5126739,32.957 C15.5596739,35.428 17.8466739,34.439 19.4146739,33.348 C19.8816739,32.318 20.7706739,31.402 21.9606739,30.679 L21.9606739,30.679 Z" id="Stroke-244" stroke-linecap="round"></path>
                <path d="M41.5416739,53 C40.1856739,53 38.8986739,52.818 37.7326739,52.495 C37.2776739,53.612 36.3316739,54.601 35.0416739,55.368 C36.7416739,56.377 39.0236739,57 41.5416739,57 C46.7886739,57 51.0416739,54.314 51.0416739,51 L51.0416739,47 C51.0416739,50.314 46.7886739,53 41.5416739,53 L41.5416739,53 Z" id="Stroke-246" stroke-linecap="round"></path>
                <path d="M41.5416739,49 C40.3046739,49 39.1256739,48.846 38.0416739,48.574 L38.0416739,51 C38.0416739,51.517 37.9266739,52.016 37.7326739,52.495 C38.8986739,52.818 40.1856739,53 41.5416739,53 C46.7886739,53 51.0416739,50.314 51.0416739,47 L51.0416739,43 C51.0416739,46.314 46.7886739,49 41.5416739,49 L41.5416739,49 Z" id="Stroke-248" stroke-linecap="round"></path>
                <path d="M41.5416739,45 C40.3046739,45 39.1256739,44.846 38.0416739,44.574 L38.0416739,48.574 C39.1256739,48.846 40.3046739,49 41.5416739,49 C46.7886739,49 51.0416739,46.314 51.0416739,43 L51.0416739,39 C51.0416739,42.314 46.7886739,45 41.5416739,45 L41.5416739,45 Z" id="Stroke-250" stroke-linecap="round"></path>
                <path d="M41.5416739,41 C40.3046739,41 39.1256739,40.846 38.0416739,40.574 L38.0416739,44.574 C39.1256739,44.846 40.3046739,45 41.5416739,45 C46.7886739,45 51.0416739,42.314 51.0416739,39 L51.0416739,35 C51.0416739,38.314 46.7886739,41 41.5416739,41 L41.5416739,41 Z" id="Stroke-252" stroke-linecap="round"></path>
                <path d="M41.5416739,37 C40.3046739,37 39.1256739,36.846 38.0416739,36.574 L38.0416739,40.574 C39.1256739,40.846 40.3046739,41 41.5416739,41 C46.7886739,41 51.0416739,38.314 51.0416739,35 L51.0416739,31 C51.0416739,34.314 46.7886739,37 41.5416739,37 L41.5416739,37 Z" id="Stroke-254" stroke-linecap="round"></path>
                <path d="M41.5416739,33 C39.8936739,33 38.3436739,32.734 36.9926739,32.268 C37.6586739,33.088 38.0416739,34.015 38.0416739,35 L38.0416739,36.574 C39.1256739,36.846 40.3046739,37 41.5416739,37 C46.7886739,37 51.0416739,34.314 51.0416739,31 L51.0416739,27 C51.0416739,30.314 46.7886739,33 41.5416739,33 L41.5416739,33 Z" id="Stroke-256" stroke-linecap="round"></path>
                <path d="M41.5416739,29 C36.2946739,29 32.0416739,26.314 32.0416739,23 L32.0416739,27 C32.0416739,27.985 32.4246739,28.912 33.0906739,29.732 C34.7616739,30.309 36.1216739,31.196 36.9926739,32.268 C38.3436739,32.734 39.8936739,33 41.5416739,33 C46.7886739,33 51.0416739,30.314 51.0416739,27 L51.0416739,23 C51.0416739,26.314 46.7886739,29 41.5416739,29 L41.5416739,29 Z" id="Stroke-258" stroke-linecap="round"></path>
                <path d="M41.0416739,17.016 L41.0416739,0 L38.0416739,0 L38.0416739,17.426 C38.9776739,17.191 39.9866739,17.051 41.0416739,17.016 L41.0416739,17.016 Z" id="Stroke-260" stroke-linecap="round"></path>
                <path d="M38.0416739,17.426 L38.0416739,0 L35.0416739,0 L35.0416739,18.632 C35.9056739,18.119 36.9196739,17.707 38.0416739,17.426 L38.0416739,17.426 Z" id="Stroke-262" stroke-linecap="round"></path>
                <path d="M35.0416739,18.632 L35.0416739,0 L32.0416739,0 L32.0416739,23 C32.0416739,21.276 33.1986739,19.727 35.0416739,18.632 L35.0416739,18.632 Z" id="Stroke-264" stroke-linecap="round"></path>
            </g>
        </g>
    </g>
</svg>