<?xml version="1.0" encoding="UTF-8"?>
<svg width="60px" height="60px" viewBox="0 0 60 60" version="1.1" xmlns="http://www.w3.org/2000/svg" xmlns:xlink="http://www.w3.org/1999/xlink">
    <!-- Generator: Sketch 41.1 (35376) - http://www.bohemiancoding.com/sketch -->
    <title>99 -Wallet- (business, finance, marketing)</title>
    <desc>Created with Sketch.</desc>
    <defs></defs>
    <g id="Page-1" stroke="none" stroke-width="1" fill="none" fill-rule="evenodd">
        <g id="Icons" transform="translate(-1079.000000, -1425.000000)" fill="#dd4f05">
            <g id="99--Wallet--(business,-finance,-marketing)" transform="translate(1079.000000, 1425.000000)">
                <path d="M11.0003,18 L9.0003,18 C8.4473,18 8.0003,17.553 8.0003,17 C8.0003,16.447 8.4473,16 9.0003,16 L11.0003,16 C11.5533,16 12.0003,16.447 12.0003,17 C12.0003,17.553 11.5533,18 11.0003,18 M18.0003,18 L16.0003,18 C15.4473,18 15.0003,17.553 15.0003,17 C15.0003,16.447 15.4473,16 16.0003,16 L18.0003,16 C18.5533,16 19.0003,16.447 19.0003,17 C19.0003,17.553 18.5533,18 18.0003,18 M25.0003,18 L23.0003,18 C22.4473,18 22.0003,17.553 22.0003,17 C22.0003,16.447 22.4473,16 23.0003,16 L25.0003,16 C25.5533,16 26.0003,16.447 26.0003,17 C26.0003,17.553 25.5533,18 25.0003,18 M32.0003,18 L30.0003,18 C29.4473,18 29.0003,17.553 29.0003,17 C29.0003,16.447 29.4473,16 30.0003,16 L32.0003,16 C32.5533,16 33.0003,16.447 33.0003,17 C33.0003,17.553 32.5533,18 32.0003,18 M39.0003,18 L37.0003,18 C36.4473,18 36.0003,17.553 36.0003,17 C36.0003,16.447 36.4473,16 37.0003,16 L39.0003,16 C39.5533,16 40.0003,16.447 40.0003,17 C40.0003,17.553 39.5533,18 39.0003,18 M46.0003,18 L44.0003,18 C43.4473,18 43.0003,17.553 43.0003,17 C43.0003,16.447 43.4473,16 44.0003,16 L46.0003,16 C46.5533,16 47.0003,16.447 47.0003,17 C47.0003,17.553 46.5533,18 46.0003,18 M53.0003,18 L51.0003,18 C50.4473,18 50.0003,17.553 50.0003,17 C50.0003,16.447 50.4473,16 51.0003,16 L53.0003,16 C53.5533,16 54.0003,16.447 54.0003,17 C54.0003,17.553 53.5533,18 53.0003,18 M5.0003,22.714 C4.4473,22.714 4.0003,22.267 4.0003,21.714 L4.0003,21 C4.0003,20.461 4.0863,19.93 4.2543,19.422 C4.4293,18.897 4.9953,18.616 5.5183,18.787 C6.0423,18.961 6.3263,19.527 6.1523,20.051 C6.0513,20.355 6.0003,20.675 6.0003,21 L6.0003,21.714 C6.0003,22.267 5.5533,22.714 5.0003,22.714 M5.0003,29.714 C4.4473,29.714 4.0003,29.267 4.0003,28.714 L4.0003,26.714 C4.0003,26.161 4.4473,25.714 5.0003,25.714 C5.5533,25.714 6.0003,26.161 6.0003,26.714 L6.0003,28.714 C6.0003,29.267 5.5533,29.714 5.0003,29.714 M5.0003,36.714 C4.4473,36.714 4.0003,36.267 4.0003,35.714 L4.0003,33.714 C4.0003,33.161 4.4473,32.714 5.0003,32.714 C5.5533,32.714 6.0003,33.161 6.0003,33.714 L6.0003,35.714 C6.0003,36.267 5.5533,36.714 5.0003,36.714 M5.0003,43.714 C4.4473,43.714 4.0003,43.267 4.0003,42.714 L4.0003,40.714 C4.0003,40.161 4.4473,39.714 5.0003,39.714 C5.5533,39.714 6.0003,40.161 6.0003,40.714 L6.0003,42.714 C6.0003,43.267 5.5533,43.714 5.0003,43.714 M5.0003,50.714 C4.4473,50.714 4.0003,50.267 4.0003,49.714 L4.0003,47.714 C4.0003,47.161 4.4473,46.714 5.0003,46.714 C5.5533,46.714 6.0003,47.161 6.0003,47.714 L6.0003,49.714 C6.0003,50.267 5.5533,50.714 5.0003,50.714 M8.4313,55.96 C8.3853,55.96 8.3383,55.957 8.2903,55.95 C7.4643,55.834 6.6733,55.506 6.0023,55.003 C5.5613,54.672 5.4723,54.045 5.8033,53.603 C6.1343,53.161 6.7603,53.072 7.2033,53.403 C7.6043,53.704 8.0763,53.9 8.5693,53.97 C9.1163,54.047 9.4973,54.553 9.4203,55.1 C9.3503,55.599 8.9213,55.96 8.4313,55.96 M15.4293,56 L13.4293,56 C12.8763,56 12.4293,55.553 12.4293,55 C12.4293,54.447 12.8763,54 13.4293,54 L15.4293,54 C15.9813,54 16.4293,54.447 16.4293,55 C16.4293,55.553 15.9813,56 15.4293,56 M22.4293,56 L20.4293,56 C19.8763,56 19.4293,55.553 19.4293,55 C19.4293,54.447 19.8763,54 20.4293,54 L22.4293,54 C22.9813,54 23.4293,54.447 23.4293,55 C23.4293,55.553 22.9813,56 22.4293,56 M29.4293,56 L27.4293,56 C26.8763,56 26.4293,55.553 26.4293,55 C26.4293,54.447 26.8763,54 27.4293,54 L29.4293,54 C29.9813,54 30.4293,54.447 30.4293,55 C30.4293,55.553 29.9813,56 29.4293,56 M36.4293,56 L34.4293,56 C33.8763,56 33.4293,55.553 33.4293,55 C33.4293,54.447 33.8763,54 34.4293,54 L36.4293,54 C36.9813,54 37.4293,54.447 37.4293,55 C37.4293,55.553 36.9813,56 36.4293,56 M43.4293,56 L41.4293,56 C40.8763,56 40.4293,55.553 40.4293,55 C40.4293,54.447 40.8763,54 41.4293,54 L43.4293,54 C43.9813,54 44.4293,54.447 44.4293,55 C44.4293,55.553 43.9813,56 43.4293,56 M50.4293,56 L48.4293,56 C47.8763,56 47.4293,55.553 47.4293,55 C47.4293,54.447 47.8763,54 48.4293,54 L50.4293,54 C50.9813,54 51.4293,54.447 51.4293,55 C51.4293,55.553 50.9813,56 50.4293,56" id="Fill-1111"></path>
                <path d="M51.0003,31 C48.2433,31 46.0003,33.243 46.0003,36 C46.0003,38.757 48.2433,41 51.0003,41 L57.0003,41 C57.5523,41 58.0003,40.552 58.0003,40 L58.0003,32 C58.0003,31.448 57.5523,31 57.0003,31 L51.0003,31 Z M57.0003,43 L51.0003,43 C47.1413,43 44.0003,39.859 44.0003,36 C44.0003,32.141 47.1413,29 51.0003,29 L57.0003,29 C58.6543,29 60.0003,30.346 60.0003,32 L60.0003,40 C60.0003,41.654 58.6543,43 57.0003,43 L57.0003,43 Z" id="Fill-1112"></path>
                <path d="M55.0003,60 L5.0003,60 C2.2433,60 0.0003,57.757 0.0003,55 L0.0003,17 C0.0003,14.243 2.2433,12 5.0003,12 L55.0003,12 C56.6543,12 58.0003,13.346 58.0003,15 L58.0003,30 C58.0003,30.553 57.5533,31 57.0003,31 C56.4473,31 56.0003,30.553 56.0003,30 L56.0003,15 C56.0003,14.448 55.5523,14 55.0003,14 L5.0003,14 C3.3463,14 2.0003,15.346 2.0003,17 L2.0003,55 C2.0003,56.654 3.3463,58 5.0003,58 L55.0003,58 C55.5523,58 56.0003,57.552 56.0003,57 L56.0003,42 C56.0003,41.447 56.4473,41 57.0003,41 C57.5533,41 58.0003,41.447 58.0003,42 L58.0003,57 C58.0003,58.654 56.6543,60 55.0003,60" id="Fill-1113"></path>
                <path d="M48.2991,14 C47.8931,14 47.5111,13.751 47.3621,13.347 L44.2351,4.897 L20.7531,13.934 C20.2371,14.13 19.6591,13.875 19.4601,13.359 C19.2621,12.844 19.5191,12.265 20.0341,12.066 L44.4611,2.667 C44.7121,2.572 44.9881,2.578 45.2331,2.689 C45.4761,2.8 45.6651,3.003 45.7581,3.254 L49.2361,12.653 C49.4291,13.171 49.1641,13.746 48.6461,13.938 C48.5311,13.98 48.4141,14 48.2991,14" id="Fill-1114"></path>
                <path d="M17.1868,14 C16.8528,14 16.5268,13.833 16.3368,13.529 C16.0448,13.061 16.1878,12.443 16.6568,12.151 L35.8948,0.151 C36.1208,0.012 36.3918,-0.033 36.6498,0.025 C36.9088,0.086 37.1318,0.246 37.2728,0.471 L40.2068,5.174 C40.4988,5.643 40.3558,6.26 39.8868,6.552 C39.4168,6.844 38.8008,6.7 38.5088,6.232 L36.1048,2.378 L17.7148,13.849 C17.5498,13.951 17.3678,14 17.1868,14" id="Fill-1115"></path>
                <path d="M54.0003,37 L50.0003,37 C49.4473,37 49.0003,36.553 49.0003,36 C49.0003,35.447 49.4473,35 50.0003,35 L54.0003,35 C54.5533,35 55.0003,35.447 55.0003,36 C55.0003,36.553 54.5533,37 54.0003,37" id="Fill-1116"></path>
            </g>
        </g>
    </g>
</svg>