<?xml version="1.0" encoding="UTF-8"?>
<svg width="60px" height="60px" viewBox="0 0 60 60" version="1.1" xmlns="http://www.w3.org/2000/svg" xmlns:xlink="http://www.w3.org/1999/xlink">
    <!-- Generator: Sketch 47.1 (45422) - http://www.bohemiancoding.com/sketch -->
    <title>Education - Outline - 027 - Graduation Cap</title>
    <desc>Created with Sketch.</desc>
    <defs></defs>
    <g id="Page-1" stroke="none" stroke-width="1" fill="none" fill-rule="evenodd">
        <g id="Education---Outline---027---Graduation-Cap" fill-rule="nonzero" fill="#dd4f05">
            <path d="M58.94531,14.32764 L32.03223,0.48486 C30.7575814,-0.158360194 29.2533241,-0.158542024 27.97852,0.48437 L1.05469,14.32715 C0.410275665,14.634961 6.55466189e-06,15.2856 6.55466189e-06,15.999755 C6.55466189e-06,16.71391 0.410275665,17.364549 1.05469,17.67236 L7,20.73035 L7,36.58985 C7,36.60236 7.00671,36.61274 7.00714,36.62519 C7.02802175,36.7532126 7.0574441,36.879695 7.09521,37.00379 C7.12375835,37.0554808 7.15682747,37.1045424 7.19403,37.1504 C7.23124986,37.2108231 7.27487889,37.267055 7.32416,37.31812 C7.33344,37.32673 7.33698,37.33881 7.34668,37.34717 C11.33008,40.78125 20.22168,43 30,43 C38.598,43 46.50708,41.28363 51,38.53485 L51,44.58594 L48.293,47.29294 C48.105448,47.4804555 48.000055,47.7347872 48,48 L48,55 C47.999931,55.2652376 48.1052657,55.5196316 48.292817,55.707183 C48.4803684,55.8947343 48.7347624,56.000069 49,56 L55,56 C55.2652376,56.000069 55.5196316,55.8947343 55.707183,55.707183 C55.8947343,55.5196316 56.000069,55.2652376 56,55 L56,48 C55.9999291,47.734808 55.8945373,47.4805008 55.707,47.293 L53,44.58594 L53,20.72961 L58.94531,17.67285 C59.5897243,17.365039 59.9999934,16.7144 59.9999934,16.000245 C59.9999934,15.28609 59.5897243,14.635451 58.94531,14.32764 Z M30,41 C20.94794,41 12.80084,39.08582 9,36.10309 L9,34.125 C13.49292,36.87335 21.402,38.58984 30,38.58984 C38.598,38.58984 46.50708,36.87335 51,34.125 L51,36.10309 C47.19916,39.08582 39.05206,41 30,41 Z M54,54 L50,54 L50,48.41406 L52,46.41406 L54,48.41406 L54,54 Z M51,31.69336 C47.19922,34.67566 39.053,36.58984 30,36.58984 C20.947,36.58984 12.80078,34.67566 9,31.69336 L9,21.759 L27.96777,31.5151 C29.2424575,32.158157 30.7466371,32.1583388 32.02148,31.51559 L51,21.75787 L51,31.69336 Z M52.02753,18.98084 L35.96808,15.33447 C35.988408,15.2241178 35.9990883,15.1122052 36,15 C36,12.939 32.88965,12 30,12 C27.11035,12 24,12.939 24,15 C24,17.061 27.11035,18 30,18 C31.5609903,18.0439371 33.110525,17.7211252 34.52411,17.0575 L49.26062,20.40345 L31.10742,29.73682 C30.4074392,30.0893599 29.5818108,30.0893599 28.88183,29.73682 L2.17578,15.99951 L28.89258,2.26318 C29.5925608,1.9106401 30.4181892,1.9106401 31.11817,2.26318 L57.82422,16.00048 L52.02753,18.98084 Z M33.82959,15.13391 C33.81354,15.14343 33.79901,15.15332 33.78351,15.16376 C32.6238363,15.7867502 31.3142117,16.0762065 30,16 C27.65234,16 26.28223,15.32715 26.02539,15 C26.28223,14.67285 27.65239,14 30,14 C32.34761,14 33.71777,14.67285 33.97461,15 C33.9320131,15.0504806 33.8832986,15.095463 33.82959,15.13391 L33.82959,15.13391 Z" id="Shape"></path>
            <path d="M29.29,4.29 C29.1070782,4.48151195 29.0034639,4.73518836 29,5 C28.9963479,5.13117126 29.023789,5.26134494 29.08008,5.37988 C29.1307813,5.50105794 29.2018019,5.61268878 29.29008,5.70996 C29.6843933,6.09668008 30.3156867,6.09668008 30.71,5.70996 C30.7982781,5.61268878 30.8692987,5.50105794 30.92,5.37988 C30.9712373,5.25969861 30.9984165,5.13063812 31,5 C31.0023626,4.59373493 30.7586962,4.22641996 30.3834815,4.07062905 C30.0082668,3.91483814 29.5760905,4.00154005 29.29,4.29 Z" id="Shape"></path>
            <path d="M25.7998,6.02 C25.7372515,6.03071961 25.676675,6.05080165 25.62011,6.07957 C25.5561485,6.10152996 25.4953949,6.13190675 25.43945,6.1699 L25.29,6.29 C25.1070782,6.48151195 25.0034639,6.73518836 25,7 C25.0016184,7.2651832 25.1055003,7.51951478 25.29,7.71 C25.3398,7.75 25.38961,7.79008 25.43941,7.82963 C25.4953549,7.86762325 25.5561085,7.89800004 25.62007,7.91996 C25.6767199,7.94865883 25.7372752,7.96888773 25.7998,7.98 C25.8659628,7.99149262 25.9328712,7.99817678 26,8 C26.2646822,7.99590109 26.5181359,7.89237777 26.71,7.71 C26.75,7.65971 26.79008,7.6099 26.83012,7.54984 C26.8695951,7.49877479 26.8999855,7.44129556 26.91996,7.37992 C26.9489487,7.32327424 26.9690409,7.26250197 26.97953,7.19974 C26.9916592,7.13381102 26.9985043,7.06701874 27,7 C27.0025649,6.69877028 26.8682949,6.41265105 26.6349588,6.22212498 C26.4016226,6.03159891 26.0944332,5.95725298 25.7998,6.02 L25.7998,6.02 Z" id="Shape"></path>
            <path d="M21.29,8.29 C20.901799,8.68135294 20.9035017,9.31304666 21.2938069,9.70230114 C21.684112,10.0915556 22.315808,10.0915556 22.7061131,9.70230114 C23.0964183,9.31304666 23.098121,8.68135294 22.70992,8.29 C22.3087654,7.92040536 21.6911546,7.92040536 21.29,8.29 L21.29,8.29 Z" id="Shape"></path>
            <path d="M18.55957,10.16992 C18.5039618,10.1319447 18.4435309,10.1015662 18.37988,10.07959 C18.3201263,10.0493588 18.2557795,10.02923 18.18945,10.02002 C17.8633744,9.95427814 17.5259955,10.0555582 17.29004,10.29002 C17.1071083,10.4815207 17.0034798,10.7351898 17,11 C17.0016184,11.2651832 17.1055003,11.5195148 17.29,11.71 C17.481762,11.8925356 17.7352802,11.9960852 18,12 C18.0635675,11.9981718 18.1269021,11.9914857 18.18945,11.98 C18.2557537,11.9703959 18.3200636,11.9501132 18.37988,11.91994 C18.4435309,11.8979638 18.5039618,11.8675853 18.55957,11.82961 C18.6121633,11.7929223 18.6624051,11.752974 18.71,11.71 C19.0967201,11.3156867 19.0967201,10.6843933 18.71,10.29008 C18.66016,10.25 18.60938,10.21 18.55957,10.16992 Z" id="Shape"></path>
            <path d="M14.71,12.29 C14.6602,12.25 14.60941,12.20992 14.55961,12.16988 C14.5040018,12.1319047 14.4435709,12.1015262 14.37992,12.07955 C14.3201663,12.0493188 14.2558195,12.02919 14.18949,12.01998 C13.8637542,11.9608697 13.5294042,12.0612405 13.29008,12.28998 C13.1975426,12.3837427 13.1259648,12.4960823 13.08008,12.61957 C12.9733102,12.8617406 12.9733102,13.1376494 13.08008,13.37982 C13.1284433,13.5022046 13.1997182,13.6142352 13.29008,13.7099 C13.4818064,13.8924535 13.7352943,13.9960382 14,14 C14.0635675,13.9981718 14.1269021,13.9914857 14.18945,13.98 C14.2557537,13.9703959 14.3200636,13.9501132 14.37988,13.91994 C14.4435309,13.8979638 14.5039618,13.8675853 14.55957,13.82961 C14.6121633,13.7929223 14.6624051,13.752974 14.71,13.71 C14.8924566,13.5181869 14.9959931,13.264701 15,13 C14.998443,12.8691926 14.9712358,12.7399616 14.91992,12.61963 C14.8716961,12.4973269 14.800432,12.3854235 14.71,12.29 L14.71,12.29 Z" id="Shape"></path>
            <path d="M10.91992,14.61963 C10.8978218,14.5561206 10.8676262,14.4957259 10.83008,14.43994 C10.79008,14.38965 10.75,14.33984 10.70996,14.29004 C10.66016,14.25004 10.60937,14.20996 10.55957,14.16992 C10.5039618,14.1319447 10.4435309,14.1015662 10.37988,14.07959 C10.3201263,14.0493588 10.2557795,14.02923 10.18945,14.02002 C9.86362729,13.9593286 9.52856594,14.0599129 9.29004,14.29002 C9.24694422,14.3374593 9.20682745,14.3875218 9.16992,14.43992 C9.13199478,14.495484 9.1017732,14.5559305 9.08008,14.61961 C9.04967906,14.6793731 9.02922733,14.7436939 9.01953,14.81004 C9.00817204,14.8727674 9.00164288,14.9362738 9,15 C8.99741438,15.2660007 9.10194072,15.5218597 9.29004051,15.7099595 C9.47814031,15.8980593 9.73399928,16.0025856 10,16 C10.0635675,15.9981718 10.1269021,15.9914857 10.18945,15.98 C10.2557537,15.9703959 10.3200636,15.9501132 10.37988,15.91994 C10.4435309,15.8979638 10.5039618,15.8675853 10.55957,15.82961 C10.60937,15.79006 10.66016,15.75002 10.70996,15.70998 C10.8924266,15.5181781 10.9959772,15.2646995 11,15 C10.9985107,14.936223 10.9916497,14.8726848 10.97949,14.81006 C10.9705799,14.7436636 10.9504357,14.6792677 10.91992,14.61963 L10.91992,14.61963 Z" id="Shape"></path>
            <path d="M34,8 C34.0635675,7.99817183 34.1269021,7.99148567 34.18945,7.98 C34.2557537,7.97039594 34.3200636,7.95011317 34.37988,7.91994 C34.4413182,7.89988456 34.4988109,7.86932129 34.5498,7.82961 C34.60938,7.79 34.66016,7.75 34.71,7.71 C35.0560333,7.37066847 35.1135469,6.83389996 34.8472606,6.42895974 C34.5809744,6.02401952 34.065351,5.86414242 33.6166847,6.04740047 C33.1680184,6.23065852 32.9117715,6.70580665 33.0051312,7.18137882 C33.0984909,7.656951 33.5153507,7.99996136 34,8 Z" id="Shape"></path>
            <path d="M37.29,9.71 C37.6843133,10.0967201 38.3156067,10.0967201 38.70992,9.71 C38.7981981,9.61272878 38.8692187,9.50109794 38.91992,9.37992 C38.975761,9.26121929 39.0031791,9.13114103 39,9 C38.9985146,8.9328264 38.9916561,8.86587939 38.97949,8.7998 C38.9690009,8.73703803 38.9489087,8.67626576 38.91992,8.61962 C38.8997347,8.55833393 38.8693624,8.50088906 38.83008,8.4497 C38.79008,8.38964 38.75,8.33984 38.70996,8.29003 C38.4238694,8.00160304 37.9917193,7.91491778 37.6165251,8.07069723 C37.2413309,8.22647668 36.9976663,8.5937581 37,9 C37.0016088,9.13064347 37.0288152,9.25970417 37.08008,9.37988 C37.130753,9.50106638 37.2017465,9.61271067 37.29,9.71 Z" id="Shape"></path>
            <path d="M42,12 C42.4538719,11.9999698 42.8510865,11.6949705 42.9683003,11.2564951 C43.0855141,10.8180197 42.8934737,10.3555 42.5001585,10.1289986 C42.1068432,9.90249731 41.610414,9.96854302 41.29,10.29 C41.2469042,10.3374393 41.2067874,10.3875018 41.16988,10.4399 C41.1319548,10.495464 41.1017332,10.5559105 41.08004,10.61959 C41.051184,10.6763784 41.030785,10.7370802 41.01949,10.79977 C41.0038024,10.8652971 40.9972438,10.9326776 41,11 C41.003556,11.2647929 41.1071571,11.5184369 41.29,11.71 C41.4806333,11.8942729 41.7348699,11.998116 42,12 Z" id="Shape"></path>
            <path d="M46,14 C46.1306435,13.9983912 46.2597042,13.9711848 46.37988,13.91992 C46.5009011,13.868919 46.6124837,13.797929 46.70996,13.70992 C46.8924126,13.5181332 46.9959622,13.2646787 47,13 C46.998443,12.8691926 46.9712358,12.7399616 46.91992,12.61963 C46.8284917,12.3687209 46.6308291,12.1710583 46.37992,12.07963 C46.1367275,11.9712978 45.8596767,11.9677905 45.6138196,12.0699314 C45.3679626,12.1720724 45.1749567,12.3708641 45.08012,12.61963 C45.0287905,12.7399588 45.0015697,12.8691899 45,13 C44.9974144,13.2660007 45.1019407,13.5218597 45.2900405,13.7099595 C45.4781403,13.8980593 45.7339993,14.0025856 46,14 L46,14 Z" id="Shape"></path>
            <path d="M49.29,15.71 C49.3398,15.75 49.38961,15.79008 49.43941,15.82963 C49.4953549,15.8676232 49.5561085,15.898 49.62007,15.91996 C49.6767063,15.9486621 49.7372479,15.9688976 49.79976,15.98002 C49.8660005,15.9910327 49.9328895,15.9977069 50,16 C50.2646822,15.9959011 50.5181359,15.8923778 50.71,15.71 C50.8003618,15.6143352 50.8716367,15.5023046 50.92,15.37992 C50.9712424,15.2597262 50.9984217,15.1306516 51,15 C50.9960852,14.7352802 50.8925356,14.481762 50.71,14.29 C50.470519,14.0540265 50.1292602,13.9527916 49.79984,14.02 C49.7372915,14.0307196 49.676715,14.0508016 49.62015,14.07957 C49.5561885,14.10153 49.4954349,14.1319068 49.43949,14.1699 C49.3872033,14.2067756 49.3372757,14.2468873 49.29,14.29 C49.1070782,14.481512 49.0034639,14.7351884 49,15 C48.9963479,15.1311713 49.023789,15.2613449 49.08008,15.37988 C49.1284148,15.5022725 49.1996625,15.6143166 49.29,15.71 L49.29,15.71 Z" id="Shape"></path>
            <path d="M12.55957,25.16992 C12.5039618,25.1319447 12.4435309,25.1015662 12.37988,25.07959 C12.3201263,25.0493588 12.2557795,25.02923 12.18945,25.02002 C11.8636273,24.9593286 11.5285659,25.0599129 11.29004,25.29002 C10.9033199,25.6843333 10.9033199,26.3156267 11.29004,26.70994 C11.3841135,26.8023244 11.4965776,26.8738751 11.62012,26.91994 C11.7402972,26.9711979 11.8693579,26.9983975 12,27 C12.2650558,26.9977448 12.51916,26.8939558 12.71,26.71 C13.0967201,26.3156867 13.0967201,25.6843933 12.71,25.29008 C12.66016,25.25 12.60938,25.21 12.55957,25.16992 Z" id="Shape"></path>
            <path d="M12.55957,29.16992 C12.5039618,29.1319447 12.4435309,29.1015662 12.37988,29.07959 C12.3201263,29.0493588 12.2557795,29.02923 12.18945,29.02002 C11.8638682,28.9635624 11.5306966,29.0635794 11.29004,29.29002 C10.9033199,29.6843333 10.9033199,30.3156267 11.29004,30.70994 C11.3841135,30.8023244 11.4965776,30.8738751 11.62012,30.91994 C11.7402972,30.9711979 11.8693579,30.9983975 12,31 C12.0635675,30.9981718 12.1269021,30.9914857 12.18945,30.98 C12.2557537,30.9703959 12.3200636,30.9501132 12.37988,30.91994 C12.4435309,30.8979638 12.5039618,30.8675853 12.55957,30.82961 C12.60937,30.79006 12.66016,30.75002 12.70996,30.70998 C13.0966801,30.3156667 13.0966801,29.6843733 12.70996,29.29006 C12.66016,29.25 12.60938,29.21 12.55957,29.16992 Z" id="Shape"></path>
            <path d="M47.29,26.71 C47.481762,26.8925356 47.7352802,26.9960852 48,27 C48.0671257,26.9981285 48.1340307,26.9914446 48.2002,26.98 C48.2626741,26.9687288 48.3231946,26.9485003 48.37989,26.91994 C48.4435409,26.8979638 48.5039718,26.8675853 48.55958,26.82961 C48.60938,26.79006 48.66017,26.75002 48.70997,26.70998 C48.7982481,26.6127088 48.8692687,26.5010779 48.91997,26.3799 C48.9712201,26.2597145 48.9984096,26.1306469 49,26 C48.9960852,25.7352802 48.8925356,25.481762 48.71,25.29 C48.6624206,25.246867 48.6121928,25.2067488 48.55961,25.16988 C48.5040018,25.1319047 48.4435709,25.1015262 48.37992,25.07955 C48.3232859,25.0509263 48.2627207,25.0308581 48.2002,25.02 C47.8707735,24.9526471 47.5294474,25.0539019 47.29004,25.29 C47.1055257,25.4804789 47.0016291,25.7348112 47,26 C46.9963479,26.1311713 47.023789,26.2613449 47.08008,26.37988 C47.130753,26.5010664 47.2017465,26.6127107 47.29,26.71 L47.29,26.71 Z" id="Shape"></path>
            <path d="M48,31 C48.0671257,30.9981285 48.1340307,30.9914446 48.2002,30.98 C48.2626741,30.9687288 48.3231946,30.9485003 48.37989,30.91994 C48.4435409,30.8979638 48.5039718,30.8675853 48.55958,30.82961 C48.60938,30.79006 48.66017,30.75002 48.70997,30.70998 C49.0966901,30.3156667 49.0966901,29.6843733 48.70997,29.29006 C48.66017,29.25006 48.60938,29.20998 48.55958,29.16994 C48.5039718,29.1319647 48.4435409,29.1015862 48.37989,29.07961 C48.3232686,29.0509684 48.2627136,29.03088 48.2002,29.02 C47.8707735,28.9526471 47.5294474,29.0539019 47.29004,29.29 C46.9033199,29.6843133 46.9033199,30.3156067 47.29004,30.70992 C47.4806507,30.8942126 47.7348726,30.9980842 48,31 L48,31 Z" id="Shape"></path>
        </g>
    </g>
</svg>