<?xml version="1.0" encoding="UTF-8"?>
<svg width="60px" height="60px" viewBox="0 0 60 60" version="1.1" xmlns="http://www.w3.org/2000/svg" xmlns:xlink="http://www.w3.org/1999/xlink">
    <!-- Generator: Sketch 50.2 (55047) - http://www.bohemiancoding.com/sketch -->
    <title>022 - Employee Training</title>
    <desc>Created with Sketch.</desc>
    <defs></defs>
    <g id="Page-1" stroke="none" stroke-width="1" fill="none" fill-rule="evenodd" stroke-linecap="round" stroke-linejoin="round">
        <g id="022---Employee-Training" transform="translate(1.000000, 1.000000)" stroke="#dd4f05" stroke-width="1">
            <path d="M33,12 L33,19.112 C33.0009449,19.6961172 33.1378945,20.27199 33.4,20.794 L33.606,21.206 C33.8681055,21.72801 34.0050551,22.3038828 34.006,22.888 L34.006,26.443 C34.0044017,27.4403174 33.60654,28.3961209 32.9,29.1 C32.3704981,29.6349479 32.0107852,30.314367 31.866,31.053 C31.389622,33.1177601 30.4772222,35.0567801 29.19,36.74 C29.0677742,36.9088104 29.0013461,37.1115911 29,37.32 L29,40.43 C28.9955061,40.7842588 29.182953,41.1132471 29.49,41.29 L40.6,47.96 C42.7082534,49.2242495 43.9988296,51.5017369 44,53.96 L44,58 L0,58 L0,53.96 C0.00117044373,51.5017369 1.29174664,49.2242495 3.4,47.96 L14.51,41.29 C14.817047,41.1132471 15.0044939,40.7842588 15,40.43 L15,37.32 C14.9986539,37.1115911 14.9322258,36.9088104 14.81,36.74 C13.5242303,35.0574028 12.6128799,33.119462 12.137,31.056 C11.9919305,30.3159521 11.6311159,29.6353801 11.1,29.1 C10.3956607,28.395138 10.0000075,27.4394559 10,26.443 L10,22.888 C10.0009449,22.3038828 10.1378945,21.72801 10.4,21.206 L10.606,20.794 C10.8681055,20.27199 11.0050551,19.6961172 11.006,19.112 L11.006,12" id="Shape"></path>
            <polyline id="Shape" points="15 41 22 44 29 41"></polyline>
            <polyline id="Shape" points="22 44 18 48 10.32 43.81"></polyline>
            <polyline id="Shape" points="33.68 43.81 26 48 22 44"></polyline>
            <polyline id="Shape" points="25.14 47.14 23 50 21 50 18.86 47.14"></polyline>
            <path d="M23,50 L26,58" id="Shape"></path>
            <path d="M18,58 L21,50" id="Shape"></path>
            <path d="M34,44 L26,58" id="Shape"></path>
            <polyline id="Shape" points="10 44 10 44 18 58"></polyline>
            <path d="M11,18 L19.608,21.525 C21.139842,22.1580384 22.860158,22.1580384 24.392,21.525 L33,18" id="Shape"></path>
            <path d="M41.337,8.937 L22.354,15.871 C22.1252929,15.9539727 21.8747071,15.9539727 21.646,15.871 L2.663,8.937 C2.26607318,8.79646017 2.00076347,8.42107285 2.00076347,8 C2.00076347,7.57892715 2.26607318,7.20353983 2.663,7.063 L21.646,0.129 C21.8747071,0.0460272864 22.1252929,0.0460272864 22.354,0.129 L41.337,7.063 C41.7339268,7.20353983 41.9992365,7.57892715 41.9992365,8 C41.9992365,8.42107285 41.7339268,8.79646017 41.337,8.937 Z" id="Shape"></path>
            <path d="M2,8 L2,15" id="Shape"></path>
        </g>
    </g>
</svg>