<?xml version="1.0" encoding="UTF-8" standalone="no"?>
<svg width="60px" height="60px" viewBox="0 0 60 60" version="1.1" xmlns="http://www.w3.org/2000/svg" xmlns:xlink="http://www.w3.org/1999/xlink">
    <!-- Generator: Sketch 40.1 (33804) - http://www.bohemiancoding.com/sketch -->
    <title>39 - Plane (travel, vacation, voyage, outline)</title>
    <desc>Created with Sketch.</desc>
    <defs></defs>
    <g id="Page-1" stroke="none" stroke-width="1" fill="none" fill-rule="evenodd" stroke-linejoin="round">
        <g id="Icons" transform="translate(-240.000000, -477.000000)" stroke="#a7abad" stroke-width="1">
            <g id="Plane" transform="translate(241.000000, 478.000000)">
                <path d="M25,11 L27.345,8.655 C28.259,7.741 29.741,7.741 30.655,8.655 L33,11" id="Path" stroke-linecap="round"></path>
                <path d="M40.874,53.222 L29.265,47.11 C29.119,46.963 28.881,46.963 28.736,47.11 L17.126,53.222 C17.046,53.296 17,53.4 17,53.509 L17,57.61 C17,57.921 17.347,58.107 17.606,57.934 L28.807,54.118 C28.925,54.045 29.075,54.045 29.193,54.118 L40.394,57.934 C40.653,58.107 41,57.921 41,57.61 L41,53.509 C41,53.4 40.954,53.296 40.874,53.222 L40.874,53.222 Z M8,26.812 L8,24.5 C8,23.119 6.881,22 5.5,22 C4.119,22 3,23.119 3,24.5 L3,30.217 L8,26.812 L8,26.812 Z M17,20.684 L17,17.5 C17,16.119 15.881,15 14.5,15 C13.119,15 12,16.119 12,17.5 L12,24 L12.13,24 L17,20.684 L17,20.684 Z M50,26.812 L50,24.5 C50,23.119 51.119,22 52.5,22 C53.881,22 55,23.119 55,24.5 L55,30.217 L50,26.812 L50,26.812 Z M41,20.684 L41,17.5 C41,16.119 42.119,15 43.5,15 C44.881,15 46,16.119 46,17.5 L46,24 L45.87,24 L41,20.684 L41,20.684 Z M57.619,32 L37.006,19.279 C37.008,21.686 36.975,27.218 36.677,33.19 C43.508,34.037 51.604,35.036 57.156,38.645 C57.581,38.761 58,38.441 58,38 L58,32.603 C58,32.346 57.852,32.111 57.619,32 L57.619,32 Z M20.994,19.279 L0.381,32 C0.148,32.111 0,32.346 0,32.603 L0,38 C0,38.441 0.419,38.761 0.844,38.645 C6.396,35.036 14.492,34.037 21.323,33.19 C21.025,27.218 20.992,21.686 20.994,19.279 L20.994,19.279 Z M28.736,47.11 C28.881,46.963 29.119,46.963 29.265,47.11 L35.243,50.258 C37.198,39.036 37,15 37,15 C37,10.992 36.16,8.029 35.269,5.953 C34.238,3.55 31.745,0 29,0 C26.255,0 23.762,3.55 22.731,5.953 C21.84,8.029 21,10.992 21,15 C21,15 20.802,39.036 22.757,50.258 L28.736,47.11 L28.736,47.11 Z" id="Stroke-88"></path>
            </g>
        </g>
    </g>
</svg>